<?xml version="1.0" encoding="utf-8" standalone="no"?>
<!DOCTYPE svg PUBLIC "-//W3C//DTD SVG 1.1//EN"
  "http://www.w3.org/Graphics/SVG/1.1/DTD/svg11.dtd">
<svg xmlns:xlink="http://www.w3.org/1999/xlink" width="419.427923pt" height="280.8pt" viewBox="0 0 419.427923 280.8" xmlns="http://www.w3.org/2000/svg" version="1.1">
 <metadata>
  <rdf:RDF xmlns:dc="http://purl.org/dc/elements/1.1/" xmlns:cc="http://creativecommons.org/ns#" xmlns:rdf="http://www.w3.org/1999/02/22-rdf-syntax-ns#">
   <cc:Work>
    <dc:type rdf:resource="http://purl.org/dc/dcmitype/StillImage"/>
    <dc:date>2025-02-07T15:15:59.276468</dc:date>
    <dc:format>image/svg+xml</dc:format>
    <dc:creator>
     <cc:Agent>
      <dc:title>Matplotlib v3.10.0, https://matplotlib.org/</dc:title>
     </cc:Agent>
    </dc:creator>
   </cc:Work>
  </rdf:RDF>
 </metadata>
 <defs>
  <style type="text/css">*{stroke-linejoin: round; stroke-linecap: butt}</style>
 </defs>
 <g id="figure_1">
  <g id="patch_1">
   <path d="M 0 280.8 
L 419.427923 280.8 
L 419.427923 0 
L 0 0 
z
" style="fill: #ffffff"/>
  </g>
  <g id="axes_1">
   <g id="patch_2">
    <path d="M 40.267561 243.925036 
L 267.626028 243.925036 
L 267.626028 10.693149 
L 40.267561 10.693149 
z
" style="fill: #ffffff"/>
   </g>
   <g id="QuadContourSet_1">
    <path d="M 65.529613 243.925036 
L 90.791665 243.925036 
L 116.053717 243.925036 
L 141.315769 243.925036 
L 166.577821 243.925036 
L 191.839872 243.925036 
L 217.101924 243.925036 
L 242.363976 243.925036 
L 267.626028 243.925036 
L 267.626028 218.010382 
L 267.626028 192.095728 
L 267.626028 166.181074 
L 267.626028 140.26642 
L 267.626028 114.351766 
L 267.626028 88.437111 
L 267.626028 62.522457 
L 267.626028 36.607803 
L 267.626028 10.693149 
L 242.363976 10.693149 
L 217.101924 10.693149 
L 191.839872 10.693149 
L 166.577821 10.693149 
L 141.315769 10.693149 
L 116.053717 10.693149 
L 90.791665 10.693149 
L 65.529613 10.693149 
L 40.267561 10.693149 
L 40.267561 36.607803 
L 40.267561 62.522457 
L 40.267561 88.437111 
L 40.267561 114.351766 
L 40.267561 140.26642 
L 40.267561 166.181074 
L 40.267561 192.095728 
L 40.267561 218.010382 
L 40.267561 243.925036 
z
" clip-path="url(#p56d8a2f658)" style="fill: url(#he61ac9ba3d)"/>
   </g>
   <g id="QuadContourSet_2">
    <path clip-path="url(#p56d8a2f658)" style="fill: url(#h02c058ab6a)"/>
   </g>
   <g id="matplotlib.axis_1">
    <g id="xtick_1">
     <g id="line2d_1">
      <defs>
       <path id="ma5fd02b1e4" d="M 0 0 
L 0 3.5 
" style="stroke: #000000; stroke-width: 0.8"/>
      </defs>
      <g>
       <use xlink:href="#ma5fd02b1e4" x="68.687369" y="243.925036" style="stroke: #000000; stroke-width: 0.8"/>
      </g>
     </g>
     <g id="text_1">
      <!-- $\mathdefault{0.2}$ -->
      <g transform="translate(62.32233 257.911334) scale(0.1 -0.1)">
       <defs>
        <path id="CMR17-30" d="M 2688 2038 
C 2688 2430 2682 3099 2413 3613 
C 2176 4063 1798 4224 1466 4224 
C 1158 4224 768 4082 525 3620 
C 269 3137 243 2539 243 2038 
C 243 1671 250 1112 448 623 
C 723 -39 1216 -128 1466 -128 
C 1760 -128 2208 -7 2470 604 
C 2662 1048 2688 1568 2688 2038 
z
M 1466 -26 
C 1056 -26 813 328 723 816 
C 653 1196 653 1749 653 2109 
C 653 2604 653 3015 736 3407 
C 858 3954 1216 4121 1466 4121 
C 1728 4121 2067 3947 2189 3420 
C 2272 3054 2278 2623 2278 2109 
C 2278 1691 2278 1176 2202 797 
C 2067 96 1690 -26 1466 -26 
z
" transform="scale(0.015625)"/>
        <path id="CMMI12-3a" d="M 1178 307 
C 1178 492 1024 620 870 620 
C 685 620 557 467 557 313 
C 557 128 710 0 864 0 
C 1050 0 1178 153 1178 307 
z
" transform="scale(0.015625)"/>
        <path id="CMR17-32" d="M 2669 990 
L 2554 990 
C 2490 537 2438 460 2413 422 
C 2381 371 1920 371 1830 371 
L 602 371 
C 832 620 1280 1073 1824 1596 
C 2214 1966 2669 2400 2669 3033 
C 2669 3788 2067 4224 1395 4224 
C 691 4224 262 3603 262 3027 
C 262 2777 448 2745 525 2745 
C 589 2745 781 2783 781 3007 
C 781 3206 614 3264 525 3264 
C 486 3264 448 3257 422 3244 
C 544 3788 915 4057 1306 4057 
C 1862 4057 2227 3616 2227 3033 
C 2227 2477 1901 1998 1536 1583 
L 262 147 
L 262 0 
L 2515 0 
L 2669 990 
z
" transform="scale(0.015625)"/>
       </defs>
       <use xlink:href="#CMR17-30" transform="scale(0.996264)"/>
       <use xlink:href="#CMMI12-3a" transform="translate(45.690477 0) scale(0.996264)"/>
       <use xlink:href="#CMR17-32" transform="translate(72.787654 0) scale(0.996264)"/>
      </g>
     </g>
    </g>
    <g id="xtick_2">
     <g id="line2d_2">
      <g>
       <use xlink:href="#ma5fd02b1e4" x="125.526986" y="243.925036" style="stroke: #000000; stroke-width: 0.8"/>
      </g>
     </g>
     <g id="text_2">
      <!-- $\mathdefault{0.4}$ -->
      <g transform="translate(119.161947 257.911334) scale(0.1 -0.1)">
       <defs>
        <path id="CMR17-34" d="M 2150 4147 
C 2150 4281 2144 4288 2029 4288 
L 128 1254 
L 128 1088 
L 1779 1088 
L 1779 460 
C 1779 230 1766 166 1318 166 
L 1197 166 
L 1197 0 
C 1402 12 1747 12 1965 12 
C 2182 12 2528 12 2733 0 
L 2733 166 
L 2611 166 
C 2163 166 2150 230 2150 460 
L 2150 1088 
L 2803 1088 
L 2803 1254 
L 2150 1254 
L 2150 4147 
z
M 1798 3723 
L 1798 1254 
L 256 1254 
L 1798 3723 
z
" transform="scale(0.015625)"/>
       </defs>
       <use xlink:href="#CMR17-30" transform="scale(0.996264)"/>
       <use xlink:href="#CMMI12-3a" transform="translate(45.690477 0) scale(0.996264)"/>
       <use xlink:href="#CMR17-34" transform="translate(72.787654 0) scale(0.996264)"/>
      </g>
     </g>
    </g>
    <g id="xtick_3">
     <g id="line2d_3">
      <g>
       <use xlink:href="#ma5fd02b1e4" x="182.366603" y="243.925036" style="stroke: #000000; stroke-width: 0.8"/>
      </g>
     </g>
     <g id="text_3">
      <!-- $\mathdefault{0.6}$ -->
      <g transform="translate(176.001563 257.911334) scale(0.1 -0.1)">
       <defs>
        <path id="CMR17-36" d="M 678 2198 
C 678 3712 1395 4076 1811 4076 
C 1946 4076 2272 4049 2400 3782 
C 2298 3782 2106 3782 2106 3558 
C 2106 3385 2246 3328 2336 3328 
C 2394 3328 2566 3353 2566 3571 
C 2566 3987 2246 4224 1805 4224 
C 1043 4224 243 3411 243 2011 
C 243 257 966 -128 1478 -128 
C 2099 -128 2688 431 2688 1295 
C 2688 2101 2170 2688 1517 2688 
C 1126 2688 838 2430 678 1979 
L 678 2198 
z
M 1478 25 
C 691 25 691 1212 691 1450 
C 691 1914 909 2585 1504 2585 
C 1613 2585 1926 2585 2138 2140 
C 2253 1889 2253 1624 2253 1302 
C 2253 954 2253 696 2118 438 
C 1978 173 1773 25 1478 25 
z
" transform="scale(0.015625)"/>
       </defs>
       <use xlink:href="#CMR17-30" transform="scale(0.996264)"/>
       <use xlink:href="#CMMI12-3a" transform="translate(45.690477 0) scale(0.996264)"/>
       <use xlink:href="#CMR17-36" transform="translate(72.787654 0) scale(0.996264)"/>
      </g>
     </g>
    </g>
    <g id="xtick_4">
     <g id="line2d_4">
      <g>
       <use xlink:href="#ma5fd02b1e4" x="239.20622" y="243.925036" style="stroke: #000000; stroke-width: 0.8"/>
      </g>
     </g>
     <g id="text_4">
      <!-- $\mathdefault{0.8}$ -->
      <g transform="translate(232.84118 257.911334) scale(0.1 -0.1)">
       <defs>
        <path id="CMR17-38" d="M 1741 2289 
C 2144 2494 2554 2803 2554 3298 
C 2554 3884 1990 4224 1472 4224 
C 890 4224 378 3800 378 3215 
C 378 3054 416 2777 666 2533 
C 730 2469 998 2276 1171 2154 
C 883 2006 211 1652 211 945 
C 211 282 838 -128 1459 -128 
C 2144 -128 2720 366 2720 1022 
C 2720 1607 2330 1877 2074 2051 
L 1741 2289 
z
M 902 2855 
C 851 2887 595 3086 595 3388 
C 595 3781 998 4076 1459 4076 
C 1965 4076 2336 3716 2336 3298 
C 2336 2700 1670 2359 1638 2359 
C 1632 2359 1626 2359 1574 2398 
L 902 2855 
z
M 2080 1536 
C 2176 1466 2483 1253 2483 861 
C 2483 385 2010 25 1472 25 
C 890 25 448 443 448 951 
C 448 1459 838 1884 1280 2083 
L 2080 1536 
z
" transform="scale(0.015625)"/>
       </defs>
       <use xlink:href="#CMR17-30" transform="scale(0.996264)"/>
       <use xlink:href="#CMMI12-3a" transform="translate(45.690477 0) scale(0.996264)"/>
       <use xlink:href="#CMR17-38" transform="translate(72.787654 0) scale(0.996264)"/>
      </g>
     </g>
    </g>
    <g id="text_5">
     <!-- $b_0$ -->
     <g transform="translate(149.823364 271.248816) scale(0.1 -0.1)">
      <defs>
       <path id="CMMI12-62" d="M 1478 4255 
C 1485 4281 1498 4319 1498 4351 
C 1498 4416 1434 4416 1421 4416 
C 1414 4416 1184 4396 1069 4383 
C 960 4377 864 4364 749 4358 
C 595 4345 550 4339 550 4223 
C 550 4159 614 4159 678 4159 
C 1005 4159 1005 4103 1005 4040 
C 1005 3995 954 3812 928 3699 
L 774 3093 
C 710 2841 346 1392 320 1277 
C 288 1117 288 1008 288 925 
C 288 274 653 -64 1069 -64 
C 1811 -64 2579 887 2579 1813 
C 2579 2400 2246 2816 1766 2816 
C 1434 2816 1133 2541 1011 2413 
L 1478 4255 
z
M 1075 64 
C 870 64 646 217 646 715 
C 646 925 666 1047 781 1494 
C 800 1577 902 1985 928 2068 
C 941 2119 1318 2687 1754 2687 
C 2035 2687 2163 2407 2163 2075 
C 2163 1768 1984 1047 1824 715 
C 1664 370 1370 64 1075 64 
z
" transform="scale(0.015625)"/>
      </defs>
      <use xlink:href="#CMMI12-62" transform="scale(0.996264)"/>
      <use xlink:href="#CMR17-30" transform="translate(41.475874 -14.943915) scale(0.697382)"/>
     </g>
    </g>
   </g>
   <g id="matplotlib.axis_2">
    <g id="ytick_1">
     <g id="line2d_5">
      <defs>
       <path id="m131469b5e1" d="M 0 0 
L -3.5 0 
" style="stroke: #000000; stroke-width: 0.8"/>
      </defs>
      <g>
       <use xlink:href="#m131469b5e1" x="40.267561" y="243.925036" style="stroke: #000000; stroke-width: 0.8"/>
      </g>
     </g>
     <g id="text_6">
      <!-- $\mathdefault{0.1}$ -->
      <g transform="translate(20.537482 247.418185) scale(0.1 -0.1)">
       <defs>
        <path id="CMR17-31" d="M 1702 4083 
C 1702 4217 1696 4224 1606 4224 
C 1357 3927 979 3833 621 3820 
C 602 3820 570 3820 563 3808 
C 557 3795 557 3782 557 3648 
C 755 3648 1088 3686 1344 3839 
L 1344 467 
C 1344 243 1331 166 781 166 
L 589 166 
L 589 0 
C 896 6 1216 12 1523 12 
C 1830 12 2150 6 2458 0 
L 2458 166 
L 2266 166 
C 1715 166 1702 236 1702 467 
L 1702 4083 
z
" transform="scale(0.015625)"/>
       </defs>
       <use xlink:href="#CMR17-30" transform="scale(0.996264)"/>
       <use xlink:href="#CMMI12-3a" transform="translate(45.690477 0) scale(0.996264)"/>
       <use xlink:href="#CMR17-31" transform="translate(72.787654 0) scale(0.996264)"/>
      </g>
     </g>
    </g>
    <g id="ytick_2">
     <g id="line2d_6">
      <g>
       <use xlink:href="#m131469b5e1" x="40.267561" y="214.77105" style="stroke: #000000; stroke-width: 0.8"/>
      </g>
     </g>
     <g id="text_7">
      <!-- $\mathdefault{0.2}$ -->
      <g transform="translate(20.537482 218.264199) scale(0.1 -0.1)">
       <use xlink:href="#CMR17-30" transform="scale(0.996264)"/>
       <use xlink:href="#CMMI12-3a" transform="translate(45.690477 0) scale(0.996264)"/>
       <use xlink:href="#CMR17-32" transform="translate(72.787654 0) scale(0.996264)"/>
      </g>
     </g>
    </g>
    <g id="ytick_3">
     <g id="line2d_7">
      <g>
       <use xlink:href="#m131469b5e1" x="40.267561" y="185.617064" style="stroke: #000000; stroke-width: 0.8"/>
      </g>
     </g>
     <g id="text_8">
      <!-- $\mathdefault{0.3}$ -->
      <g transform="translate(20.537482 189.110213) scale(0.1 -0.1)">
       <defs>
        <path id="CMR17-33" d="M 1414 2176 
C 1984 2176 2234 1673 2234 1094 
C 2234 322 1824 25 1453 25 
C 1114 25 563 193 390 691 
C 422 678 454 678 486 678 
C 640 678 755 780 755 947 
C 755 1132 614 1216 486 1216 
C 378 1216 211 1164 211 927 
C 211 335 787 -128 1466 -128 
C 2176 -128 2720 432 2720 1087 
C 2720 1718 2208 2176 1600 2246 
C 2086 2347 2554 2776 2554 3353 
C 2554 3856 2048 4224 1472 4224 
C 890 4224 378 3862 378 3347 
C 378 3123 544 3084 627 3084 
C 762 3084 877 3167 877 3334 
C 877 3500 762 3584 627 3584 
C 602 3584 570 3584 544 3571 
C 730 3999 1235 4076 1459 4076 
C 1683 4076 2106 3966 2106 3347 
C 2106 3167 2080 2851 1862 2574 
C 1670 2329 1453 2316 1242 2297 
C 1210 2297 1062 2284 1037 2284 
C 992 2278 966 2272 966 2227 
C 966 2182 973 2176 1101 2176 
L 1414 2176 
z
" transform="scale(0.015625)"/>
       </defs>
       <use xlink:href="#CMR17-30" transform="scale(0.996264)"/>
       <use xlink:href="#CMMI12-3a" transform="translate(45.690477 0) scale(0.996264)"/>
       <use xlink:href="#CMR17-33" transform="translate(72.787654 0) scale(0.996264)"/>
      </g>
     </g>
    </g>
    <g id="ytick_4">
     <g id="line2d_8">
      <g>
       <use xlink:href="#m131469b5e1" x="40.267561" y="156.463078" style="stroke: #000000; stroke-width: 0.8"/>
      </g>
     </g>
     <g id="text_9">
      <!-- $\mathdefault{0.4}$ -->
      <g transform="translate(20.537482 159.956228) scale(0.1 -0.1)">
       <use xlink:href="#CMR17-30" transform="scale(0.996264)"/>
       <use xlink:href="#CMMI12-3a" transform="translate(45.690477 0) scale(0.996264)"/>
       <use xlink:href="#CMR17-34" transform="translate(72.787654 0) scale(0.996264)"/>
      </g>
     </g>
    </g>
    <g id="ytick_5">
     <g id="line2d_9">
      <g>
       <use xlink:href="#m131469b5e1" x="40.267561" y="127.309093" style="stroke: #000000; stroke-width: 0.8"/>
      </g>
     </g>
     <g id="text_10">
      <!-- $\mathdefault{0.5}$ -->
      <g transform="translate(20.537482 130.802242) scale(0.1 -0.1)">
       <defs>
        <path id="CMR17-35" d="M 730 3750 
C 794 3724 1056 3641 1325 3641 
C 1920 3641 2246 3961 2432 4140 
C 2432 4191 2432 4224 2394 4224 
C 2387 4224 2374 4224 2323 4198 
C 2099 4102 1837 4032 1517 4032 
C 1325 4032 1037 4055 723 4191 
C 653 4224 640 4224 634 4224 
C 602 4224 595 4217 595 4090 
L 595 2231 
C 595 2113 595 2080 659 2080 
C 691 2080 704 2093 736 2139 
C 941 2435 1222 2560 1542 2560 
C 1766 2560 2246 2415 2246 1293 
C 2246 1087 2246 716 2054 422 
C 1894 159 1645 25 1370 25 
C 947 25 518 319 403 812 
C 429 806 480 793 506 793 
C 589 793 749 838 749 1036 
C 749 1209 627 1280 506 1280 
C 358 1280 262 1190 262 1011 
C 262 454 704 -128 1382 -128 
C 2042 -128 2669 441 2669 1267 
C 2669 2054 2170 2662 1549 2662 
C 1222 2662 947 2540 730 2304 
L 730 3750 
z
" transform="scale(0.015625)"/>
       </defs>
       <use xlink:href="#CMR17-30" transform="scale(0.996264)"/>
       <use xlink:href="#CMMI12-3a" transform="translate(45.690477 0) scale(0.996264)"/>
       <use xlink:href="#CMR17-35" transform="translate(72.787654 0) scale(0.996264)"/>
      </g>
     </g>
    </g>
    <g id="ytick_6">
     <g id="line2d_10">
      <g>
       <use xlink:href="#m131469b5e1" x="40.267561" y="98.155107" style="stroke: #000000; stroke-width: 0.8"/>
      </g>
     </g>
     <g id="text_11">
      <!-- $\mathdefault{0.6}$ -->
      <g transform="translate(20.537482 101.648256) scale(0.1 -0.1)">
       <use xlink:href="#CMR17-30" transform="scale(0.996264)"/>
       <use xlink:href="#CMMI12-3a" transform="translate(45.690477 0) scale(0.996264)"/>
       <use xlink:href="#CMR17-36" transform="translate(72.787654 0) scale(0.996264)"/>
      </g>
     </g>
    </g>
    <g id="ytick_7">
     <g id="line2d_11">
      <g>
       <use xlink:href="#m131469b5e1" x="40.267561" y="69.001121" style="stroke: #000000; stroke-width: 0.8"/>
      </g>
     </g>
     <g id="text_12">
      <!-- $\mathdefault{0.7}$ -->
      <g transform="translate(20.537482 72.49427) scale(0.1 -0.1)">
       <defs>
        <path id="CMR17-37" d="M 2886 3955 
L 2886 4096 
L 1382 4096 
C 634 4096 621 4166 595 4288 
L 480 4288 
L 294 3104 
L 410 3104 
C 429 3226 474 3552 550 3673 
C 589 3724 1062 3724 1171 3724 
L 2579 3724 
L 1869 2670 
C 1395 1961 1069 1003 1069 166 
C 1069 89 1069 -128 1299 -128 
C 1530 -128 1530 89 1530 172 
L 1530 466 
C 1530 1514 1709 2204 2003 2644 
L 2886 3955 
z
" transform="scale(0.015625)"/>
       </defs>
       <use xlink:href="#CMR17-30" transform="scale(0.996264)"/>
       <use xlink:href="#CMMI12-3a" transform="translate(45.690477 0) scale(0.996264)"/>
       <use xlink:href="#CMR17-37" transform="translate(72.787654 0) scale(0.996264)"/>
      </g>
     </g>
    </g>
    <g id="ytick_8">
     <g id="line2d_12">
      <g>
       <use xlink:href="#m131469b5e1" x="40.267561" y="39.847135" style="stroke: #000000; stroke-width: 0.8"/>
      </g>
     </g>
     <g id="text_13">
      <!-- $\mathdefault{0.8}$ -->
      <g transform="translate(20.537482 43.340284) scale(0.1 -0.1)">
       <use xlink:href="#CMR17-30" transform="scale(0.996264)"/>
       <use xlink:href="#CMMI12-3a" transform="translate(45.690477 0) scale(0.996264)"/>
       <use xlink:href="#CMR17-38" transform="translate(72.787654 0) scale(0.996264)"/>
      </g>
     </g>
    </g>
    <g id="ytick_9">
     <g id="line2d_13">
      <g>
       <use xlink:href="#m131469b5e1" x="40.267561" y="10.693149" style="stroke: #000000; stroke-width: 0.8"/>
      </g>
     </g>
     <g id="text_14">
      <!-- $\mathdefault{0.9}$ -->
      <g transform="translate(20.537482 14.186298) scale(0.1 -0.1)">
       <defs>
        <path id="CMR17-39" d="M 2253 1871 
C 2253 448 1670 25 1190 25 
C 1043 25 685 43 538 281 
C 704 256 826 345 826 505 
C 826 678 685 736 595 736 
C 538 736 365 710 365 492 
C 365 68 742 -128 1203 -128 
C 1939 -128 2688 665 2688 2090 
C 2688 3857 1971 4224 1485 4224 
C 851 4224 243 3664 243 2800 
C 243 2000 762 1408 1414 1408 
C 1952 1408 2189 1910 2253 2122 
L 2253 1871 
z
M 1427 1510 
C 1254 1510 1011 1542 813 1929 
C 678 2181 678 2477 678 2793 
C 678 3174 678 3438 858 3722 
C 947 3857 1114 4076 1485 4076 
C 2240 4076 2240 2909 2240 2651 
C 2240 2193 2035 1510 1427 1510 
z
" transform="scale(0.015625)"/>
       </defs>
       <use xlink:href="#CMR17-30" transform="scale(0.996264)"/>
       <use xlink:href="#CMMI12-3a" transform="translate(45.690477 0) scale(0.996264)"/>
       <use xlink:href="#CMR17-39" transform="translate(72.787654 0) scale(0.996264)"/>
      </g>
     </g>
    </g>
    <g id="text_15">
     <!-- $g_0$ -->
     <g transform="translate(14.186298 131.670644) rotate(-90) scale(0.1 -0.1)">
      <defs>
       <path id="CMMI12-67" d="M 2163 811 
C 2138 708 2125 683 2042 587 
C 1779 249 1510 128 1312 128 
C 1101 128 902 293 902 734 
C 902 1072 1094 1787 1235 2075 
C 1421 2432 1709 2687 1978 2687 
C 2400 2687 2483 2164 2483 2126 
L 2464 2036 
L 2163 811 
z
M 2560 2394 
C 2477 2579 2298 2816 1978 2816 
C 1280 2816 486 1941 486 989 
C 486 325 890 0 1299 0 
C 1638 0 1939 268 2054 396 
L 1914 -176 
C 1824 -520 1786 -677 1555 -896 
C 1293 -1152 1050 -1152 909 -1152 
C 717 -1152 557 -1140 397 -1090 
C 602 -1034 653 -858 653 -789 
C 653 -689 576 -589 435 -589 
C 282 -589 115 -714 115 -921 
C 115 -1178 378 -1280 922 -1280 
C 1747 -1280 2176 -758 2259 -420 
L 2970 2426 
C 2989 2502 2989 2515 2989 2528 
C 2989 2617 2918 2688 2822 2688 
C 2669 2688 2579 2560 2560 2388 
L 2560 2394 
z
" transform="scale(0.015625)"/>
      </defs>
      <use xlink:href="#CMMI12-67" transform="scale(0.996264)"/>
      <use xlink:href="#CMR17-30" transform="translate(46.710897 -14.943915) scale(0.697382)"/>
     </g>
    </g>
   </g>
   <g id="patch_3">
    <path d="M 40.267561 243.925036 
L 40.267561 10.693149 
" style="fill: none; stroke: #000000; stroke-width: 0.8; stroke-linejoin: miter; stroke-linecap: square"/>
   </g>
   <g id="patch_4">
    <path d="M 267.626028 243.925036 
L 267.626028 10.693149 
" style="fill: none; stroke: #000000; stroke-width: 0.8; stroke-linejoin: miter; stroke-linecap: square"/>
   </g>
   <g id="patch_5">
    <path d="M 40.267561 243.925036 
L 267.626028 243.925036 
" style="fill: none; stroke: #000000; stroke-width: 0.8; stroke-linejoin: miter; stroke-linecap: square"/>
   </g>
   <g id="patch_6">
    <path d="M 40.267561 10.693149 
L 267.626028 10.693149 
" style="fill: none; stroke: #000000; stroke-width: 0.8; stroke-linejoin: miter; stroke-linecap: square"/>
   </g>
   <g id="legend_1">
    <g id="patch_7">
     <path d="M 285.993952 47.395517 
L 410.227923 47.395517 
Q 412.227923 47.395517 412.227923 45.395517 
L 412.227923 17.693149 
Q 412.227923 15.693149 410.227923 15.693149 
L 285.993952 15.693149 
Q 283.993952 15.693149 283.993952 17.693149 
L 283.993952 45.395517 
Q 283.993952 47.395517 285.993952 47.395517 
z
" style="fill: #ffffff; opacity: 0.8; stroke: #cccccc; stroke-linejoin: miter"/>
    </g>
    <g id="patch_8">
     <path d="M 287.993952 26.693149 
L 307.993952 26.693149 
L 307.993952 19.693149 
L 287.993952 19.693149 
z
" style="fill: url(#he61ac9ba3d)"/>
    </g>
    <g id="text_16">
     <!-- Inequality increases -->
     <g transform="translate(315.993952 26.693149) scale(0.1 -0.1)">
      <defs>
       <path id="LinBiolinumT-49" d="M 666 2863 
L 666 1297 
C 666 818 653 364 602 19 
L 614 0 
C 691 12 864 19 941 19 
C 1018 19 1190 12 1267 0 
L 1280 19 
C 1229 383 1216 818 1216 1297 
L 1216 2863 
C 1216 3342 1229 3802 1280 4141 
L 1267 4160 
C 1190 4147 1018 4141 941 4141 
C 864 4141 691 4147 614 4160 
L 602 4141 
C 653 3776 666 3342 666 2863 
z
" transform="scale(0.015625)"/>
       <path id="LinBiolinumT-6e" d="M 2944 1165 
C 2944 1368 2957 1604 2957 1808 
C 2957 2470 2739 2816 2163 2816 
C 1920 2816 1466 2719 1056 2240 
L 1043 2260 
L 1043 2726 
C 1042 2776 1036 2790 1005 2790 
C 861 2762 632 2757 486 2771 
L 474 2751 
C 518 2475 531 1992 531 1515 
L 531 1165 
C 531 687 525 362 474 19 
L 486 0 
C 563 12 710 19 787 19 
C 864 19 1011 12 1088 0 
L 1101 19 
C 1050 381 1043 681 1043 1165 
L 1043 1909 
C 1370 2291 1741 2431 1971 2431 
C 2298 2431 2432 2304 2432 1788 
L 2432 1165 
C 2432 687 2420 361 2374 19 
L 2387 0 
C 2464 12 2611 19 2688 19 
C 2765 19 2912 12 2989 0 
L 3002 19 
C 2952 381 2944 681 2944 1165 
z
" transform="scale(0.015625)"/>
       <path id="LinBiolinumT-65" d="M 800 1728 
C 909 2414 1329 2559 1530 2559 
C 1783 2559 2067 2315 2067 1820 
C 2067 1761 2042 1728 1978 1728 
L 800 1728 
z
M 2509 659 
C 2285 420 1984 313 1632 313 
C 1413 313 1111 395 934 672 
C 822 848 781 1105 781 1472 
L 2522 1472 
C 2592 1472 2637 1510 2637 1580 
C 2637 2130 2374 2816 1530 2816 
C 870 2816 218 2276 218 1320 
C 218 963 292 610 506 357 
C 726 93 1092 -64 1523 -64 
C 1984 -64 2394 172 2637 502 
L 2509 659 
z
" transform="scale(0.015625)"/>
       <path id="LinBiolinumT-71" d="M 2285 2412 
C 2285 2412 2304 2142 2304 1501 
L 2304 422 
C 2138 294 1824 217 1702 217 
C 1331 217 877 487 877 1456 
C 877 2123 1210 2559 1683 2559 
C 1964 2559 2145 2527 2285 2412 
z
M 2342 2771 
C 2227 2790 1862 2816 1645 2816 
C 902 2816 314 2232 314 1385 
C 314 716 666 -64 1549 -64 
C 1914 -64 2208 64 2304 147 
L 2304 -208 
C 2304 -693 2301 -1166 2246 -1517 
L 2259 -1536 
C 2259 -1536 2336 -1517 2560 -1517 
C 2779 -1517 2861 -1536 2861 -1536 
L 2874 -1517 
C 2820 -1144 2816 -700 2816 -208 
L 2816 1507 
C 2816 1988 2829 2475 2874 2751 
L 2861 2771 
C 2715 2757 2459 2751 2342 2771 
z
" transform="scale(0.015625)"/>
       <path id="LinBiolinumT-75" d="M 2336 600 
L 2362 582 
L 2394 18 
C 2394 6 2401 0 2419 0 
C 2504 11 2579 18 2673 18 
C 2752 18 2874 12 2957 0 
L 2970 18 
C 2918 291 2861 759 2861 1233 
L 2861 1594 
C 2861 2068 2867 2397 2918 2732 
L 2906 2752 
C 2829 2739 2682 2732 2605 2732 
C 2528 2732 2381 2739 2304 2752 
L 2291 2732 
C 2341 2371 2349 2074 2349 1594 
L 2349 974 
C 2154 635 1786 294 1472 294 
C 1252 294 1043 364 1043 956 
L 1043 1586 
C 1043 2064 1050 2395 1101 2733 
L 1088 2752 
C 1011 2739 864 2733 787 2733 
C 710 2733 563 2739 486 2752 
L 474 2733 
C 525 2370 531 2070 531 1586 
L 531 822 
C 531 383 736 -64 1370 -64 
C 1766 -64 2125 262 2336 587 
L 2336 600 
z
" transform="scale(0.015625)"/>
       <path id="LinBiolinumT-61" d="M 1984 1443 
L 1958 679 
C 1958 596 1920 551 1869 512 
C 1690 377 1472 262 1280 262 
C 992 262 806 454 806 653 
C 806 942 941 1160 1440 1295 
L 1984 1443 
z
M 1984 307 
C 2058 57 2249 -64 2483 -64 
C 2644 -64 2842 -26 2993 134 
L 2945 293 
C 2875 268 2821 259 2772 259 
C 2708 259 2624 271 2584 307 
C 2519 366 2478 522 2478 807 
C 2478 994 2496 1706 2496 1777 
C 2496 2643 1926 2816 1440 2816 
C 954 2816 659 2579 499 2444 
L 480 2418 
L 589 1988 
L 672 1982 
C 851 2271 1069 2527 1376 2527 
C 1606 2527 1990 2495 1990 1770 
C 1990 1725 1965 1700 1946 1693 
L 1350 1558 
C 698 1411 288 1064 288 628 
C 288 153 614 -64 1088 -64 
C 1440 -64 1619 19 1958 307 
L 1984 307 
z
" transform="scale(0.015625)"/>
       <path id="LinBiolinumT-6c" d="M 576 1297 
C 576 821 567 361 518 19 
L 531 0 
C 608 12 755 19 832 19 
C 909 19 1056 12 1133 0 
L 1146 19 
C 1096 383 1088 816 1088 1297 
L 1088 3214 
C 1088 3693 1115 4012 1146 4415 
C 1146 4460 1128 4480 1088 4480 
C 928 4415 791 4371 531 4352 
L 518 4332 
C 568 4059 576 3585 576 3099 
L 576 1297 
z
" transform="scale(0.015625)"/>
       <path id="LinBiolinumT-69" d="M 512 3833 
C 512 3660 666 3507 838 3507 
C 1011 3507 1165 3660 1165 3833 
C 1165 4006 1011 4160 838 4160 
C 666 4160 512 4006 512 3833 
z
M 576 1502 
L 576 1155 
C 576 681 564 359 518 18 
L 531 0 
C 608 12 755 18 832 18 
C 909 18 1056 12 1133 0 
L 1146 18 
C 1100 377 1088 675 1088 1155 
L 1088 1603 
C 1088 2076 1105 2303 1146 2688 
C 1146 2745 1138 2752 1088 2752 
C 942 2737 667 2734 531 2745 
L 518 2726 
C 558 2456 576 1975 576 1502 
z
" transform="scale(0.015625)"/>
       <path id="LinBiolinumT-74" d="M 608 2752 
C 477 2752 342 2754 262 2764 
C 219 2659 184 2598 122 2502 
L 154 2457 
C 264 2465 462 2469 608 2470 
L 608 1586 
C 608 1199 589 735 589 541 
C 589 125 858 -64 1152 -64 
C 1421 -64 1626 -3 1894 162 
L 1816 320 
C 1619 252 1472 245 1312 271 
C 1160 295 1101 450 1101 799 
C 1101 993 1120 1270 1120 1657 
L 1120 2470 
L 1363 2470 
C 1517 2470 1740 2465 1824 2457 
C 1843 2559 1862 2625 1901 2719 
L 1869 2764 
C 1754 2759 1568 2752 1421 2752 
L 1120 2752 
C 1120 3230 1124 3315 1152 3686 
C 1152 3732 1134 3750 1094 3750 
C 934 3686 855 3618 646 3590 
L 634 3571 
C 621 3348 608 3123 608 2752 
L 608 2752 
z
" transform="scale(0.015625)"/>
       <path id="LinBiolinumT-79" d="M 179 2752 
C 434 2182 1194 529 1421 -82 
C 1216 -560 955 -1053 666 -1536 
C 730 -1517 826 -1504 890 -1504 
C 954 -1504 1139 -1517 1203 -1536 
C 1446 -735 2848 2322 3059 2752 
C 2995 2732 2848 2732 2784 2732 
C 2720 2732 2598 2732 2534 2752 
C 2304 2027 2004 1208 1695 544 
L 1682 544 
C 1367 1307 1065 2019 826 2751 
C 742 2732 602 2732 512 2732 
C 429 2732 269 2732 179 2751 
L 179 2752 
z
" transform="scale(0.015625)"/>
       <path id="LinBiolinumT-63" d="M 1600 2559 
C 1847 2559 2071 2377 2240 2085 
L 2323 2091 
L 2470 2617 
L 2458 2636 
C 2259 2739 1926 2816 1606 2816 
C 941 2816 243 2271 243 1398 
C 243 506 749 -64 1530 -64 
C 1914 -64 2214 64 2470 390 
L 2349 525 
L 2323 525 
C 2080 307 1876 256 1638 256 
C 1171 256 806 679 806 1430 
C 806 2136 1178 2559 1600 2559 
z
" transform="scale(0.015625)"/>
       <path id="LinBiolinumT-72" d="M 1069 2145 
L 1069 2726 
C 1069 2776 1061 2790 1030 2790 
C 887 2762 658 2757 512 2771 
L 499 2751 
C 544 2475 557 1992 557 1514 
L 557 1164 
C 557 687 549 361 499 19 
L 512 0 
C 589 12 736 19 813 19 
C 890 19 1037 12 1114 0 
L 1126 19 
C 1079 381 1069 681 1069 1164 
L 1069 1495 
C 1069 1763 1149 1915 1286 2125 
C 1380 2267 1523 2348 1645 2348 
C 1773 2348 1894 2336 1978 2259 
L 2029 2272 
L 2157 2745 
L 2131 2771 
C 2022 2803 2016 2816 1901 2816 
C 1555 2816 1370 2617 1088 2132 
L 1069 2145 
z
" transform="scale(0.015625)"/>
       <path id="LinBiolinumT-73" d="M 320 647 
L 211 108 
C 576 -20 934 -64 1178 -64 
C 2061 -64 2266 461 2266 814 
C 2266 1340 1850 1546 1395 1655 
C 1153 1712 800 1834 800 2155 
C 800 2418 1011 2559 1286 2559 
C 1619 2559 1824 2296 1971 2123 
L 2061 2129 
L 2189 2604 
L 2176 2623 
C 1990 2719 1638 2816 1312 2816 
C 838 2816 346 2566 346 2033 
C 346 1520 728 1350 1114 1244 
C 1485 1141 1760 1039 1760 724 
C 1760 384 1510 192 1171 192 
C 864 192 595 403 416 654 
L 320 647 
z
" transform="scale(0.015625)"/>
      </defs>
      <use xlink:href="#LinBiolinumT-49" transform="scale(0.996264)"/>
      <use xlink:href="#LinBiolinumT-6e" transform="translate(29.290125 0) scale(0.996264)"/>
      <use xlink:href="#LinBiolinumT-65" transform="translate(82.988704 0) scale(0.996264)"/>
      <use xlink:href="#LinBiolinumT-71" transform="translate(128.816848 0) scale(0.996264)"/>
      <use xlink:href="#LinBiolinumT-75" transform="translate(180.821857 0) scale(0.996264)"/>
      <use xlink:href="#LinBiolinumT-61" transform="translate(234.321201 0) scale(0.996264)"/>
      <use xlink:href="#LinBiolinumT-6c" transform="translate(282.241491 0) scale(0.996264)"/>
      <use xlink:href="#LinBiolinumT-69" transform="translate(307.347325 0) scale(0.996264)"/>
      <use xlink:href="#LinBiolinumT-74" transform="translate(333.250205 0) scale(0.996264)"/>
      <use xlink:href="#LinBiolinumT-79" transform="translate(367.123196 0) scale(0.996264)"/>
      <use xlink:href="#LinBiolinumT-69" transform="translate(442.440701 0) scale(0.996264)"/>
      <use xlink:href="#LinBiolinumT-6e" transform="translate(468.34358 0) scale(0.996264)"/>
      <use xlink:href="#LinBiolinumT-63" transform="translate(522.042159 0) scale(0.996264)"/>
      <use xlink:href="#LinBiolinumT-72" transform="translate(564.781864 0) scale(0.996264)"/>
      <use xlink:href="#LinBiolinumT-65" transform="translate(599.35213 0) scale(0.996264)"/>
      <use xlink:href="#LinBiolinumT-61" transform="translate(644.482893 0) scale(0.996264)"/>
      <use xlink:href="#LinBiolinumT-73" transform="translate(692.403183 0) scale(0.996264)"/>
      <use xlink:href="#LinBiolinumT-65" transform="translate(731.855229 0) scale(0.996264)"/>
      <use xlink:href="#LinBiolinumT-73" transform="translate(776.985991 0) scale(0.996264)"/>
     </g>
    </g>
    <g id="patch_9">
     <path d="M 287.993952 41.044333 
L 307.993952 41.044333 
L 307.993952 34.044333 
L 287.993952 34.044333 
z
" style="fill: url(#h02c058ab6a)"/>
    </g>
    <g id="text_17">
     <!-- Change indeterminate -->
     <g transform="translate(315.993952 41.044333) scale(0.1 -0.1)">
      <defs>
       <path id="LinBiolinumT-43" d="M 2432 4224 
C 1350 4224 333 3287 333 2022 
C 333 911 966 -64 2342 -64 
C 2934 -64 3491 120 3918 638 
C 3914 712 3901 853 3878 911 
L 3834 930 
C 3379 429 2995 262 2400 262 
C 1588 262 992 1142 992 2144 
C 992 3448 1818 3923 2342 3923 
C 2918 3923 3386 3692 3648 3165 
L 3725 3171 
C 3748 3499 3770 3612 3840 3884 
L 3827 3904 
C 3827 3904 3213 4224 2432 4224 
L 2432 4224 
z
" transform="scale(0.015625)"/>
       <path id="LinBiolinumT-68" d="M 1088 2260 
L 1088 3214 
C 1088 3689 1115 4021 1146 4415 
C 1146 4460 1128 4480 1088 4480 
C 928 4415 791 4370 531 4351 
L 518 4332 
C 568 4057 576 3574 576 3085 
L 576 1165 
C 576 691 568 375 518 19 
L 531 0 
C 608 12 755 19 832 19 
C 909 19 1056 12 1133 0 
L 1146 19 
C 1098 383 1088 681 1088 1165 
L 1088 1909 
C 1414 2291 1789 2431 2016 2431 
C 2342 2431 2477 2304 2477 1788 
L 2477 1165 
C 2477 687 2470 361 2419 19 
L 2432 0 
C 2509 12 2656 19 2733 19 
C 2810 19 2957 12 3034 0 
L 3046 19 
C 2995 383 2989 681 2989 1165 
C 2989 1368 3002 1604 3002 1808 
C 3002 2470 2784 2816 2208 2816 
C 1965 2816 1510 2719 1101 2240 
L 1088 2260 
z
" transform="scale(0.015625)"/>
       <path id="LinBiolinumT-67" d="M 646 -666 
C 646 -448 838 -203 1062 -77 
C 1252 -84 1544 -64 1632 -64 
C 1939 -64 2135 -71 2310 -176 
C 2496 -288 2560 -479 2560 -650 
C 2560 -1051 2035 -1261 1485 -1261 
C 1069 -1261 646 -1117 646 -669 
L 646 -666 
z
M 2496 1840 
C 2496 2275 2323 2478 2173 2575 
C 2365 2560 2578 2536 2842 2509 
L 2861 2528 
C 2848 2585 2842 2636 2842 2694 
C 2842 2751 2848 2803 2861 2860 
L 2842 2880 
C 2536 2854 2309 2786 1832 2760 
C 1718 2796 1577 2816 1440 2816 
C 934 2816 352 2478 352 1852 
C 352 1379 627 1164 806 1062 
C 621 934 397 745 397 522 
C 397 256 550 25 895 -34 
C 717 -109 517 -235 352 -367 
C 271 -492 205 -677 205 -801 
C 205 -1318 755 -1536 1434 -1536 
C 2432 -1536 3027 -1115 3027 -498 
C 3027 -209 2938 -7 2758 147 
C 2518 352 2080 358 1856 358 
C 1747 358 1491 345 1344 326 
C 1254 326 1190 320 1158 320 
C 979 320 787 345 787 624 
C 787 753 819 863 960 985 
C 1043 940 1240 895 1434 895 
C 2099 895 2496 1342 2496 1840 
z
M 1997 1833 
C 1997 1450 1837 1152 1453 1152 
C 992 1152 851 1448 851 1884 
C 851 2301 1043 2572 1414 2572 
C 1830 2572 1997 2282 1997 1833 
z
" transform="scale(0.015625)"/>
       <path id="LinBiolinumT-64" d="M 2310 724 
C 2077 426 1783 268 1523 268 
C 1178 268 883 615 883 1417 
C 883 2380 1393 2559 1702 2559 
C 2003 2559 2157 2431 2310 2187 
L 2310 724 
z
M 2310 371 
L 2323 371 
L 2355 0 
C 2355 6 2374 0 2413 0 
C 2497 11 2541 19 2634 19 
C 2714 19 2835 12 2918 0 
L 2931 19 
C 2880 292 2822 764 2822 1241 
L 2822 3207 
C 2822 3683 2848 4018 2880 4415 
C 2880 4460 2862 4480 2822 4480 
C 2662 4415 2525 4370 2266 4351 
L 2253 4332 
C 2303 4057 2310 3580 2310 3092 
L 2310 2675 
C 2163 2758 1901 2816 1773 2816 
C 940 2816 326 2241 326 1375 
C 326 576 794 -64 1485 -64 
C 1792 -64 2080 74 2310 371 
z
" transform="scale(0.015625)"/>
       <path id="LinBiolinumT-6d" d="M 1037 2260 
L 1037 2726 
C 1037 2776 1029 2790 998 2790 
C 855 2762 626 2757 480 2771 
L 467 2751 
C 512 2475 525 1992 525 1515 
L 525 1165 
C 525 687 518 362 467 19 
L 480 0 
C 557 12 704 19 781 19 
C 858 19 1005 12 1082 0 
L 1094 19 
C 1043 381 1037 681 1037 1165 
L 1037 1935 
C 1338 2240 1696 2431 1920 2431 
C 2163 2431 2342 2291 2342 1865 
L 2342 1165 
C 2342 687 2336 362 2285 19 
L 2298 0 
C 2374 12 2522 19 2598 19 
C 2675 19 2822 12 2899 0 
L 2912 19 
C 2861 381 2854 681 2854 1165 
L 2854 1808 
C 2854 1897 2854 1973 2848 2049 
C 3155 2387 3411 2431 3661 2431 
C 4006 2431 4173 2291 4173 1865 
L 4173 1165 
C 4173 687 4166 362 4115 19 
L 4128 0 
C 4205 12 4352 19 4429 19 
C 4506 19 4653 12 4730 0 
L 4742 19 
C 4691 381 4685 681 4685 1165 
L 4685 1801 
C 4685 2368 4582 2816 3891 2816 
C 3546 2816 3174 2694 2810 2310 
C 2752 2617 2490 2816 2131 2816 
C 1734 2816 1357 2559 1056 2240 
L 1037 2260 
z
" transform="scale(0.015625)"/>
      </defs>
      <use xlink:href="#LinBiolinumT-43" transform="scale(0.996264)"/>
      <use xlink:href="#LinBiolinumT-68" transform="translate(67.44707 0) scale(0.996264)"/>
      <use xlink:href="#LinBiolinumT-61" transform="translate(122.141943 0) scale(0.996264)"/>
      <use xlink:href="#LinBiolinumT-6e" transform="translate(170.062233 0) scale(0.996264)"/>
      <use xlink:href="#LinBiolinumT-67" transform="translate(223.760812 0) scale(0.996264)"/>
      <use xlink:href="#LinBiolinumT-65" transform="translate(273.474334 0) scale(0.996264)"/>
      <use xlink:href="#LinBiolinumT-69" transform="translate(343.511697 0) scale(0.996264)"/>
      <use xlink:href="#LinBiolinumT-6e" transform="translate(369.414576 0) scale(0.996264)"/>
      <use xlink:href="#LinBiolinumT-64" transform="translate(423.113155 0) scale(0.996264)"/>
      <use xlink:href="#LinBiolinumT-65" transform="translate(475.915117 0) scale(0.996264)"/>
      <use xlink:href="#LinBiolinumT-74" transform="translate(521.04588 0) scale(0.996264)"/>
      <use xlink:href="#LinBiolinumT-65" transform="translate(554.918871 0) scale(0.996264)"/>
      <use xlink:href="#LinBiolinumT-72" transform="translate(600.049634 0) scale(0.996264)"/>
      <use xlink:href="#LinBiolinumT-6d" transform="translate(635.416961 0) scale(0.996264)"/>
      <use xlink:href="#LinBiolinumT-69" transform="translate(715.815478 0) scale(0.996264)"/>
      <use xlink:href="#LinBiolinumT-6e" transform="translate(741.718358 0) scale(0.996264)"/>
      <use xlink:href="#LinBiolinumT-61" transform="translate(795.416936 0) scale(0.996264)"/>
      <use xlink:href="#LinBiolinumT-74" transform="translate(843.337226 0) scale(0.996264)"/>
      <use xlink:href="#LinBiolinumT-65" transform="translate(877.210218 0) scale(0.996264)"/>
     </g>
    </g>
   </g>
  </g>
 </g>
 <defs>
  <clipPath id="p56d8a2f658">
   <rect x="40.267561" y="10.693149" width="227.358467" height="233.231887"/>
  </clipPath>
 </defs>
 <defs>
  <pattern id="he61ac9ba3d" patternUnits="userSpaceOnUse" x="0" y="0" width="72" height="72">
   <rect x="0" y="0" width="73" height="73" fill="none"/>
   <path d="M 0 69 
L 72 69 
M 0 63 
L 72 63 
M 0 57 
L 72 57 
M 0 51 
L 72 51 
M 0 45 
L 72 45 
M 0 39 
L 72 39 
M 0 33 
L 72 33 
M 0 27 
L 72 27 
M 0 21 
L 72 21 
M 0 15 
L 72 15 
M 0 9 
L 72 9 
M 0 3 
L 72 3 
" style="fill: #000000; stroke: #000000; stroke-width: 1.0; stroke-linecap: butt; stroke-linejoin: miter"/>
  </pattern>
  <pattern id="h02c058ab6a" patternUnits="userSpaceOnUse" x="0" y="0" width="72" height="72">
   <rect x="0" y="0" width="73" height="73" fill="none"/>
   <path d="M -36 36 
L 36 108 
M -30 30 
L 42 102 
M -24 24 
L 48 96 
M -18 18 
L 54 90 
M -12 12 
L 60 84 
M -6 6 
L 66 78 
M 0 0 
L 72 72 
M 6 -6 
L 78 66 
M 12 -12 
L 84 60 
M 18 -18 
L 90 54 
M 24 -24 
L 96 48 
M 30 -30 
L 102 42 
M 36 -36 
L 108 36 
" style="fill: #000000; stroke: #000000; stroke-width: 1.0; stroke-linecap: butt; stroke-linejoin: miter"/>
  </pattern>
 </defs>
</svg>
