<?xml version="1.0" encoding="utf-8" standalone="no"?>
<!DOCTYPE svg PUBLIC "-//W3C//DTD SVG 1.1//EN"
  "http://www.w3.org/Graphics/SVG/1.1/DTD/svg11.dtd">
<svg xmlns:xlink="http://www.w3.org/1999/xlink" width="415.061533pt" height="213.888113pt" viewBox="0 0 415.061533 213.888113" xmlns="http://www.w3.org/2000/svg" version="1.1">
 <metadata>
  <rdf:RDF xmlns:dc="http://purl.org/dc/elements/1.1/" xmlns:cc="http://creativecommons.org/ns#" xmlns:rdf="http://www.w3.org/1999/02/22-rdf-syntax-ns#">
   <cc:Work>
    <dc:type rdf:resource="http://purl.org/dc/dcmitype/StillImage"/>
    <dc:date>2025-02-06T15:01:23.310365</dc:date>
    <dc:format>image/svg+xml</dc:format>
    <dc:creator>
     <cc:Agent>
      <dc:title>Matplotlib v3.10.0, https://matplotlib.org/</dc:title>
     </cc:Agent>
    </dc:creator>
   </cc:Work>
  </rdf:RDF>
 </metadata>
 <defs>
  <style type="text/css">*{stroke-linejoin: round; stroke-linecap: butt}</style>
 </defs>
 <g id="figure_1">
  <g id="patch_1">
   <path d="M 0 213.888113 
L 415.061533 213.888113 
L 415.061533 0 
L 0 0 
z
" style="fill: #ffffff"/>
  </g>
  <g id="axes_1">
   <g id="patch_2">
    <path d="M 40.267561 177.013149 
L 263.467561 177.013149 
L 263.467561 10.693149 
L 40.267561 10.693149 
z
" style="fill: #ffffff"/>
   </g>
   <g id="QuadContourSet_1">
    <path d="M 40.642687 177.013149 
L 41.020343 177.013149 
L 41.400556 177.013149 
L 41.78335 177.013149 
L 42.168753 177.013149 
L 42.556792 177.013149 
L 42.947492 177.013149 
L 43.340883 177.013149 
L 43.736991 177.013149 
L 44.135845 177.013149 
L 44.537474 177.013149 
L 44.941907 177.013149 
L 45.349172 177.013149 
L 45.759301 177.013149 
L 46.172323 177.013149 
L 46.588269 177.013149 
L 47.00717 177.013149 
L 47.429058 177.013149 
L 47.853965 177.013149 
L 48.281924 177.013149 
L 48.712966 177.013149 
L 49.147127 177.013149 
L 49.584439 177.013149 
L 50.024938 177.013149 
L 50.468658 177.013149 
L 50.915634 177.013149 
L 51.365904 177.013149 
L 51.819502 177.013149 
L 52.276466 177.013149 
L 52.736835 177.013149 
L 53.200645 177.013149 
L 53.667936 177.013149 
L 54.138747 177.013149 
L 54.613119 177.013149 
L 55.09109 177.013149 
L 55.572704 177.013149 
L 56.058001 177.013149 
L 56.547024 177.013149 
L 57.039815 177.013149 
L 57.53642 177.013149 
L 58.036881 177.013149 
L 58.541245 177.013149 
L 59.049557 177.013149 
L 59.561864 177.013149 
L 60.078212 177.013149 
L 60.59865 177.013149 
L 61.123227 177.013149 
L 61.651992 177.013149 
L 62.184996 177.013149 
L 62.722289 177.013149 
L 63.263925 177.013149 
L 63.809954 177.013149 
L 64.360433 177.013149 
L 64.915414 177.013149 
L 65.474953 177.013149 
L 66.039107 177.013149 
L 66.607934 177.013149 
L 67.18149 177.013149 
L 67.759837 177.013149 
L 68.343033 177.013149 
L 68.93114 177.013149 
L 69.524221 177.013149 
L 70.122338 177.013149 
L 70.725557 177.013149 
L 71.333942 177.013149 
L 71.947561 177.013149 
L 72.566481 177.013149 
L 73.190771 177.013149 
L 73.820502 177.013149 
L 74.455745 177.013149 
L 75.096572 177.013149 
L 75.743058 177.013149 
L 76.395277 177.013149 
L 77.053307 177.013149 
L 77.717225 177.013149 
L 78.387112 177.013149 
L 79.063046 177.013149 
L 79.745112 177.013149 
L 80.433392 177.013149 
L 81.127973 177.013149 
L 81.82894 177.013149 
L 82.536383 177.013149 
L 83.250392 177.013149 
L 83.971057 177.013149 
L 84.698474 177.013149 
L 85.432737 177.013149 
L 86.173944 177.013149 
L 86.922193 177.013149 
L 87.677585 177.013149 
L 88.440223 177.013149 
L 89.210212 177.013149 
L 89.987658 177.013149 
L 90.77267 177.013149 
L 91.56536 177.013149 
L 92.365841 177.013149 
L 93.174228 177.013149 
L 93.990638 177.013149 
L 94.815192 177.013149 
L 95.648012 177.013149 
L 96.489223 177.013149 
L 97.338953 177.013149 
L 98.197332 177.013149 
L 99.064492 177.013149 
L 99.940569 177.013149 
L 100.825701 177.013149 
L 101.720029 177.013149 
L 102.623697 177.013149 
L 103.536852 177.013149 
L 104.459645 177.013149 
L 105.392229 177.013149 
L 106.334761 177.013149 
L 107.2874 177.013149 
L 108.25031 177.013149 
L 109.223659 177.013149 
L 110.207615 177.013149 
L 111.202355 177.013149 
L 112.208057 177.013149 
L 113.224902 177.013149 
L 114.253076 177.013149 
L 115.292771 177.013149 
L 116.344181 177.013149 
L 117.407504 177.013149 
L 118.482946 177.013149 
L 119.570713 177.013149 
L 120.671019 177.013149 
L 121.784083 177.013149 
L 122.910127 177.013149 
L 124.049379 177.013149 
L 125.202074 177.013149 
L 126.368451 177.013149 
L 127.548755 177.013149 
L 128.743237 177.013149 
L 129.952153 177.013149 
L 131.175768 177.013149 
L 132.41435 177.013149 
L 133.668176 177.013149 
L 134.93753 177.013149 
L 136.222701 177.013149 
L 137.523987 177.013149 
L 138.841693 177.013149 
L 140.176132 177.013149 
L 141.527625 177.013149 
L 142.8965 177.013149 
L 144.283095 177.013149 
L 145.687756 177.013149 
L 147.11084 177.013149 
L 148.552709 177.013149 
L 150.01374 177.013149 
L 151.494317 177.013149 
L 152.994834 177.013149 
L 154.515697 177.013149 
L 156.057322 177.013149 
L 157.620138 177.013149 
L 159.204585 177.013149 
L 160.811115 177.013149 
L 162.440193 177.013149 
L 164.092296 177.013149 
L 165.767917 177.013149 
L 165.767917 177.013149 
L 165.767917 177.013149 
L 164.092296 177.013149 
L 162.440193 177.013149 
L 160.811115 177.013149 
L 159.204585 177.013149 
L 157.620138 177.013149 
L 156.057322 177.013149 
L 154.515697 177.013149 
L 152.994834 177.013149 
L 151.494317 177.013149 
L 150.01374 177.013149 
L 148.552709 177.013149 
L 147.11084 177.013149 
L 145.687756 177.013149 
L 144.283095 177.013149 
L 142.8965 177.013149 
L 141.527625 177.013149 
L 140.176132 177.013149 
L 138.841693 177.013149 
L 137.523987 177.013149 
L 136.222701 177.013149 
L 134.93753 121.573149 
L 134.93753 121.573149 
L 133.668176 121.573149 
L 132.41435 121.573149 
L 131.175768 121.573149 
L 129.952153 121.573149 
L 128.743237 121.573149 
L 127.548755 121.573149 
L 126.368451 121.573149 
L 125.202074 121.573149 
L 124.049379 121.573149 
L 122.910127 121.573149 
L 121.784083 121.573149 
L 120.671019 121.573149 
L 119.570713 121.573149 
L 118.482946 121.573149 
L 117.407504 121.573149 
L 116.344181 121.573149 
L 115.292771 121.573149 
L 114.253076 121.573149 
L 113.224902 121.573149 
L 112.208057 121.573149 
L 111.202355 121.573149 
L 110.207615 121.573149 
L 109.223659 121.573149 
L 108.25031 121.573149 
L 107.2874 121.573149 
L 106.334761 121.573149 
L 105.392229 121.573149 
L 104.459645 121.573149 
L 103.536852 121.573149 
L 102.623697 121.573149 
L 101.720029 121.573149 
L 100.825701 121.573149 
L 99.940569 121.573149 
L 99.064492 121.573149 
L 98.197332 121.573149 
L 97.338953 121.573149 
L 96.489223 66.133149 
L 96.489223 66.133149 
L 95.648012 66.133149 
L 94.815192 66.133149 
L 93.990638 66.133149 
L 93.174228 66.133149 
L 92.365841 66.133149 
L 91.56536 66.133149 
L 90.77267 66.133149 
L 89.987658 66.133149 
L 89.210212 66.133149 
L 88.440223 66.133149 
L 87.677585 66.133149 
L 86.922193 66.133149 
L 86.173944 66.133149 
L 85.432737 66.133149 
L 84.698474 66.133149 
L 83.971057 66.133149 
L 83.250392 66.133149 
L 82.536383 66.133149 
L 81.82894 66.133149 
L 81.127973 10.693149 
L 81.127973 10.693149 
L 80.433392 10.693149 
L 79.745112 10.693149 
L 79.063046 10.693149 
L 78.387112 10.693149 
L 77.717225 10.693149 
L 77.053307 10.693149 
L 76.395277 10.693149 
L 75.743058 10.693149 
L 75.096572 10.693149 
L 74.455745 10.693149 
L 73.820502 10.693149 
L 73.190771 10.693149 
L 72.566481 10.693149 
L 71.947561 10.693149 
L 71.333942 10.693149 
L 70.725557 10.693149 
L 70.122338 10.693149 
L 69.524221 10.693149 
L 68.93114 10.693149 
L 68.343033 10.693149 
L 67.759837 10.693149 
L 67.18149 10.693149 
L 66.607934 10.693149 
L 66.039107 10.693149 
L 65.474953 10.693149 
L 64.915414 10.693149 
L 64.360433 10.693149 
L 63.809954 10.693149 
L 63.263925 10.693149 
L 62.722289 10.693149 
L 62.184996 10.693149 
L 61.651992 10.693149 
L 61.123227 10.693149 
L 60.59865 10.693149 
L 60.078212 10.693149 
L 59.561864 10.693149 
L 59.049557 10.693149 
L 58.541245 10.693149 
L 58.036881 10.693149 
L 57.53642 10.693149 
L 57.039815 10.693149 
L 56.547024 10.693149 
L 56.058001 10.693149 
L 55.572704 10.693149 
L 55.09109 10.693149 
L 54.613119 10.693149 
L 54.138747 10.693149 
L 53.667936 10.693149 
L 53.200645 10.693149 
L 52.736835 10.693149 
L 52.276466 10.693149 
L 51.819502 10.693149 
L 51.365904 10.693149 
L 50.915634 10.693149 
L 50.468658 10.693149 
L 50.024938 10.693149 
L 49.584439 10.693149 
L 49.147127 10.693149 
L 48.712966 10.693149 
L 48.281924 10.693149 
L 47.853965 10.693149 
L 47.429058 10.693149 
L 47.00717 10.693149 
L 46.588269 10.693149 
L 46.172323 10.693149 
L 45.759301 10.693149 
L 45.349172 10.693149 
L 44.941907 10.693149 
L 44.537474 10.693149 
L 44.135845 10.693149 
L 43.736991 10.693149 
L 43.340883 10.693149 
L 42.947492 10.693149 
L 42.556792 10.693149 
L 42.168753 10.693149 
L 41.78335 10.693149 
L 41.400556 10.693149 
L 41.020343 10.693149 
L 40.642687 10.693149 
L 40.267561 10.693149 
L 40.267561 66.133149 
L 40.267561 121.573149 
L 40.267561 177.013149 
z
" clip-path="url(#p27b5436aea)" style="fill: url(#h1473a8654c)"/>
   </g>
   <g id="QuadContourSet_2">
    <path d="M 136.222701 177.013149 
L 137.523987 177.013149 
L 138.841693 177.013149 
L 140.176132 177.013149 
L 141.527625 177.013149 
L 142.8965 177.013149 
L 144.283095 177.013149 
L 145.687756 177.013149 
L 147.11084 177.013149 
L 148.552709 177.013149 
L 150.01374 177.013149 
L 151.494317 177.013149 
L 152.994834 177.013149 
L 154.515697 177.013149 
L 156.057322 177.013149 
L 157.620138 177.013149 
L 159.204585 177.013149 
L 160.811115 177.013149 
L 162.440193 177.013149 
L 164.092296 177.013149 
L 165.767917 177.013149 
L 165.767917 177.013149 
L 167.467561 177.013149 
L 169.191749 177.013149 
L 170.941016 177.013149 
L 172.715913 177.013149 
L 174.517007 177.013149 
L 176.344884 177.013149 
L 178.200145 177.013149 
L 180.08341 177.013149 
L 181.995318 177.013149 
L 183.936526 177.013149 
L 185.907715 177.013149 
L 187.909584 177.013149 
L 189.942855 177.013149 
L 192.008272 177.013149 
L 194.106605 177.013149 
L 196.238645 177.013149 
L 198.405213 177.013149 
L 200.607153 177.013149 
L 202.845339 177.013149 
L 205.120673 177.013149 
L 207.434088 177.013149 
L 209.786548 177.013149 
L 212.17905 177.013149 
L 214.612625 177.013149 
L 217.08834 177.013149 
L 219.607299 177.013149 
L 222.170645 177.013149 
L 224.779561 177.013149 
L 227.435274 177.013149 
L 230.139054 177.013149 
L 232.892219 177.013149 
L 235.696132 177.013149 
L 238.552212 177.013149 
L 241.461927 177.013149 
L 244.426803 177.013149 
L 247.448422 177.013149 
L 250.528431 177.013149 
L 253.668537 177.013149 
L 256.870517 177.013149 
L 260.136218 177.013149 
L 263.467561 177.013149 
L 263.467561 121.573149 
L 263.467561 66.133149 
L 263.467561 10.693149 
L 260.136218 10.693149 
L 256.870517 10.693149 
L 253.668537 10.693149 
L 250.528431 10.693149 
L 247.448422 10.693149 
L 244.426803 10.693149 
L 241.461927 10.693149 
L 238.552212 10.693149 
L 235.696132 10.693149 
L 232.892219 10.693149 
L 230.139054 10.693149 
L 227.435274 10.693149 
L 224.779561 10.693149 
L 222.170645 10.693149 
L 219.607299 10.693149 
L 217.08834 10.693149 
L 214.612625 10.693149 
L 212.17905 10.693149 
L 209.786548 10.693149 
L 207.434088 10.693149 
L 205.120673 10.693149 
L 202.845339 10.693149 
L 200.607153 10.693149 
L 198.405213 10.693149 
L 196.238645 10.693149 
L 194.106605 10.693149 
L 192.008272 10.693149 
L 189.942855 10.693149 
L 187.909584 10.693149 
L 185.907715 10.693149 
L 183.936526 10.693149 
L 181.995318 10.693149 
L 180.08341 10.693149 
L 178.200145 10.693149 
L 176.344884 10.693149 
L 174.517007 10.693149 
L 172.715913 10.693149 
L 170.941016 10.693149 
L 169.191749 10.693149 
L 167.467561 10.693149 
L 165.767917 10.693149 
L 164.092296 10.693149 
L 162.440193 10.693149 
L 160.811115 10.693149 
L 159.204585 10.693149 
L 157.620138 10.693149 
L 156.057322 10.693149 
L 154.515697 10.693149 
L 152.994834 10.693149 
L 151.494317 10.693149 
L 150.01374 10.693149 
L 148.552709 10.693149 
L 147.11084 10.693149 
L 145.687756 10.693149 
L 144.283095 10.693149 
L 142.8965 10.693149 
L 141.527625 10.693149 
L 140.176132 10.693149 
L 138.841693 10.693149 
L 137.523987 10.693149 
L 136.222701 10.693149 
L 134.93753 10.693149 
L 133.668176 10.693149 
L 132.41435 10.693149 
L 131.175768 10.693149 
L 129.952153 10.693149 
L 128.743237 10.693149 
L 127.548755 10.693149 
L 126.368451 10.693149 
L 125.202074 10.693149 
L 124.049379 10.693149 
L 122.910127 10.693149 
L 121.784083 10.693149 
L 120.671019 10.693149 
L 119.570713 10.693149 
L 118.482946 10.693149 
L 117.407504 10.693149 
L 116.344181 10.693149 
L 115.292771 10.693149 
L 114.253076 10.693149 
L 113.224902 10.693149 
L 112.208057 10.693149 
L 111.202355 10.693149 
L 110.207615 10.693149 
L 109.223659 10.693149 
L 108.25031 10.693149 
L 107.2874 10.693149 
L 106.334761 10.693149 
L 105.392229 10.693149 
L 104.459645 10.693149 
L 103.536852 10.693149 
L 102.623697 10.693149 
L 101.720029 10.693149 
L 100.825701 10.693149 
L 99.940569 10.693149 
L 99.064492 10.693149 
L 98.197332 10.693149 
L 97.338953 10.693149 
L 96.489223 10.693149 
L 95.648012 10.693149 
L 94.815192 10.693149 
L 93.990638 10.693149 
L 93.174228 10.693149 
L 92.365841 10.693149 
L 91.56536 10.693149 
L 90.77267 10.693149 
L 89.987658 10.693149 
L 89.210212 10.693149 
L 88.440223 10.693149 
L 87.677585 10.693149 
L 86.922193 10.693149 
L 86.173944 10.693149 
L 85.432737 10.693149 
L 84.698474 10.693149 
L 83.971057 10.693149 
L 83.250392 10.693149 
L 82.536383 10.693149 
L 81.82894 10.693149 
L 81.127973 10.693149 
L 81.82894 66.133149 
L 82.536383 66.133149 
L 83.250392 66.133149 
L 83.971057 66.133149 
L 84.698474 66.133149 
L 85.432737 66.133149 
L 86.173944 66.133149 
L 86.922193 66.133149 
L 87.677585 66.133149 
L 88.440223 66.133149 
L 89.210212 66.133149 
L 89.987658 66.133149 
L 90.77267 66.133149 
L 91.56536 66.133149 
L 92.365841 66.133149 
L 93.174228 66.133149 
L 93.990638 66.133149 
L 94.815192 66.133149 
L 95.648012 66.133149 
L 96.489223 66.133149 
L 96.489223 66.133149 
L 97.338953 121.573149 
L 98.197332 121.573149 
L 99.064492 121.573149 
L 99.940569 121.573149 
L 100.825701 121.573149 
L 101.720029 121.573149 
L 102.623697 121.573149 
L 103.536852 121.573149 
L 104.459645 121.573149 
L 105.392229 121.573149 
L 106.334761 121.573149 
L 107.2874 121.573149 
L 108.25031 121.573149 
L 109.223659 121.573149 
L 110.207615 121.573149 
L 111.202355 121.573149 
L 112.208057 121.573149 
L 113.224902 121.573149 
L 114.253076 121.573149 
L 115.292771 121.573149 
L 116.344181 121.573149 
L 117.407504 121.573149 
L 118.482946 121.573149 
L 119.570713 121.573149 
L 120.671019 121.573149 
L 121.784083 121.573149 
L 122.910127 121.573149 
L 124.049379 121.573149 
L 125.202074 121.573149 
L 126.368451 121.573149 
L 127.548755 121.573149 
L 128.743237 121.573149 
L 129.952153 121.573149 
L 131.175768 121.573149 
L 132.41435 121.573149 
L 133.668176 121.573149 
L 134.93753 121.573149 
L 134.93753 121.573149 
z
" clip-path="url(#p27b5436aea)" style="fill: url(#h3338a8d5f1)"/>
   </g>
   <g id="matplotlib.axis_1">
    <g id="xtick_1">
     <g id="line2d_1">
      <defs>
       <path id="m3545146523" d="M 0 0 
L 0 3.5 
" style="stroke: #000000; stroke-width: 0.8"/>
      </defs>
      <g>
       <use xlink:href="#m3545146523" x="40.267561" y="177.013149" style="stroke: #000000; stroke-width: 0.8"/>
      </g>
     </g>
     <g id="text_1">
      <!-- $\mathdefault{1.0}$ -->
      <g transform="translate(33.902521 190.999447) scale(0.1 -0.1)">
       <defs>
        <path id="CMR17-31" d="M 1702 4083 
C 1702 4217 1696 4224 1606 4224 
C 1357 3927 979 3833 621 3820 
C 602 3820 570 3820 563 3808 
C 557 3795 557 3782 557 3648 
C 755 3648 1088 3686 1344 3839 
L 1344 467 
C 1344 243 1331 166 781 166 
L 589 166 
L 589 0 
C 896 6 1216 12 1523 12 
C 1830 12 2150 6 2458 0 
L 2458 166 
L 2266 166 
C 1715 166 1702 236 1702 467 
L 1702 4083 
z
" transform="scale(0.015625)"/>
        <path id="CMMI12-3a" d="M 1178 307 
C 1178 492 1024 620 870 620 
C 685 620 557 467 557 313 
C 557 128 710 0 864 0 
C 1050 0 1178 153 1178 307 
z
" transform="scale(0.015625)"/>
        <path id="CMR17-30" d="M 2688 2038 
C 2688 2430 2682 3099 2413 3613 
C 2176 4063 1798 4224 1466 4224 
C 1158 4224 768 4082 525 3620 
C 269 3137 243 2539 243 2038 
C 243 1671 250 1112 448 623 
C 723 -39 1216 -128 1466 -128 
C 1760 -128 2208 -7 2470 604 
C 2662 1048 2688 1568 2688 2038 
z
M 1466 -26 
C 1056 -26 813 328 723 816 
C 653 1196 653 1749 653 2109 
C 653 2604 653 3015 736 3407 
C 858 3954 1216 4121 1466 4121 
C 1728 4121 2067 3947 2189 3420 
C 2272 3054 2278 2623 2278 2109 
C 2278 1691 2278 1176 2202 797 
C 2067 96 1690 -26 1466 -26 
z
" transform="scale(0.015625)"/>
       </defs>
       <use xlink:href="#CMR17-31" transform="scale(0.996264)"/>
       <use xlink:href="#CMMI12-3a" transform="translate(45.690477 0) scale(0.996264)"/>
       <use xlink:href="#CMR17-30" transform="translate(72.787654 0) scale(0.996264)"/>
      </g>
     </g>
    </g>
    <g id="xtick_2">
     <g id="line2d_2">
      <g>
       <use xlink:href="#m3545146523" x="96.067561" y="177.013149" style="stroke: #000000; stroke-width: 0.8"/>
      </g>
     </g>
     <g id="text_2">
      <!-- $\mathdefault{1.5}$ -->
      <g transform="translate(89.702521 190.999447) scale(0.1 -0.1)">
       <defs>
        <path id="CMR17-35" d="M 730 3750 
C 794 3724 1056 3641 1325 3641 
C 1920 3641 2246 3961 2432 4140 
C 2432 4191 2432 4224 2394 4224 
C 2387 4224 2374 4224 2323 4198 
C 2099 4102 1837 4032 1517 4032 
C 1325 4032 1037 4055 723 4191 
C 653 4224 640 4224 634 4224 
C 602 4224 595 4217 595 4090 
L 595 2231 
C 595 2113 595 2080 659 2080 
C 691 2080 704 2093 736 2139 
C 941 2435 1222 2560 1542 2560 
C 1766 2560 2246 2415 2246 1293 
C 2246 1087 2246 716 2054 422 
C 1894 159 1645 25 1370 25 
C 947 25 518 319 403 812 
C 429 806 480 793 506 793 
C 589 793 749 838 749 1036 
C 749 1209 627 1280 506 1280 
C 358 1280 262 1190 262 1011 
C 262 454 704 -128 1382 -128 
C 2042 -128 2669 441 2669 1267 
C 2669 2054 2170 2662 1549 2662 
C 1222 2662 947 2540 730 2304 
L 730 3750 
z
" transform="scale(0.015625)"/>
       </defs>
       <use xlink:href="#CMR17-31" transform="scale(0.996264)"/>
       <use xlink:href="#CMMI12-3a" transform="translate(45.690477 0) scale(0.996264)"/>
       <use xlink:href="#CMR17-35" transform="translate(72.787654 0) scale(0.996264)"/>
      </g>
     </g>
    </g>
    <g id="xtick_3">
     <g id="line2d_3">
      <g>
       <use xlink:href="#m3545146523" x="151.867561" y="177.013149" style="stroke: #000000; stroke-width: 0.8"/>
      </g>
     </g>
     <g id="text_3">
      <!-- $\mathdefault{2.0}$ -->
      <g transform="translate(145.502521 190.999447) scale(0.1 -0.1)">
       <defs>
        <path id="CMR17-32" d="M 2669 990 
L 2554 990 
C 2490 537 2438 460 2413 422 
C 2381 371 1920 371 1830 371 
L 602 371 
C 832 620 1280 1073 1824 1596 
C 2214 1966 2669 2400 2669 3033 
C 2669 3788 2067 4224 1395 4224 
C 691 4224 262 3603 262 3027 
C 262 2777 448 2745 525 2745 
C 589 2745 781 2783 781 3007 
C 781 3206 614 3264 525 3264 
C 486 3264 448 3257 422 3244 
C 544 3788 915 4057 1306 4057 
C 1862 4057 2227 3616 2227 3033 
C 2227 2477 1901 1998 1536 1583 
L 262 147 
L 262 0 
L 2515 0 
L 2669 990 
z
" transform="scale(0.015625)"/>
       </defs>
       <use xlink:href="#CMR17-32" transform="scale(0.996264)"/>
       <use xlink:href="#CMMI12-3a" transform="translate(45.690477 0) scale(0.996264)"/>
       <use xlink:href="#CMR17-30" transform="translate(72.787654 0) scale(0.996264)"/>
      </g>
     </g>
    </g>
    <g id="xtick_4">
     <g id="line2d_4">
      <g>
       <use xlink:href="#m3545146523" x="207.667561" y="177.013149" style="stroke: #000000; stroke-width: 0.8"/>
      </g>
     </g>
     <g id="text_4">
      <!-- $\mathdefault{2.5}$ -->
      <g transform="translate(201.302521 190.999447) scale(0.1 -0.1)">
       <use xlink:href="#CMR17-32" transform="scale(0.996264)"/>
       <use xlink:href="#CMMI12-3a" transform="translate(45.690477 0) scale(0.996264)"/>
       <use xlink:href="#CMR17-35" transform="translate(72.787654 0) scale(0.996264)"/>
      </g>
     </g>
    </g>
    <g id="xtick_5">
     <g id="line2d_5">
      <g>
       <use xlink:href="#m3545146523" x="263.467561" y="177.013149" style="stroke: #000000; stroke-width: 0.8"/>
      </g>
     </g>
     <g id="text_5">
      <!-- $\mathdefault{3.0}$ -->
      <g transform="translate(257.102521 190.999447) scale(0.1 -0.1)">
       <defs>
        <path id="CMR17-33" d="M 1414 2176 
C 1984 2176 2234 1673 2234 1094 
C 2234 322 1824 25 1453 25 
C 1114 25 563 193 390 691 
C 422 678 454 678 486 678 
C 640 678 755 780 755 947 
C 755 1132 614 1216 486 1216 
C 378 1216 211 1164 211 927 
C 211 335 787 -128 1466 -128 
C 2176 -128 2720 432 2720 1087 
C 2720 1718 2208 2176 1600 2246 
C 2086 2347 2554 2776 2554 3353 
C 2554 3856 2048 4224 1472 4224 
C 890 4224 378 3862 378 3347 
C 378 3123 544 3084 627 3084 
C 762 3084 877 3167 877 3334 
C 877 3500 762 3584 627 3584 
C 602 3584 570 3584 544 3571 
C 730 3999 1235 4076 1459 4076 
C 1683 4076 2106 3966 2106 3347 
C 2106 3167 2080 2851 1862 2574 
C 1670 2329 1453 2316 1242 2297 
C 1210 2297 1062 2284 1037 2284 
C 992 2278 966 2272 966 2227 
C 966 2182 973 2176 1101 2176 
L 1414 2176 
z
" transform="scale(0.015625)"/>
       </defs>
       <use xlink:href="#CMR17-33" transform="scale(0.996264)"/>
       <use xlink:href="#CMMI12-3a" transform="translate(45.690477 0) scale(0.996264)"/>
       <use xlink:href="#CMR17-30" transform="translate(72.787654 0) scale(0.996264)"/>
      </g>
     </g>
    </g>
    <g id="text_6">
     <!-- Exogenous utility ratio -->
     <g transform="translate(105.302259 204.336929) scale(0.1 -0.1)">
      <defs>
       <path id="LinBiolinumT-45" d="M 1216 1290 
L 1216 2047 
C 1523 2047 2202 2028 2643 1983 
L 2662 2002 
C 2650 2060 2643 2150 2643 2207 
C 2643 2265 2650 2355 2662 2413 
L 2643 2432 
C 2266 2400 1971 2368 1216 2368 
L 1216 2871 
C 1216 2981 1222 3646 1267 3801 
C 2125 3801 3008 3724 3008 3724 
L 3021 3750 
C 3014 3801 3008 3859 3008 3916 
C 3008 3967 3014 4070 3021 4160 
L 3008 4179 
C 2906 4166 2758 4160 2624 4160 
L 941 4160 
C 723 4160 614 4179 614 4179 
L 602 4160 
C 653 3795 666 3356 666 2871 
L 666 1290 
C 666 805 653 345 602 0 
L 608 -20 
C 608 -20 717 0 941 0 
L 2688 0 
C 2822 0 2970 -7 3072 -20 
L 3085 0 
C 3078 89 3072 134 3072 198 
C 3072 262 3078 358 3085 410 
L 3072 436 
C 3072 436 2125 358 1267 358 
C 1222 513 1216 1180 1216 1290 
z
" transform="scale(0.015625)"/>
       <path id="LinBiolinumT-78" d="M 1181 1327 
L 179 0 
C 242 11 346 18 410 18 
C 474 18 626 11 691 0 
C 936 361 1126 708 1382 1062 
C 1638 708 1828 361 2061 0 
C 2154 13 2285 18 2387 18 
C 2483 18 2653 11 2752 0 
C 2365 493 2053 981 1708 1475 
L 2758 2752 
C 2676 2737 2534 2732 2470 2732 
C 2400 2732 2300 2737 2234 2752 
C 1988 2398 1787 2063 1517 1718 
C 1261 2063 1085 2398 870 2752 
C 759 2737 634 2732 525 2732 
C 422 2732 256 2737 154 2752 
L 1181 1327 
z
" transform="scale(0.015625)"/>
       <path id="LinBiolinumT-6f" d="M 243 1314 
C 243 544 749 -64 1600 -64 
C 2445 -64 2957 532 2957 1372 
C 2957 2245 2490 2816 1626 2816 
C 787 2816 243 2226 243 1314 
z
M 1581 2559 
C 2259 2559 2394 2033 2394 1257 
C 2394 647 2086 192 1658 192 
C 979 192 806 929 806 1424 
C 806 1982 979 2559 1581 2559 
z
" transform="scale(0.015625)"/>
       <path id="LinBiolinumT-67" d="M 646 -666 
C 646 -448 838 -203 1062 -77 
C 1252 -84 1544 -64 1632 -64 
C 1939 -64 2135 -71 2310 -176 
C 2496 -288 2560 -479 2560 -650 
C 2560 -1051 2035 -1261 1485 -1261 
C 1069 -1261 646 -1117 646 -669 
L 646 -666 
z
M 2496 1840 
C 2496 2275 2323 2478 2173 2575 
C 2365 2560 2578 2536 2842 2509 
L 2861 2528 
C 2848 2585 2842 2636 2842 2694 
C 2842 2751 2848 2803 2861 2860 
L 2842 2880 
C 2536 2854 2309 2786 1832 2760 
C 1718 2796 1577 2816 1440 2816 
C 934 2816 352 2478 352 1852 
C 352 1379 627 1164 806 1062 
C 621 934 397 745 397 522 
C 397 256 550 25 895 -34 
C 717 -109 517 -235 352 -367 
C 271 -492 205 -677 205 -801 
C 205 -1318 755 -1536 1434 -1536 
C 2432 -1536 3027 -1115 3027 -498 
C 3027 -209 2938 -7 2758 147 
C 2518 352 2080 358 1856 358 
C 1747 358 1491 345 1344 326 
C 1254 326 1190 320 1158 320 
C 979 320 787 345 787 624 
C 787 753 819 863 960 985 
C 1043 940 1240 895 1434 895 
C 2099 895 2496 1342 2496 1840 
z
M 1997 1833 
C 1997 1450 1837 1152 1453 1152 
C 992 1152 851 1448 851 1884 
C 851 2301 1043 2572 1414 2572 
C 1830 2572 1997 2282 1997 1833 
z
" transform="scale(0.015625)"/>
       <path id="LinBiolinumT-65" d="M 800 1728 
C 909 2414 1329 2559 1530 2559 
C 1783 2559 2067 2315 2067 1820 
C 2067 1761 2042 1728 1978 1728 
L 800 1728 
z
M 2509 659 
C 2285 420 1984 313 1632 313 
C 1413 313 1111 395 934 672 
C 822 848 781 1105 781 1472 
L 2522 1472 
C 2592 1472 2637 1510 2637 1580 
C 2637 2130 2374 2816 1530 2816 
C 870 2816 218 2276 218 1320 
C 218 963 292 610 506 357 
C 726 93 1092 -64 1523 -64 
C 1984 -64 2394 172 2637 502 
L 2509 659 
z
" transform="scale(0.015625)"/>
       <path id="LinBiolinumT-6e" d="M 2944 1165 
C 2944 1368 2957 1604 2957 1808 
C 2957 2470 2739 2816 2163 2816 
C 1920 2816 1466 2719 1056 2240 
L 1043 2260 
L 1043 2726 
C 1042 2776 1036 2790 1005 2790 
C 861 2762 632 2757 486 2771 
L 474 2751 
C 518 2475 531 1992 531 1515 
L 531 1165 
C 531 687 525 362 474 19 
L 486 0 
C 563 12 710 19 787 19 
C 864 19 1011 12 1088 0 
L 1101 19 
C 1050 381 1043 681 1043 1165 
L 1043 1909 
C 1370 2291 1741 2431 1971 2431 
C 2298 2431 2432 2304 2432 1788 
L 2432 1165 
C 2432 687 2420 361 2374 19 
L 2387 0 
C 2464 12 2611 19 2688 19 
C 2765 19 2912 12 2989 0 
L 3002 19 
C 2952 381 2944 681 2944 1165 
z
" transform="scale(0.015625)"/>
       <path id="LinBiolinumT-75" d="M 2336 600 
L 2362 582 
L 2394 18 
C 2394 6 2401 0 2419 0 
C 2504 11 2579 18 2673 18 
C 2752 18 2874 12 2957 0 
L 2970 18 
C 2918 291 2861 759 2861 1233 
L 2861 1594 
C 2861 2068 2867 2397 2918 2732 
L 2906 2752 
C 2829 2739 2682 2732 2605 2732 
C 2528 2732 2381 2739 2304 2752 
L 2291 2732 
C 2341 2371 2349 2074 2349 1594 
L 2349 974 
C 2154 635 1786 294 1472 294 
C 1252 294 1043 364 1043 956 
L 1043 1586 
C 1043 2064 1050 2395 1101 2733 
L 1088 2752 
C 1011 2739 864 2733 787 2733 
C 710 2733 563 2739 486 2752 
L 474 2733 
C 525 2370 531 2070 531 1586 
L 531 822 
C 531 383 736 -64 1370 -64 
C 1766 -64 2125 262 2336 587 
L 2336 600 
z
" transform="scale(0.015625)"/>
       <path id="LinBiolinumT-73" d="M 320 647 
L 211 108 
C 576 -20 934 -64 1178 -64 
C 2061 -64 2266 461 2266 814 
C 2266 1340 1850 1546 1395 1655 
C 1153 1712 800 1834 800 2155 
C 800 2418 1011 2559 1286 2559 
C 1619 2559 1824 2296 1971 2123 
L 2061 2129 
L 2189 2604 
L 2176 2623 
C 1990 2719 1638 2816 1312 2816 
C 838 2816 346 2566 346 2033 
C 346 1520 728 1350 1114 1244 
C 1485 1141 1760 1039 1760 724 
C 1760 384 1510 192 1171 192 
C 864 192 595 403 416 654 
L 320 647 
z
" transform="scale(0.015625)"/>
       <path id="LinBiolinumT-74" d="M 608 2752 
C 477 2752 342 2754 262 2764 
C 219 2659 184 2598 122 2502 
L 154 2457 
C 264 2465 462 2469 608 2470 
L 608 1586 
C 608 1199 589 735 589 541 
C 589 125 858 -64 1152 -64 
C 1421 -64 1626 -3 1894 162 
L 1816 320 
C 1619 252 1472 245 1312 271 
C 1160 295 1101 450 1101 799 
C 1101 993 1120 1270 1120 1657 
L 1120 2470 
L 1363 2470 
C 1517 2470 1740 2465 1824 2457 
C 1843 2559 1862 2625 1901 2719 
L 1869 2764 
C 1754 2759 1568 2752 1421 2752 
L 1120 2752 
C 1120 3230 1124 3315 1152 3686 
C 1152 3732 1134 3750 1094 3750 
C 934 3686 855 3618 646 3590 
L 634 3571 
C 621 3348 608 3123 608 2752 
L 608 2752 
z
" transform="scale(0.015625)"/>
       <path id="LinBiolinumT-69" d="M 512 3833 
C 512 3660 666 3507 838 3507 
C 1011 3507 1165 3660 1165 3833 
C 1165 4006 1011 4160 838 4160 
C 666 4160 512 4006 512 3833 
z
M 576 1502 
L 576 1155 
C 576 681 564 359 518 18 
L 531 0 
C 608 12 755 18 832 18 
C 909 18 1056 12 1133 0 
L 1146 18 
C 1100 377 1088 675 1088 1155 
L 1088 1603 
C 1088 2076 1105 2303 1146 2688 
C 1146 2745 1138 2752 1088 2752 
C 942 2737 667 2734 531 2745 
L 518 2726 
C 558 2456 576 1975 576 1502 
z
" transform="scale(0.015625)"/>
       <path id="LinBiolinumT-6c" d="M 576 1297 
C 576 821 567 361 518 19 
L 531 0 
C 608 12 755 19 832 19 
C 909 19 1056 12 1133 0 
L 1146 19 
C 1096 383 1088 816 1088 1297 
L 1088 3214 
C 1088 3693 1115 4012 1146 4415 
C 1146 4460 1128 4480 1088 4480 
C 928 4415 791 4371 531 4352 
L 518 4332 
C 568 4059 576 3585 576 3099 
L 576 1297 
z
" transform="scale(0.015625)"/>
       <path id="LinBiolinumT-79" d="M 179 2752 
C 434 2182 1194 529 1421 -82 
C 1216 -560 955 -1053 666 -1536 
C 730 -1517 826 -1504 890 -1504 
C 954 -1504 1139 -1517 1203 -1536 
C 1446 -735 2848 2322 3059 2752 
C 2995 2732 2848 2732 2784 2732 
C 2720 2732 2598 2732 2534 2752 
C 2304 2027 2004 1208 1695 544 
L 1682 544 
C 1367 1307 1065 2019 826 2751 
C 742 2732 602 2732 512 2732 
C 429 2732 269 2732 179 2751 
L 179 2752 
z
" transform="scale(0.015625)"/>
       <path id="LinBiolinumT-72" d="M 1069 2145 
L 1069 2726 
C 1069 2776 1061 2790 1030 2790 
C 887 2762 658 2757 512 2771 
L 499 2751 
C 544 2475 557 1992 557 1514 
L 557 1164 
C 557 687 549 361 499 19 
L 512 0 
C 589 12 736 19 813 19 
C 890 19 1037 12 1114 0 
L 1126 19 
C 1079 381 1069 681 1069 1164 
L 1069 1495 
C 1069 1763 1149 1915 1286 2125 
C 1380 2267 1523 2348 1645 2348 
C 1773 2348 1894 2336 1978 2259 
L 2029 2272 
L 2157 2745 
L 2131 2771 
C 2022 2803 2016 2816 1901 2816 
C 1555 2816 1370 2617 1088 2132 
L 1069 2145 
z
" transform="scale(0.015625)"/>
       <path id="LinBiolinumT-61" d="M 1984 1443 
L 1958 679 
C 1958 596 1920 551 1869 512 
C 1690 377 1472 262 1280 262 
C 992 262 806 454 806 653 
C 806 942 941 1160 1440 1295 
L 1984 1443 
z
M 1984 307 
C 2058 57 2249 -64 2483 -64 
C 2644 -64 2842 -26 2993 134 
L 2945 293 
C 2875 268 2821 259 2772 259 
C 2708 259 2624 271 2584 307 
C 2519 366 2478 522 2478 807 
C 2478 994 2496 1706 2496 1777 
C 2496 2643 1926 2816 1440 2816 
C 954 2816 659 2579 499 2444 
L 480 2418 
L 589 1988 
L 672 1982 
C 851 2271 1069 2527 1376 2527 
C 1606 2527 1990 2495 1990 1770 
C 1990 1725 1965 1700 1946 1693 
L 1350 1558 
C 698 1411 288 1064 288 628 
C 288 153 614 -64 1088 -64 
C 1440 -64 1619 19 1958 307 
L 1984 307 
z
" transform="scale(0.015625)"/>
      </defs>
      <use xlink:href="#LinBiolinumT-45" transform="scale(0.996264)"/>
      <use xlink:href="#LinBiolinumT-78" transform="translate(53.599007 0) scale(0.996264)"/>
      <use xlink:href="#LinBiolinumT-6f" transform="translate(98.929004 0) scale(0.996264)"/>
      <use xlink:href="#LinBiolinumT-67" transform="translate(148.742205 0) scale(0.996264)"/>
      <use xlink:href="#LinBiolinumT-65" transform="translate(198.455727 0) scale(0.996264)"/>
      <use xlink:href="#LinBiolinumT-6e" transform="translate(243.58649 0) scale(0.996264)"/>
      <use xlink:href="#LinBiolinumT-6f" transform="translate(297.285068 0) scale(0.996264)"/>
      <use xlink:href="#LinBiolinumT-75" transform="translate(347.098269 0) scale(0.996264)"/>
      <use xlink:href="#LinBiolinumT-73" transform="translate(400.597612 0) scale(0.996264)"/>
      <use xlink:href="#LinBiolinumT-75" transform="translate(464.956258 0) scale(0.996264)"/>
      <use xlink:href="#LinBiolinumT-74" transform="translate(518.455602 0) scale(0.996264)"/>
      <use xlink:href="#LinBiolinumT-69" transform="translate(552.328594 0) scale(0.996264)"/>
      <use xlink:href="#LinBiolinumT-6c" transform="translate(578.231473 0) scale(0.996264)"/>
      <use xlink:href="#LinBiolinumT-69" transform="translate(603.337308 0) scale(0.996264)"/>
      <use xlink:href="#LinBiolinumT-74" transform="translate(629.240188 0) scale(0.996264)"/>
      <use xlink:href="#LinBiolinumT-79" transform="translate(663.113179 0) scale(0.996264)"/>
      <use xlink:href="#LinBiolinumT-72" transform="translate(738.430684 0) scale(0.996264)"/>
      <use xlink:href="#LinBiolinumT-61" transform="translate(773.79801 0) scale(0.996264)"/>
      <use xlink:href="#LinBiolinumT-74" transform="translate(821.7183 0) scale(0.996264)"/>
      <use xlink:href="#LinBiolinumT-69" transform="translate(855.591292 0) scale(0.996264)"/>
      <use xlink:href="#LinBiolinumT-6f" transform="translate(881.494171 0) scale(0.996264)"/>
     </g>
    </g>
   </g>
   <g id="matplotlib.axis_2">
    <g id="ytick_1">
     <g id="line2d_6">
      <defs>
       <path id="me899caa69c" d="M 0 0 
L -3.5 0 
" style="stroke: #000000; stroke-width: 0.8"/>
      </defs>
      <g>
       <use xlink:href="#me899caa69c" x="40.267561" y="177.013149" style="stroke: #000000; stroke-width: 0.8"/>
      </g>
     </g>
     <g id="text_7">
      <!-- $\mathdefault{0.0}$ -->
      <g transform="translate(20.537482 180.506298) scale(0.1 -0.1)">
       <use xlink:href="#CMR17-30" transform="scale(0.996264)"/>
       <use xlink:href="#CMMI12-3a" transform="translate(45.690477 0) scale(0.996264)"/>
       <use xlink:href="#CMR17-30" transform="translate(72.787654 0) scale(0.996264)"/>
      </g>
     </g>
    </g>
    <g id="ytick_2">
     <g id="line2d_7">
      <g>
       <use xlink:href="#me899caa69c" x="40.267561" y="143.749149" style="stroke: #000000; stroke-width: 0.8"/>
      </g>
     </g>
     <g id="text_8">
      <!-- $\mathdefault{0.2}$ -->
      <g transform="translate(20.537482 147.242298) scale(0.1 -0.1)">
       <use xlink:href="#CMR17-30" transform="scale(0.996264)"/>
       <use xlink:href="#CMMI12-3a" transform="translate(45.690477 0) scale(0.996264)"/>
       <use xlink:href="#CMR17-32" transform="translate(72.787654 0) scale(0.996264)"/>
      </g>
     </g>
    </g>
    <g id="ytick_3">
     <g id="line2d_8">
      <g>
       <use xlink:href="#me899caa69c" x="40.267561" y="110.485149" style="stroke: #000000; stroke-width: 0.8"/>
      </g>
     </g>
     <g id="text_9">
      <!-- $\mathdefault{0.4}$ -->
      <g transform="translate(20.537482 113.978298) scale(0.1 -0.1)">
       <defs>
        <path id="CMR17-34" d="M 2150 4147 
C 2150 4281 2144 4288 2029 4288 
L 128 1254 
L 128 1088 
L 1779 1088 
L 1779 460 
C 1779 230 1766 166 1318 166 
L 1197 166 
L 1197 0 
C 1402 12 1747 12 1965 12 
C 2182 12 2528 12 2733 0 
L 2733 166 
L 2611 166 
C 2163 166 2150 230 2150 460 
L 2150 1088 
L 2803 1088 
L 2803 1254 
L 2150 1254 
L 2150 4147 
z
M 1798 3723 
L 1798 1254 
L 256 1254 
L 1798 3723 
z
" transform="scale(0.015625)"/>
       </defs>
       <use xlink:href="#CMR17-30" transform="scale(0.996264)"/>
       <use xlink:href="#CMMI12-3a" transform="translate(45.690477 0) scale(0.996264)"/>
       <use xlink:href="#CMR17-34" transform="translate(72.787654 0) scale(0.996264)"/>
      </g>
     </g>
    </g>
    <g id="ytick_4">
     <g id="line2d_9">
      <g>
       <use xlink:href="#me899caa69c" x="40.267561" y="77.221149" style="stroke: #000000; stroke-width: 0.8"/>
      </g>
     </g>
     <g id="text_10">
      <!-- $\mathdefault{0.6}$ -->
      <g transform="translate(20.537482 80.714298) scale(0.1 -0.1)">
       <defs>
        <path id="CMR17-36" d="M 678 2198 
C 678 3712 1395 4076 1811 4076 
C 1946 4076 2272 4049 2400 3782 
C 2298 3782 2106 3782 2106 3558 
C 2106 3385 2246 3328 2336 3328 
C 2394 3328 2566 3353 2566 3571 
C 2566 3987 2246 4224 1805 4224 
C 1043 4224 243 3411 243 2011 
C 243 257 966 -128 1478 -128 
C 2099 -128 2688 431 2688 1295 
C 2688 2101 2170 2688 1517 2688 
C 1126 2688 838 2430 678 1979 
L 678 2198 
z
M 1478 25 
C 691 25 691 1212 691 1450 
C 691 1914 909 2585 1504 2585 
C 1613 2585 1926 2585 2138 2140 
C 2253 1889 2253 1624 2253 1302 
C 2253 954 2253 696 2118 438 
C 1978 173 1773 25 1478 25 
z
" transform="scale(0.015625)"/>
       </defs>
       <use xlink:href="#CMR17-30" transform="scale(0.996264)"/>
       <use xlink:href="#CMMI12-3a" transform="translate(45.690477 0) scale(0.996264)"/>
       <use xlink:href="#CMR17-36" transform="translate(72.787654 0) scale(0.996264)"/>
      </g>
     </g>
    </g>
    <g id="ytick_5">
     <g id="line2d_10">
      <g>
       <use xlink:href="#me899caa69c" x="40.267561" y="43.957149" style="stroke: #000000; stroke-width: 0.8"/>
      </g>
     </g>
     <g id="text_11">
      <!-- $\mathdefault{0.8}$ -->
      <g transform="translate(20.537482 47.450298) scale(0.1 -0.1)">
       <defs>
        <path id="CMR17-38" d="M 1741 2289 
C 2144 2494 2554 2803 2554 3298 
C 2554 3884 1990 4224 1472 4224 
C 890 4224 378 3800 378 3215 
C 378 3054 416 2777 666 2533 
C 730 2469 998 2276 1171 2154 
C 883 2006 211 1652 211 945 
C 211 282 838 -128 1459 -128 
C 2144 -128 2720 366 2720 1022 
C 2720 1607 2330 1877 2074 2051 
L 1741 2289 
z
M 902 2855 
C 851 2887 595 3086 595 3388 
C 595 3781 998 4076 1459 4076 
C 1965 4076 2336 3716 2336 3298 
C 2336 2700 1670 2359 1638 2359 
C 1632 2359 1626 2359 1574 2398 
L 902 2855 
z
M 2080 1536 
C 2176 1466 2483 1253 2483 861 
C 2483 385 2010 25 1472 25 
C 890 25 448 443 448 951 
C 448 1459 838 1884 1280 2083 
L 2080 1536 
z
" transform="scale(0.015625)"/>
       </defs>
       <use xlink:href="#CMR17-30" transform="scale(0.996264)"/>
       <use xlink:href="#CMMI12-3a" transform="translate(45.690477 0) scale(0.996264)"/>
       <use xlink:href="#CMR17-38" transform="translate(72.787654 0) scale(0.996264)"/>
      </g>
     </g>
    </g>
    <g id="ytick_6">
     <g id="line2d_11">
      <g>
       <use xlink:href="#me899caa69c" x="40.267561" y="10.693149" style="stroke: #000000; stroke-width: 0.8"/>
      </g>
     </g>
     <g id="text_12">
      <!-- $\mathdefault{1.0}$ -->
      <g transform="translate(20.537482 14.186298) scale(0.1 -0.1)">
       <use xlink:href="#CMR17-31" transform="scale(0.996264)"/>
       <use xlink:href="#CMMI12-3a" transform="translate(45.690477 0) scale(0.996264)"/>
       <use xlink:href="#CMR17-30" transform="translate(72.787654 0) scale(0.996264)"/>
      </g>
     </g>
    </g>
    <g id="text_13">
     <!-- Frac. cross-group link recommendations $\rho$ -->
     <g transform="translate(14.186298 180.013469) rotate(-90) scale(0.1 -0.1)">
      <defs>
       <path id="LinBiolinumT-46" d="M 2605 4160 
L 941 4160 
C 723 4160 614 4179 614 4179 
L 602 4160 
C 653 3795 666 3355 666 2871 
L 666 1299 
C 666 819 653 364 602 19 
L 608 0 
C 608 0 717 19 941 19 
C 1158 19 1267 0 1267 0 
L 1280 19 
C 1229 384 1216 819 1216 1299 
L 1216 2048 
C 1523 2048 2202 2028 2643 1984 
L 2662 2003 
C 2650 2060 2643 2150 2643 2208 
C 2643 2265 2650 2355 2662 2413 
L 2643 2432 
C 2266 2400 1971 2368 1216 2368 
L 1216 2871 
C 1216 2981 1222 3646 1267 3801 
C 2125 3801 3008 3723 3008 3723 
L 3021 3749 
C 3014 3801 3008 3884 3008 3942 
C 3008 3993 3014 4070 3021 4160 
L 3008 4179 
C 2906 4166 2758 4160 2605 4160 
z
" transform="scale(0.015625)"/>
       <path id="LinBiolinumT-63" d="M 1600 2559 
C 1847 2559 2071 2377 2240 2085 
L 2323 2091 
L 2470 2617 
L 2458 2636 
C 2259 2739 1926 2816 1606 2816 
C 941 2816 243 2271 243 1398 
C 243 506 749 -64 1530 -64 
C 1914 -64 2214 64 2470 390 
L 2349 525 
L 2323 525 
C 2080 307 1876 256 1638 256 
C 1171 256 806 679 806 1430 
C 806 2136 1178 2559 1600 2559 
z
" transform="scale(0.015625)"/>
       <path id="LinBiolinumT-2e" d="M 346 281 
C 402 67 492 -20 691 -64 
L 717 -64 
C 897 -20 997 75 1062 281 
L 1062 307 
C 1004 487 902 586 717 652 
L 691 652 
C 498 574 404 477 346 307 
L 346 281 
z
" transform="scale(0.015625)"/>
       <path id="LinBiolinumT-2d" d="M 1754 1510 
C 1837 1510 1926 1670 1926 1740 
C 1926 1798 1901 1856 1837 1856 
L 371 1856 
C 294 1856 211 1721 211 1619 
C 211 1561 250 1510 307 1510 
L 1754 1510 
z
" transform="scale(0.015625)"/>
       <path id="LinBiolinumT-70" d="M 1037 1886 
C 1178 2226 1555 2521 1805 2521 
C 2240 2521 2464 2123 2464 1398 
C 2464 872 2317 192 1632 192 
C 1530 192 1261 217 1037 480 
L 1037 1886 
z
M 1037 2258 
L 1037 2726 
C 1037 2776 1029 2790 998 2790 
C 855 2762 626 2757 480 2771 
L 467 2751 
C 512 2475 525 1989 525 1507 
L 525 -208 
C 525 -695 513 -1165 467 -1517 
L 480 -1536 
C 557 -1523 704 -1517 781 -1517 
C 858 -1517 1005 -1523 1082 -1536 
L 1094 -1517 
C 1048 -1144 1037 -700 1037 -208 
L 1037 76 
C 1203 -13 1440 -64 1670 -64 
C 2515 -64 3027 577 3027 1482 
C 3027 2162 2630 2816 1914 2816 
C 1664 2816 1344 2687 1050 2239 
L 1037 2258 
z
" transform="scale(0.015625)"/>
       <path id="LinBiolinumT-6b" d="M 576 1280 
C 576 811 567 357 518 18 
L 531 0 
C 608 12 755 18 832 18 
C 909 18 1056 12 1133 0 
L 1146 18 
C 1096 378 1088 806 1088 1280 
L 1088 1344 
C 1140 1342 1295 1323 1350 1274 
C 1766 845 1920 618 2355 0 
C 2452 11 2669 18 2778 18 
C 2885 18 3104 11 3162 0 
L 3174 18 
C 2698 514 2358 793 1747 1523 
C 1999 1783 2624 2384 3040 2732 
L 3027 2752 
C 2906 2732 2554 2732 2381 2732 
C 2104 2337 1623 1824 1370 1631 
C 1288 1568 1171 1543 1088 1537 
L 1088 3193 
C 1088 3680 1115 4004 1146 4415 
C 1146 4460 1128 4480 1088 4480 
C 928 4415 791 4369 531 4350 
L 518 4330 
C 568 4053 576 3570 576 3076 
L 576 1280 
z
" transform="scale(0.015625)"/>
       <path id="LinBiolinumT-6d" d="M 1037 2260 
L 1037 2726 
C 1037 2776 1029 2790 998 2790 
C 855 2762 626 2757 480 2771 
L 467 2751 
C 512 2475 525 1992 525 1515 
L 525 1165 
C 525 687 518 362 467 19 
L 480 0 
C 557 12 704 19 781 19 
C 858 19 1005 12 1082 0 
L 1094 19 
C 1043 381 1037 681 1037 1165 
L 1037 1935 
C 1338 2240 1696 2431 1920 2431 
C 2163 2431 2342 2291 2342 1865 
L 2342 1165 
C 2342 687 2336 362 2285 19 
L 2298 0 
C 2374 12 2522 19 2598 19 
C 2675 19 2822 12 2899 0 
L 2912 19 
C 2861 381 2854 681 2854 1165 
L 2854 1808 
C 2854 1897 2854 1973 2848 2049 
C 3155 2387 3411 2431 3661 2431 
C 4006 2431 4173 2291 4173 1865 
L 4173 1165 
C 4173 687 4166 362 4115 19 
L 4128 0 
C 4205 12 4352 19 4429 19 
C 4506 19 4653 12 4730 0 
L 4742 19 
C 4691 381 4685 681 4685 1165 
L 4685 1801 
C 4685 2368 4582 2816 3891 2816 
C 3546 2816 3174 2694 2810 2310 
C 2752 2617 2490 2816 2131 2816 
C 1734 2816 1357 2559 1056 2240 
L 1037 2260 
z
" transform="scale(0.015625)"/>
       <path id="LinBiolinumT-64" d="M 2310 724 
C 2077 426 1783 268 1523 268 
C 1178 268 883 615 883 1417 
C 883 2380 1393 2559 1702 2559 
C 2003 2559 2157 2431 2310 2187 
L 2310 724 
z
M 2310 371 
L 2323 371 
L 2355 0 
C 2355 6 2374 0 2413 0 
C 2497 11 2541 19 2634 19 
C 2714 19 2835 12 2918 0 
L 2931 19 
C 2880 292 2822 764 2822 1241 
L 2822 3207 
C 2822 3683 2848 4018 2880 4415 
C 2880 4460 2862 4480 2822 4480 
C 2662 4415 2525 4370 2266 4351 
L 2253 4332 
C 2303 4057 2310 3580 2310 3092 
L 2310 2675 
C 2163 2758 1901 2816 1773 2816 
C 940 2816 326 2241 326 1375 
C 326 576 794 -64 1485 -64 
C 1792 -64 2080 74 2310 371 
z
" transform="scale(0.015625)"/>
       <path id="CMMI12-1a" d="M 198 -1085 
C 192 -1116 179 -1154 179 -1191 
C 179 -1287 256 -1351 352 -1351 
C 448 -1351 538 -1287 576 -1198 
C 602 -1141 781 -390 986 389 
C 1114 70 1350 -64 1600 -64 
C 2323 -64 3142 830 3142 1794 
C 3142 2477 2726 2816 2285 2816 
C 1722 2816 1037 2234 826 1385 
L 198 -1085 
z
M 1594 64 
C 1158 64 1050 568 1050 645 
C 1050 683 1210 1289 1229 1385 
C 1555 2656 2182 2687 2278 2687 
C 2566 2687 2726 2426 2726 2049 
C 2726 1724 2554 1091 2445 823 
C 2253 383 1920 64 1594 64 
z
" transform="scale(0.015625)"/>
      </defs>
      <use xlink:href="#LinBiolinumT-46" transform="scale(0.996264)"/>
      <use xlink:href="#LinBiolinumT-72" transform="translate(50.21167 0) scale(0.996264)"/>
      <use xlink:href="#LinBiolinumT-61" transform="translate(85.578996 0) scale(0.996264)"/>
      <use xlink:href="#LinBiolinumT-63" transform="translate(133.499286 0) scale(0.996264)"/>
      <use xlink:href="#LinBiolinumT-2e" transform="translate(176.238991 0) scale(0.996264)"/>
      <use xlink:href="#LinBiolinumT-63" transform="translate(227.217864 0) scale(0.996264)"/>
      <use xlink:href="#LinBiolinumT-72" transform="translate(269.957569 0) scale(0.996264)"/>
      <use xlink:href="#LinBiolinumT-6f" transform="translate(304.527836 0) scale(0.996264)"/>
      <use xlink:href="#LinBiolinumT-73" transform="translate(354.341036 0) scale(0.996264)"/>
      <use xlink:href="#LinBiolinumT-73" transform="translate(393.793082 0) scale(0.996264)"/>
      <use xlink:href="#LinBiolinumT-2d" transform="translate(433.245128 0) scale(0.996264)"/>
      <use xlink:href="#LinBiolinumT-67" transform="translate(466.420737 0) scale(0.996264)"/>
      <use xlink:href="#LinBiolinumT-72" transform="translate(516.13426 0) scale(0.996264)"/>
      <use xlink:href="#LinBiolinumT-6f" transform="translate(550.704527 0) scale(0.996264)"/>
      <use xlink:href="#LinBiolinumT-75" transform="translate(600.517727 0) scale(0.996264)"/>
      <use xlink:href="#LinBiolinumT-70" transform="translate(654.017071 0) scale(0.996264)"/>
      <use xlink:href="#LinBiolinumT-6c" transform="translate(731.028252 0) scale(0.996264)"/>
      <use xlink:href="#LinBiolinumT-69" transform="translate(756.134086 0) scale(0.996264)"/>
      <use xlink:href="#LinBiolinumT-6e" transform="translate(782.036966 0) scale(0.996264)"/>
      <use xlink:href="#LinBiolinumT-6b" transform="translate(835.735544 0) scale(0.996264)"/>
      <use xlink:href="#LinBiolinumT-72" transform="translate(910.754243 0) scale(0.996264)"/>
      <use xlink:href="#LinBiolinumT-65" transform="translate(945.324509 0) scale(0.996264)"/>
      <use xlink:href="#LinBiolinumT-63" transform="translate(991.152654 0) scale(0.996264)"/>
      <use xlink:href="#LinBiolinumT-6f" transform="translate(1033.892359 0) scale(0.996264)"/>
      <use xlink:href="#LinBiolinumT-6d" transform="translate(1083.705559 0) scale(0.996264)"/>
      <use xlink:href="#LinBiolinumT-6d" transform="translate(1164.104077 0) scale(0.996264)"/>
      <use xlink:href="#LinBiolinumT-65" transform="translate(1244.502595 0) scale(0.996264)"/>
      <use xlink:href="#LinBiolinumT-6e" transform="translate(1289.633357 0) scale(0.996264)"/>
      <use xlink:href="#LinBiolinumT-64" transform="translate(1343.331936 0) scale(0.996264)"/>
      <use xlink:href="#LinBiolinumT-61" transform="translate(1396.133898 0) scale(0.996264)"/>
      <use xlink:href="#LinBiolinumT-74" transform="translate(1444.054188 0) scale(0.996264)"/>
      <use xlink:href="#LinBiolinumT-69" transform="translate(1477.927179 0) scale(0.996264)"/>
      <use xlink:href="#LinBiolinumT-6f" transform="translate(1503.830059 0) scale(0.996264)"/>
      <use xlink:href="#LinBiolinumT-6e" transform="translate(1553.643259 0) scale(0.996264)"/>
      <use xlink:href="#LinBiolinumT-73" transform="translate(1607.341838 0) scale(0.996264)"/>
      <use xlink:href="#CMMI12-1a" transform="translate(1671.700484 0) scale(0.996264)"/>
     </g>
    </g>
   </g>
   <g id="patch_3">
    <path d="M 40.267561 177.013149 
L 40.267561 10.693149 
" style="fill: none; stroke: #000000; stroke-width: 0.8; stroke-linejoin: miter; stroke-linecap: square"/>
   </g>
   <g id="patch_4">
    <path d="M 263.467561 177.013149 
L 263.467561 10.693149 
" style="fill: none; stroke: #000000; stroke-width: 0.8; stroke-linejoin: miter; stroke-linecap: square"/>
   </g>
   <g id="patch_5">
    <path d="M 40.267561 177.013149 
L 263.467561 177.013149 
" style="fill: none; stroke: #000000; stroke-width: 0.8; stroke-linejoin: miter; stroke-linecap: square"/>
   </g>
   <g id="patch_6">
    <path d="M 40.267561 10.693149 
L 263.467561 10.693149 
" style="fill: none; stroke: #000000; stroke-width: 0.8; stroke-linejoin: miter; stroke-linecap: square"/>
   </g>
   <g id="legend_1">
    <g id="patch_7">
     <path d="M 281.627561 59.593149 
L 405.861533 59.593149 
Q 407.861533 59.593149 407.861533 57.593149 
L 407.861533 17.693149 
Q 407.861533 15.693149 405.861533 15.693149 
L 281.627561 15.693149 
Q 279.627561 15.693149 279.627561 17.693149 
L 279.627561 57.593149 
Q 279.627561 59.593149 281.627561 59.593149 
z
" style="fill: #ffffff; stroke: #cccccc; stroke-linejoin: miter"/>
    </g>
    <g id="patch_8">
     <path d="M 283.627561 35.143149 
L 303.627561 35.143149 
L 303.627561 19.693149 
L 283.627561 19.693149 
z
" style="fill: url(#h1473a8654c)"/>
    </g>
    <g id="text_14">
     <!-- Change indeterminate -->
     <g transform="translate(311.627561 30.593149) scale(0.1 -0.1)">
      <defs>
       <path id="LinBiolinumT-43" d="M 2432 4224 
C 1350 4224 333 3287 333 2022 
C 333 911 966 -64 2342 -64 
C 2934 -64 3491 120 3918 638 
C 3914 712 3901 853 3878 911 
L 3834 930 
C 3379 429 2995 262 2400 262 
C 1588 262 992 1142 992 2144 
C 992 3448 1818 3923 2342 3923 
C 2918 3923 3386 3692 3648 3165 
L 3725 3171 
C 3748 3499 3770 3612 3840 3884 
L 3827 3904 
C 3827 3904 3213 4224 2432 4224 
L 2432 4224 
z
" transform="scale(0.015625)"/>
       <path id="LinBiolinumT-68" d="M 1088 2260 
L 1088 3214 
C 1088 3689 1115 4021 1146 4415 
C 1146 4460 1128 4480 1088 4480 
C 928 4415 791 4370 531 4351 
L 518 4332 
C 568 4057 576 3574 576 3085 
L 576 1165 
C 576 691 568 375 518 19 
L 531 0 
C 608 12 755 19 832 19 
C 909 19 1056 12 1133 0 
L 1146 19 
C 1098 383 1088 681 1088 1165 
L 1088 1909 
C 1414 2291 1789 2431 2016 2431 
C 2342 2431 2477 2304 2477 1788 
L 2477 1165 
C 2477 687 2470 361 2419 19 
L 2432 0 
C 2509 12 2656 19 2733 19 
C 2810 19 2957 12 3034 0 
L 3046 19 
C 2995 383 2989 681 2989 1165 
C 2989 1368 3002 1604 3002 1808 
C 3002 2470 2784 2816 2208 2816 
C 1965 2816 1510 2719 1101 2240 
L 1088 2260 
z
" transform="scale(0.015625)"/>
      </defs>
      <use xlink:href="#LinBiolinumT-43" transform="scale(0.996264)"/>
      <use xlink:href="#LinBiolinumT-68" transform="translate(67.44707 0) scale(0.996264)"/>
      <use xlink:href="#LinBiolinumT-61" transform="translate(122.141943 0) scale(0.996264)"/>
      <use xlink:href="#LinBiolinumT-6e" transform="translate(170.062233 0) scale(0.996264)"/>
      <use xlink:href="#LinBiolinumT-67" transform="translate(223.760812 0) scale(0.996264)"/>
      <use xlink:href="#LinBiolinumT-65" transform="translate(273.474334 0) scale(0.996264)"/>
      <use xlink:href="#LinBiolinumT-69" transform="translate(343.511697 0) scale(0.996264)"/>
      <use xlink:href="#LinBiolinumT-6e" transform="translate(369.414576 0) scale(0.996264)"/>
      <use xlink:href="#LinBiolinumT-64" transform="translate(423.113155 0) scale(0.996264)"/>
      <use xlink:href="#LinBiolinumT-65" transform="translate(475.915117 0) scale(0.996264)"/>
      <use xlink:href="#LinBiolinumT-74" transform="translate(521.04588 0) scale(0.996264)"/>
      <use xlink:href="#LinBiolinumT-65" transform="translate(554.918871 0) scale(0.996264)"/>
      <use xlink:href="#LinBiolinumT-72" transform="translate(600.049634 0) scale(0.996264)"/>
      <use xlink:href="#LinBiolinumT-6d" transform="translate(635.416961 0) scale(0.996264)"/>
      <use xlink:href="#LinBiolinumT-69" transform="translate(715.815478 0) scale(0.996264)"/>
      <use xlink:href="#LinBiolinumT-6e" transform="translate(741.718358 0) scale(0.996264)"/>
      <use xlink:href="#LinBiolinumT-61" transform="translate(795.416936 0) scale(0.996264)"/>
      <use xlink:href="#LinBiolinumT-74" transform="translate(843.337226 0) scale(0.996264)"/>
      <use xlink:href="#LinBiolinumT-65" transform="translate(877.210218 0) scale(0.996264)"/>
     </g>
    </g>
    <g id="patch_9">
     <path d="M 283.627561 55.593149 
L 303.627561 55.593149 
L 303.627561 40.143149 
L 283.627561 40.143149 
z
" style="fill: url(#h3338a8d5f1)"/>
    </g>
    <g id="text_15">
     <!-- Inequality decreases -->
     <g transform="translate(311.627561 51.043149) scale(0.1 -0.1)">
      <defs>
       <path id="LinBiolinumT-49" d="M 666 2863 
L 666 1297 
C 666 818 653 364 602 19 
L 614 0 
C 691 12 864 19 941 19 
C 1018 19 1190 12 1267 0 
L 1280 19 
C 1229 383 1216 818 1216 1297 
L 1216 2863 
C 1216 3342 1229 3802 1280 4141 
L 1267 4160 
C 1190 4147 1018 4141 941 4141 
C 864 4141 691 4147 614 4160 
L 602 4141 
C 653 3776 666 3342 666 2863 
z
" transform="scale(0.015625)"/>
       <path id="LinBiolinumT-71" d="M 2285 2412 
C 2285 2412 2304 2142 2304 1501 
L 2304 422 
C 2138 294 1824 217 1702 217 
C 1331 217 877 487 877 1456 
C 877 2123 1210 2559 1683 2559 
C 1964 2559 2145 2527 2285 2412 
z
M 2342 2771 
C 2227 2790 1862 2816 1645 2816 
C 902 2816 314 2232 314 1385 
C 314 716 666 -64 1549 -64 
C 1914 -64 2208 64 2304 147 
L 2304 -208 
C 2304 -693 2301 -1166 2246 -1517 
L 2259 -1536 
C 2259 -1536 2336 -1517 2560 -1517 
C 2779 -1517 2861 -1536 2861 -1536 
L 2874 -1517 
C 2820 -1144 2816 -700 2816 -208 
L 2816 1507 
C 2816 1988 2829 2475 2874 2751 
L 2861 2771 
C 2715 2757 2459 2751 2342 2771 
z
" transform="scale(0.015625)"/>
      </defs>
      <use xlink:href="#LinBiolinumT-49" transform="scale(0.996264)"/>
      <use xlink:href="#LinBiolinumT-6e" transform="translate(29.290125 0) scale(0.996264)"/>
      <use xlink:href="#LinBiolinumT-65" transform="translate(82.988704 0) scale(0.996264)"/>
      <use xlink:href="#LinBiolinumT-71" transform="translate(128.816848 0) scale(0.996264)"/>
      <use xlink:href="#LinBiolinumT-75" transform="translate(180.821857 0) scale(0.996264)"/>
      <use xlink:href="#LinBiolinumT-61" transform="translate(234.321201 0) scale(0.996264)"/>
      <use xlink:href="#LinBiolinumT-6c" transform="translate(282.241491 0) scale(0.996264)"/>
      <use xlink:href="#LinBiolinumT-69" transform="translate(307.347325 0) scale(0.996264)"/>
      <use xlink:href="#LinBiolinumT-74" transform="translate(333.250205 0) scale(0.996264)"/>
      <use xlink:href="#LinBiolinumT-79" transform="translate(367.123196 0) scale(0.996264)"/>
      <use xlink:href="#LinBiolinumT-64" transform="translate(442.440701 0) scale(0.996264)"/>
      <use xlink:href="#LinBiolinumT-65" transform="translate(495.242663 0) scale(0.996264)"/>
      <use xlink:href="#LinBiolinumT-63" transform="translate(541.070807 0) scale(0.996264)"/>
      <use xlink:href="#LinBiolinumT-72" transform="translate(583.810512 0) scale(0.996264)"/>
      <use xlink:href="#LinBiolinumT-65" transform="translate(618.380779 0) scale(0.996264)"/>
      <use xlink:href="#LinBiolinumT-61" transform="translate(663.511542 0) scale(0.996264)"/>
      <use xlink:href="#LinBiolinumT-73" transform="translate(711.431832 0) scale(0.996264)"/>
      <use xlink:href="#LinBiolinumT-65" transform="translate(750.883877 0) scale(0.996264)"/>
      <use xlink:href="#LinBiolinumT-73" transform="translate(796.01464 0) scale(0.996264)"/>
     </g>
    </g>
   </g>
  </g>
 </g>
 <defs>
  <clipPath id="p27b5436aea">
   <rect x="40.267561" y="10.693149" width="223.2" height="166.32"/>
  </clipPath>
 </defs>
 <defs>
  <pattern id="h1473a8654c" patternUnits="userSpaceOnUse" x="0" y="0" width="72" height="72">
   <rect x="0" y="0" width="73" height="73" fill="none"/>
   <path d="M 0 69 
L 72 69 
M 0 63 
L 72 63 
M 0 57 
L 72 57 
M 0 51 
L 72 51 
M 0 45 
L 72 45 
M 0 39 
L 72 39 
M 0 33 
L 72 33 
M 0 27 
L 72 27 
M 0 21 
L 72 21 
M 0 15 
L 72 15 
M 0 9 
L 72 9 
M 0 3 
L 72 3 
" style="fill: #000000; stroke: #000000; stroke-width: 1.0; stroke-linecap: butt; stroke-linejoin: miter"/>
  </pattern>
  <pattern id="h3338a8d5f1" patternUnits="userSpaceOnUse" x="0" y="0" width="72" height="72">
   <rect x="0" y="0" width="73" height="73" fill="none"/>
   <path d="M -36 36 
L 36 108 
M -30 30 
L 42 102 
M -24 24 
L 48 96 
M -18 18 
L 54 90 
M -12 12 
L 60 84 
M -6 6 
L 66 78 
M 0 0 
L 72 72 
M 6 -6 
L 78 66 
M 12 -12 
L 84 60 
M 18 -18 
L 90 54 
M 24 -24 
L 96 48 
M 30 -30 
L 102 42 
M 36 -36 
L 108 36 
" style="fill: #000000; stroke: #000000; stroke-width: 1.0; stroke-linecap: butt; stroke-linejoin: miter"/>
  </pattern>
 </defs>
</svg>
