<?xml version="1.0" encoding="utf-8" standalone="no"?>
<!DOCTYPE svg PUBLIC "-//W3C//DTD SVG 1.1//EN"
  "http://www.w3.org/Graphics/SVG/1.1/DTD/svg11.dtd">
<svg xmlns:xlink="http://www.w3.org/1999/xlink" width="465.729322pt" height="213.888113pt" viewBox="0 0 465.729322 213.888113" xmlns="http://www.w3.org/2000/svg" version="1.1">
 <metadata>
  <rdf:RDF xmlns:dc="http://purl.org/dc/elements/1.1/" xmlns:cc="http://creativecommons.org/ns#" xmlns:rdf="http://www.w3.org/1999/02/22-rdf-syntax-ns#">
   <cc:Work>
    <dc:type rdf:resource="http://purl.org/dc/dcmitype/StillImage"/>
    <dc:date>2025-02-09T19:54:38.777453</dc:date>
    <dc:format>image/svg+xml</dc:format>
    <dc:creator>
     <cc:Agent>
      <dc:title>Matplotlib v3.10.0, https://matplotlib.org/</dc:title>
     </cc:Agent>
    </dc:creator>
   </cc:Work>
  </rdf:RDF>
 </metadata>
 <defs>
  <style type="text/css">*{stroke-linejoin: round; stroke-linecap: butt}</style>
 </defs>
 <g id="figure_1">
  <g id="patch_1">
   <path d="M -0 213.888113 
L 465.729322 213.888113 
L 465.729322 0 
L -0 0 
z
" style="fill: #ffffff"/>
  </g>
  <g id="axes_1">
   <g id="patch_2">
    <path d="M 37.500153 177.013149 
L 316.500153 177.013149 
L 316.500153 10.693149 
L 37.500153 10.693149 
z
" style="fill: #ffffff"/>
   </g>
   <g id="matplotlib.axis_1">
    <g id="xtick_1">
     <g id="line2d_1">
      <path d="M 59.526468 177.013149 
L 59.526468 10.693149 
" clip-path="url(#p4d3637f83c)" style="fill: none; stroke: #b0b0b0; stroke-width: 0.8; stroke-linecap: square"/>
     </g>
     <g id="line2d_2">
      <defs>
       <path id="m09a2ba2649" d="M 0 0 
L 0 3.5 
" style="stroke: #000000; stroke-width: 0.8"/>
      </defs>
      <g>
       <use xlink:href="#m09a2ba2649" x="59.526468" y="177.013149" style="stroke: #000000; stroke-width: 0.8"/>
      </g>
     </g>
     <g id="text_1">
      <!-- $\mathdefault{2.5}$ -->
      <g transform="translate(53.161429 190.999447) scale(0.1 -0.1)">
       <defs>
        <path id="CMR17-32" d="M 2669 990 
L 2554 990 
C 2490 537 2438 460 2413 422 
C 2381 371 1920 371 1830 371 
L 602 371 
C 832 620 1280 1073 1824 1596 
C 2214 1966 2669 2400 2669 3033 
C 2669 3788 2067 4224 1395 4224 
C 691 4224 262 3603 262 3027 
C 262 2777 448 2745 525 2745 
C 589 2745 781 2783 781 3007 
C 781 3206 614 3264 525 3264 
C 486 3264 448 3257 422 3244 
C 544 3788 915 4057 1306 4057 
C 1862 4057 2227 3616 2227 3033 
C 2227 2477 1901 1998 1536 1583 
L 262 147 
L 262 0 
L 2515 0 
L 2669 990 
z
" transform="scale(0.015625)"/>
        <path id="CMMI12-3a" d="M 1178 307 
C 1178 492 1024 620 870 620 
C 685 620 557 467 557 313 
C 557 128 710 0 864 0 
C 1050 0 1178 153 1178 307 
z
" transform="scale(0.015625)"/>
        <path id="CMR17-35" d="M 730 3750 
C 794 3724 1056 3641 1325 3641 
C 1920 3641 2246 3961 2432 4140 
C 2432 4191 2432 4224 2394 4224 
C 2387 4224 2374 4224 2323 4198 
C 2099 4102 1837 4032 1517 4032 
C 1325 4032 1037 4055 723 4191 
C 653 4224 640 4224 634 4224 
C 602 4224 595 4217 595 4090 
L 595 2231 
C 595 2113 595 2080 659 2080 
C 691 2080 704 2093 736 2139 
C 941 2435 1222 2560 1542 2560 
C 1766 2560 2246 2415 2246 1293 
C 2246 1087 2246 716 2054 422 
C 1894 159 1645 25 1370 25 
C 947 25 518 319 403 812 
C 429 806 480 793 506 793 
C 589 793 749 838 749 1036 
C 749 1209 627 1280 506 1280 
C 358 1280 262 1190 262 1011 
C 262 454 704 -128 1382 -128 
C 2042 -128 2669 441 2669 1267 
C 2669 2054 2170 2662 1549 2662 
C 1222 2662 947 2540 730 2304 
L 730 3750 
z
" transform="scale(0.015625)"/>
       </defs>
       <use xlink:href="#CMR17-32" transform="scale(0.996264)"/>
       <use xlink:href="#CMMI12-3a" transform="translate(45.690477 0) scale(0.996264)"/>
       <use xlink:href="#CMR17-35" transform="translate(72.787654 0) scale(0.996264)"/>
      </g>
     </g>
    </g>
    <g id="xtick_2">
     <g id="line2d_3">
      <path d="M 96.236995 177.013149 
L 96.236995 10.693149 
" clip-path="url(#p4d3637f83c)" style="fill: none; stroke: #b0b0b0; stroke-width: 0.8; stroke-linecap: square"/>
     </g>
     <g id="line2d_4">
      <g>
       <use xlink:href="#m09a2ba2649" x="96.236995" y="177.013149" style="stroke: #000000; stroke-width: 0.8"/>
      </g>
     </g>
     <g id="text_2">
      <!-- $\mathdefault{5.0}$ -->
      <g transform="translate(89.871955 190.999447) scale(0.1 -0.1)">
       <defs>
        <path id="CMR17-30" d="M 2688 2038 
C 2688 2430 2682 3099 2413 3613 
C 2176 4063 1798 4224 1466 4224 
C 1158 4224 768 4082 525 3620 
C 269 3137 243 2539 243 2038 
C 243 1671 250 1112 448 623 
C 723 -39 1216 -128 1466 -128 
C 1760 -128 2208 -7 2470 604 
C 2662 1048 2688 1568 2688 2038 
z
M 1466 -26 
C 1056 -26 813 328 723 816 
C 653 1196 653 1749 653 2109 
C 653 2604 653 3015 736 3407 
C 858 3954 1216 4121 1466 4121 
C 1728 4121 2067 3947 2189 3420 
C 2272 3054 2278 2623 2278 2109 
C 2278 1691 2278 1176 2202 797 
C 2067 96 1690 -26 1466 -26 
z
" transform="scale(0.015625)"/>
       </defs>
       <use xlink:href="#CMR17-35" transform="scale(0.996264)"/>
       <use xlink:href="#CMMI12-3a" transform="translate(45.690477 0) scale(0.996264)"/>
       <use xlink:href="#CMR17-30" transform="translate(72.787654 0) scale(0.996264)"/>
      </g>
     </g>
    </g>
    <g id="xtick_3">
     <g id="line2d_5">
      <path d="M 132.947521 177.013149 
L 132.947521 10.693149 
" clip-path="url(#p4d3637f83c)" style="fill: none; stroke: #b0b0b0; stroke-width: 0.8; stroke-linecap: square"/>
     </g>
     <g id="line2d_6">
      <g>
       <use xlink:href="#m09a2ba2649" x="132.947521" y="177.013149" style="stroke: #000000; stroke-width: 0.8"/>
      </g>
     </g>
     <g id="text_3">
      <!-- $\mathdefault{7.5}$ -->
      <g transform="translate(126.582481 190.999447) scale(0.1 -0.1)">
       <defs>
        <path id="CMR17-37" d="M 2886 3955 
L 2886 4096 
L 1382 4096 
C 634 4096 621 4166 595 4288 
L 480 4288 
L 294 3104 
L 410 3104 
C 429 3226 474 3552 550 3673 
C 589 3724 1062 3724 1171 3724 
L 2579 3724 
L 1869 2670 
C 1395 1961 1069 1003 1069 166 
C 1069 89 1069 -128 1299 -128 
C 1530 -128 1530 89 1530 172 
L 1530 466 
C 1530 1514 1709 2204 2003 2644 
L 2886 3955 
z
" transform="scale(0.015625)"/>
       </defs>
       <use xlink:href="#CMR17-37" transform="scale(0.996264)"/>
       <use xlink:href="#CMMI12-3a" transform="translate(45.690477 0) scale(0.996264)"/>
       <use xlink:href="#CMR17-35" transform="translate(72.787654 0) scale(0.996264)"/>
      </g>
     </g>
    </g>
    <g id="xtick_4">
     <g id="line2d_7">
      <path d="M 169.658047 177.013149 
L 169.658047 10.693149 
" clip-path="url(#p4d3637f83c)" style="fill: none; stroke: #b0b0b0; stroke-width: 0.8; stroke-linecap: square"/>
     </g>
     <g id="line2d_8">
      <g>
       <use xlink:href="#m09a2ba2649" x="169.658047" y="177.013149" style="stroke: #000000; stroke-width: 0.8"/>
      </g>
     </g>
     <g id="text_4">
      <!-- $\mathdefault{10.0}$ -->
      <g transform="translate(160.80234 190.999447) scale(0.1 -0.1)">
       <defs>
        <path id="CMR17-31" d="M 1702 4083 
C 1702 4217 1696 4224 1606 4224 
C 1357 3927 979 3833 621 3820 
C 602 3820 570 3820 563 3808 
C 557 3795 557 3782 557 3648 
C 755 3648 1088 3686 1344 3839 
L 1344 467 
C 1344 243 1331 166 781 166 
L 589 166 
L 589 0 
C 896 6 1216 12 1523 12 
C 1830 12 2150 6 2458 0 
L 2458 166 
L 2266 166 
C 1715 166 1702 236 1702 467 
L 1702 4083 
z
" transform="scale(0.015625)"/>
       </defs>
       <use xlink:href="#CMR17-31" transform="scale(0.996264)"/>
       <use xlink:href="#CMR17-30" transform="translate(45.690477 0) scale(0.996264)"/>
       <use xlink:href="#CMMI12-3a" transform="translate(91.380954 0) scale(0.996264)"/>
       <use xlink:href="#CMR17-30" transform="translate(118.478131 0) scale(0.996264)"/>
      </g>
     </g>
    </g>
    <g id="xtick_5">
     <g id="line2d_9">
      <path d="M 206.368574 177.013149 
L 206.368574 10.693149 
" clip-path="url(#p4d3637f83c)" style="fill: none; stroke: #b0b0b0; stroke-width: 0.8; stroke-linecap: square"/>
     </g>
     <g id="line2d_10">
      <g>
       <use xlink:href="#m09a2ba2649" x="206.368574" y="177.013149" style="stroke: #000000; stroke-width: 0.8"/>
      </g>
     </g>
     <g id="text_5">
      <!-- $\mathdefault{12.5}$ -->
      <g transform="translate(197.512866 190.999447) scale(0.1 -0.1)">
       <use xlink:href="#CMR17-31" transform="scale(0.996264)"/>
       <use xlink:href="#CMR17-32" transform="translate(45.690477 0) scale(0.996264)"/>
       <use xlink:href="#CMMI12-3a" transform="translate(91.380954 0) scale(0.996264)"/>
       <use xlink:href="#CMR17-35" transform="translate(118.478131 0) scale(0.996264)"/>
      </g>
     </g>
    </g>
    <g id="xtick_6">
     <g id="line2d_11">
      <path d="M 243.0791 177.013149 
L 243.0791 10.693149 
" clip-path="url(#p4d3637f83c)" style="fill: none; stroke: #b0b0b0; stroke-width: 0.8; stroke-linecap: square"/>
     </g>
     <g id="line2d_12">
      <g>
       <use xlink:href="#m09a2ba2649" x="243.0791" y="177.013149" style="stroke: #000000; stroke-width: 0.8"/>
      </g>
     </g>
     <g id="text_6">
      <!-- $\mathdefault{15.0}$ -->
      <g transform="translate(234.223393 190.999447) scale(0.1 -0.1)">
       <use xlink:href="#CMR17-31" transform="scale(0.996264)"/>
       <use xlink:href="#CMR17-35" transform="translate(45.690477 0) scale(0.996264)"/>
       <use xlink:href="#CMMI12-3a" transform="translate(91.380954 0) scale(0.996264)"/>
       <use xlink:href="#CMR17-30" transform="translate(118.478131 0) scale(0.996264)"/>
      </g>
     </g>
    </g>
    <g id="xtick_7">
     <g id="line2d_13">
      <path d="M 279.789626 177.013149 
L 279.789626 10.693149 
" clip-path="url(#p4d3637f83c)" style="fill: none; stroke: #b0b0b0; stroke-width: 0.8; stroke-linecap: square"/>
     </g>
     <g id="line2d_14">
      <g>
       <use xlink:href="#m09a2ba2649" x="279.789626" y="177.013149" style="stroke: #000000; stroke-width: 0.8"/>
      </g>
     </g>
     <g id="text_7">
      <!-- $\mathdefault{17.5}$ -->
      <g transform="translate(270.933919 190.999447) scale(0.1 -0.1)">
       <use xlink:href="#CMR17-31" transform="scale(0.996264)"/>
       <use xlink:href="#CMR17-37" transform="translate(45.690477 0) scale(0.996264)"/>
       <use xlink:href="#CMMI12-3a" transform="translate(91.380954 0) scale(0.996264)"/>
       <use xlink:href="#CMR17-35" transform="translate(118.478131 0) scale(0.996264)"/>
      </g>
     </g>
    </g>
    <g id="xtick_8">
     <g id="line2d_15">
      <path d="M 316.500153 177.013149 
L 316.500153 10.693149 
" clip-path="url(#p4d3637f83c)" style="fill: none; stroke: #b0b0b0; stroke-width: 0.8; stroke-linecap: square"/>
     </g>
     <g id="line2d_16">
      <g>
       <use xlink:href="#m09a2ba2649" x="316.500153" y="177.013149" style="stroke: #000000; stroke-width: 0.8"/>
      </g>
     </g>
     <g id="text_8">
      <!-- $\mathdefault{20.0}$ -->
      <g transform="translate(307.644445 190.999447) scale(0.1 -0.1)">
       <use xlink:href="#CMR17-32" transform="scale(0.996264)"/>
       <use xlink:href="#CMR17-30" transform="translate(45.690477 0) scale(0.996264)"/>
       <use xlink:href="#CMMI12-3a" transform="translate(91.380954 0) scale(0.996264)"/>
       <use xlink:href="#CMR17-30" transform="translate(118.478131 0) scale(0.996264)"/>
      </g>
     </g>
    </g>
    <g id="text_9">
     <!-- Exogenous utility ratio -->
     <g transform="translate(130.434851 204.336929) scale(0.1 -0.1)">
      <defs>
       <path id="LinBiolinumT-45" d="M 1216 1290 
L 1216 2047 
C 1523 2047 2202 2028 2643 1983 
L 2662 2002 
C 2650 2060 2643 2150 2643 2207 
C 2643 2265 2650 2355 2662 2413 
L 2643 2432 
C 2266 2400 1971 2368 1216 2368 
L 1216 2871 
C 1216 2981 1222 3646 1267 3801 
C 2125 3801 3008 3724 3008 3724 
L 3021 3750 
C 3014 3801 3008 3859 3008 3916 
C 3008 3967 3014 4070 3021 4160 
L 3008 4179 
C 2906 4166 2758 4160 2624 4160 
L 941 4160 
C 723 4160 614 4179 614 4179 
L 602 4160 
C 653 3795 666 3356 666 2871 
L 666 1290 
C 666 805 653 345 602 0 
L 608 -20 
C 608 -20 717 0 941 0 
L 2688 0 
C 2822 0 2970 -7 3072 -20 
L 3085 0 
C 3078 89 3072 134 3072 198 
C 3072 262 3078 358 3085 410 
L 3072 436 
C 3072 436 2125 358 1267 358 
C 1222 513 1216 1180 1216 1290 
z
" transform="scale(0.015625)"/>
       <path id="LinBiolinumT-78" d="M 1181 1327 
L 179 0 
C 242 11 346 18 410 18 
C 474 18 626 11 691 0 
C 936 361 1126 708 1382 1062 
C 1638 708 1828 361 2061 0 
C 2154 13 2285 18 2387 18 
C 2483 18 2653 11 2752 0 
C 2365 493 2053 981 1708 1475 
L 2758 2752 
C 2676 2737 2534 2732 2470 2732 
C 2400 2732 2300 2737 2234 2752 
C 1988 2398 1787 2063 1517 1718 
C 1261 2063 1085 2398 870 2752 
C 759 2737 634 2732 525 2732 
C 422 2732 256 2737 154 2752 
L 1181 1327 
z
" transform="scale(0.015625)"/>
       <path id="LinBiolinumT-6f" d="M 243 1314 
C 243 544 749 -64 1600 -64 
C 2445 -64 2957 532 2957 1372 
C 2957 2245 2490 2816 1626 2816 
C 787 2816 243 2226 243 1314 
z
M 1581 2559 
C 2259 2559 2394 2033 2394 1257 
C 2394 647 2086 192 1658 192 
C 979 192 806 929 806 1424 
C 806 1982 979 2559 1581 2559 
z
" transform="scale(0.015625)"/>
       <path id="LinBiolinumT-67" d="M 646 -666 
C 646 -448 838 -203 1062 -77 
C 1252 -84 1544 -64 1632 -64 
C 1939 -64 2135 -71 2310 -176 
C 2496 -288 2560 -479 2560 -650 
C 2560 -1051 2035 -1261 1485 -1261 
C 1069 -1261 646 -1117 646 -669 
L 646 -666 
z
M 2496 1840 
C 2496 2275 2323 2478 2173 2575 
C 2365 2560 2578 2536 2842 2509 
L 2861 2528 
C 2848 2585 2842 2636 2842 2694 
C 2842 2751 2848 2803 2861 2860 
L 2842 2880 
C 2536 2854 2309 2786 1832 2760 
C 1718 2796 1577 2816 1440 2816 
C 934 2816 352 2478 352 1852 
C 352 1379 627 1164 806 1062 
C 621 934 397 745 397 522 
C 397 256 550 25 895 -34 
C 717 -109 517 -235 352 -367 
C 271 -492 205 -677 205 -801 
C 205 -1318 755 -1536 1434 -1536 
C 2432 -1536 3027 -1115 3027 -498 
C 3027 -209 2938 -7 2758 147 
C 2518 352 2080 358 1856 358 
C 1747 358 1491 345 1344 326 
C 1254 326 1190 320 1158 320 
C 979 320 787 345 787 624 
C 787 753 819 863 960 985 
C 1043 940 1240 895 1434 895 
C 2099 895 2496 1342 2496 1840 
z
M 1997 1833 
C 1997 1450 1837 1152 1453 1152 
C 992 1152 851 1448 851 1884 
C 851 2301 1043 2572 1414 2572 
C 1830 2572 1997 2282 1997 1833 
z
" transform="scale(0.015625)"/>
       <path id="LinBiolinumT-65" d="M 800 1728 
C 909 2414 1329 2559 1530 2559 
C 1783 2559 2067 2315 2067 1820 
C 2067 1761 2042 1728 1978 1728 
L 800 1728 
z
M 2509 659 
C 2285 420 1984 313 1632 313 
C 1413 313 1111 395 934 672 
C 822 848 781 1105 781 1472 
L 2522 1472 
C 2592 1472 2637 1510 2637 1580 
C 2637 2130 2374 2816 1530 2816 
C 870 2816 218 2276 218 1320 
C 218 963 292 610 506 357 
C 726 93 1092 -64 1523 -64 
C 1984 -64 2394 172 2637 502 
L 2509 659 
z
" transform="scale(0.015625)"/>
       <path id="LinBiolinumT-6e" d="M 2944 1165 
C 2944 1368 2957 1604 2957 1808 
C 2957 2470 2739 2816 2163 2816 
C 1920 2816 1466 2719 1056 2240 
L 1043 2260 
L 1043 2726 
C 1042 2776 1036 2790 1005 2790 
C 861 2762 632 2757 486 2771 
L 474 2751 
C 518 2475 531 1992 531 1515 
L 531 1165 
C 531 687 525 362 474 19 
L 486 0 
C 563 12 710 19 787 19 
C 864 19 1011 12 1088 0 
L 1101 19 
C 1050 381 1043 681 1043 1165 
L 1043 1909 
C 1370 2291 1741 2431 1971 2431 
C 2298 2431 2432 2304 2432 1788 
L 2432 1165 
C 2432 687 2420 361 2374 19 
L 2387 0 
C 2464 12 2611 19 2688 19 
C 2765 19 2912 12 2989 0 
L 3002 19 
C 2952 381 2944 681 2944 1165 
z
" transform="scale(0.015625)"/>
       <path id="LinBiolinumT-75" d="M 2336 600 
L 2362 582 
L 2394 18 
C 2394 6 2401 0 2419 0 
C 2504 11 2579 18 2673 18 
C 2752 18 2874 12 2957 0 
L 2970 18 
C 2918 291 2861 759 2861 1233 
L 2861 1594 
C 2861 2068 2867 2397 2918 2732 
L 2906 2752 
C 2829 2739 2682 2732 2605 2732 
C 2528 2732 2381 2739 2304 2752 
L 2291 2732 
C 2341 2371 2349 2074 2349 1594 
L 2349 974 
C 2154 635 1786 294 1472 294 
C 1252 294 1043 364 1043 956 
L 1043 1586 
C 1043 2064 1050 2395 1101 2733 
L 1088 2752 
C 1011 2739 864 2733 787 2733 
C 710 2733 563 2739 486 2752 
L 474 2733 
C 525 2370 531 2070 531 1586 
L 531 822 
C 531 383 736 -64 1370 -64 
C 1766 -64 2125 262 2336 587 
L 2336 600 
z
" transform="scale(0.015625)"/>
       <path id="LinBiolinumT-73" d="M 320 647 
L 211 108 
C 576 -20 934 -64 1178 -64 
C 2061 -64 2266 461 2266 814 
C 2266 1340 1850 1546 1395 1655 
C 1153 1712 800 1834 800 2155 
C 800 2418 1011 2559 1286 2559 
C 1619 2559 1824 2296 1971 2123 
L 2061 2129 
L 2189 2604 
L 2176 2623 
C 1990 2719 1638 2816 1312 2816 
C 838 2816 346 2566 346 2033 
C 346 1520 728 1350 1114 1244 
C 1485 1141 1760 1039 1760 724 
C 1760 384 1510 192 1171 192 
C 864 192 595 403 416 654 
L 320 647 
z
" transform="scale(0.015625)"/>
       <path id="LinBiolinumT-74" d="M 608 2752 
C 477 2752 342 2754 262 2764 
C 219 2659 184 2598 122 2502 
L 154 2457 
C 264 2465 462 2469 608 2470 
L 608 1586 
C 608 1199 589 735 589 541 
C 589 125 858 -64 1152 -64 
C 1421 -64 1626 -3 1894 162 
L 1816 320 
C 1619 252 1472 245 1312 271 
C 1160 295 1101 450 1101 799 
C 1101 993 1120 1270 1120 1657 
L 1120 2470 
L 1363 2470 
C 1517 2470 1740 2465 1824 2457 
C 1843 2559 1862 2625 1901 2719 
L 1869 2764 
C 1754 2759 1568 2752 1421 2752 
L 1120 2752 
C 1120 3230 1124 3315 1152 3686 
C 1152 3732 1134 3750 1094 3750 
C 934 3686 855 3618 646 3590 
L 634 3571 
C 621 3348 608 3123 608 2752 
L 608 2752 
z
" transform="scale(0.015625)"/>
       <path id="LinBiolinumT-69" d="M 512 3833 
C 512 3660 666 3507 838 3507 
C 1011 3507 1165 3660 1165 3833 
C 1165 4006 1011 4160 838 4160 
C 666 4160 512 4006 512 3833 
z
M 576 1502 
L 576 1155 
C 576 681 564 359 518 18 
L 531 0 
C 608 12 755 18 832 18 
C 909 18 1056 12 1133 0 
L 1146 18 
C 1100 377 1088 675 1088 1155 
L 1088 1603 
C 1088 2076 1105 2303 1146 2688 
C 1146 2745 1138 2752 1088 2752 
C 942 2737 667 2734 531 2745 
L 518 2726 
C 558 2456 576 1975 576 1502 
z
" transform="scale(0.015625)"/>
       <path id="LinBiolinumT-6c" d="M 576 1297 
C 576 821 567 361 518 19 
L 531 0 
C 608 12 755 19 832 19 
C 909 19 1056 12 1133 0 
L 1146 19 
C 1096 383 1088 816 1088 1297 
L 1088 3214 
C 1088 3693 1115 4012 1146 4415 
C 1146 4460 1128 4480 1088 4480 
C 928 4415 791 4371 531 4352 
L 518 4332 
C 568 4059 576 3585 576 3099 
L 576 1297 
z
" transform="scale(0.015625)"/>
       <path id="LinBiolinumT-79" d="M 179 2752 
C 434 2182 1194 529 1421 -82 
C 1216 -560 955 -1053 666 -1536 
C 730 -1517 826 -1504 890 -1504 
C 954 -1504 1139 -1517 1203 -1536 
C 1446 -735 2848 2322 3059 2752 
C 2995 2732 2848 2732 2784 2732 
C 2720 2732 2598 2732 2534 2752 
C 2304 2027 2004 1208 1695 544 
L 1682 544 
C 1367 1307 1065 2019 826 2751 
C 742 2732 602 2732 512 2732 
C 429 2732 269 2732 179 2751 
L 179 2752 
z
" transform="scale(0.015625)"/>
       <path id="LinBiolinumT-72" d="M 1069 2145 
L 1069 2726 
C 1069 2776 1061 2790 1030 2790 
C 887 2762 658 2757 512 2771 
L 499 2751 
C 544 2475 557 1992 557 1514 
L 557 1164 
C 557 687 549 361 499 19 
L 512 0 
C 589 12 736 19 813 19 
C 890 19 1037 12 1114 0 
L 1126 19 
C 1079 381 1069 681 1069 1164 
L 1069 1495 
C 1069 1763 1149 1915 1286 2125 
C 1380 2267 1523 2348 1645 2348 
C 1773 2348 1894 2336 1978 2259 
L 2029 2272 
L 2157 2745 
L 2131 2771 
C 2022 2803 2016 2816 1901 2816 
C 1555 2816 1370 2617 1088 2132 
L 1069 2145 
z
" transform="scale(0.015625)"/>
       <path id="LinBiolinumT-61" d="M 1984 1443 
L 1958 679 
C 1958 596 1920 551 1869 512 
C 1690 377 1472 262 1280 262 
C 992 262 806 454 806 653 
C 806 942 941 1160 1440 1295 
L 1984 1443 
z
M 1984 307 
C 2058 57 2249 -64 2483 -64 
C 2644 -64 2842 -26 2993 134 
L 2945 293 
C 2875 268 2821 259 2772 259 
C 2708 259 2624 271 2584 307 
C 2519 366 2478 522 2478 807 
C 2478 994 2496 1706 2496 1777 
C 2496 2643 1926 2816 1440 2816 
C 954 2816 659 2579 499 2444 
L 480 2418 
L 589 1988 
L 672 1982 
C 851 2271 1069 2527 1376 2527 
C 1606 2527 1990 2495 1990 1770 
C 1990 1725 1965 1700 1946 1693 
L 1350 1558 
C 698 1411 288 1064 288 628 
C 288 153 614 -64 1088 -64 
C 1440 -64 1619 19 1958 307 
L 1984 307 
z
" transform="scale(0.015625)"/>
      </defs>
      <use xlink:href="#LinBiolinumT-45" transform="scale(0.996264)"/>
      <use xlink:href="#LinBiolinumT-78" transform="translate(53.599007 0) scale(0.996264)"/>
      <use xlink:href="#LinBiolinumT-6f" transform="translate(98.929004 0) scale(0.996264)"/>
      <use xlink:href="#LinBiolinumT-67" transform="translate(148.742205 0) scale(0.996264)"/>
      <use xlink:href="#LinBiolinumT-65" transform="translate(198.455727 0) scale(0.996264)"/>
      <use xlink:href="#LinBiolinumT-6e" transform="translate(243.58649 0) scale(0.996264)"/>
      <use xlink:href="#LinBiolinumT-6f" transform="translate(297.285068 0) scale(0.996264)"/>
      <use xlink:href="#LinBiolinumT-75" transform="translate(347.098269 0) scale(0.996264)"/>
      <use xlink:href="#LinBiolinumT-73" transform="translate(400.597612 0) scale(0.996264)"/>
      <use xlink:href="#LinBiolinumT-75" transform="translate(464.956258 0) scale(0.996264)"/>
      <use xlink:href="#LinBiolinumT-74" transform="translate(518.455602 0) scale(0.996264)"/>
      <use xlink:href="#LinBiolinumT-69" transform="translate(552.328594 0) scale(0.996264)"/>
      <use xlink:href="#LinBiolinumT-6c" transform="translate(578.231473 0) scale(0.996264)"/>
      <use xlink:href="#LinBiolinumT-69" transform="translate(603.337308 0) scale(0.996264)"/>
      <use xlink:href="#LinBiolinumT-74" transform="translate(629.240188 0) scale(0.996264)"/>
      <use xlink:href="#LinBiolinumT-79" transform="translate(663.113179 0) scale(0.996264)"/>
      <use xlink:href="#LinBiolinumT-72" transform="translate(738.430684 0) scale(0.996264)"/>
      <use xlink:href="#LinBiolinumT-61" transform="translate(773.79801 0) scale(0.996264)"/>
      <use xlink:href="#LinBiolinumT-74" transform="translate(821.7183 0) scale(0.996264)"/>
      <use xlink:href="#LinBiolinumT-69" transform="translate(855.591292 0) scale(0.996264)"/>
      <use xlink:href="#LinBiolinumT-6f" transform="translate(881.494171 0) scale(0.996264)"/>
     </g>
    </g>
   </g>
   <g id="matplotlib.axis_2">
    <g id="ytick_1">
     <g id="line2d_17">
      <path d="M 37.500153 177.013149 
L 316.500153 177.013149 
" clip-path="url(#p4d3637f83c)" style="fill: none; stroke: #b0b0b0; stroke-width: 0.8; stroke-linecap: square"/>
     </g>
     <g id="line2d_18">
      <defs>
       <path id="md3e165bd23" d="M 0 0 
L -3.5 0 
" style="stroke: #000000; stroke-width: 0.8"/>
      </defs>
      <g>
       <use xlink:href="#md3e165bd23" x="37.500153" y="177.013149" style="stroke: #000000; stroke-width: 0.8"/>
      </g>
     </g>
     <g id="text_10">
      <!-- $\mathdefault{0}$ -->
      <g transform="translate(25.518817 180.506298) scale(0.1 -0.1)">
       <use xlink:href="#CMR17-30" transform="scale(0.996264)"/>
      </g>
     </g>
    </g>
    <g id="ytick_2">
     <g id="line2d_19">
      <path d="M 37.500153 143.749149 
L 316.500153 143.749149 
" clip-path="url(#p4d3637f83c)" style="fill: none; stroke: #b0b0b0; stroke-width: 0.8; stroke-linecap: square"/>
     </g>
     <g id="line2d_20">
      <g>
       <use xlink:href="#md3e165bd23" x="37.500153" y="143.749149" style="stroke: #000000; stroke-width: 0.8"/>
      </g>
     </g>
     <g id="text_11">
      <!-- $\mathdefault{5}$ -->
      <g transform="translate(25.518817 147.242298) scale(0.1 -0.1)">
       <use xlink:href="#CMR17-35" transform="scale(0.996264)"/>
      </g>
     </g>
    </g>
    <g id="ytick_3">
     <g id="line2d_21">
      <path d="M 37.500153 110.485149 
L 316.500153 110.485149 
" clip-path="url(#p4d3637f83c)" style="fill: none; stroke: #b0b0b0; stroke-width: 0.8; stroke-linecap: square"/>
     </g>
     <g id="line2d_22">
      <g>
       <use xlink:href="#md3e165bd23" x="37.500153" y="110.485149" style="stroke: #000000; stroke-width: 0.8"/>
      </g>
     </g>
     <g id="text_12">
      <!-- $\mathdefault{10}$ -->
      <g transform="translate(20.537482 113.978298) scale(0.1 -0.1)">
       <use xlink:href="#CMR17-31" transform="scale(0.996264)"/>
       <use xlink:href="#CMR17-30" transform="translate(45.690477 0) scale(0.996264)"/>
      </g>
     </g>
    </g>
    <g id="ytick_4">
     <g id="line2d_23">
      <path d="M 37.500153 77.221149 
L 316.500153 77.221149 
" clip-path="url(#p4d3637f83c)" style="fill: none; stroke: #b0b0b0; stroke-width: 0.8; stroke-linecap: square"/>
     </g>
     <g id="line2d_24">
      <g>
       <use xlink:href="#md3e165bd23" x="37.500153" y="77.221149" style="stroke: #000000; stroke-width: 0.8"/>
      </g>
     </g>
     <g id="text_13">
      <!-- $\mathdefault{15}$ -->
      <g transform="translate(20.537482 80.714298) scale(0.1 -0.1)">
       <use xlink:href="#CMR17-31" transform="scale(0.996264)"/>
       <use xlink:href="#CMR17-35" transform="translate(45.690477 0) scale(0.996264)"/>
      </g>
     </g>
    </g>
    <g id="ytick_5">
     <g id="line2d_25">
      <path d="M 37.500153 43.957149 
L 316.500153 43.957149 
" clip-path="url(#p4d3637f83c)" style="fill: none; stroke: #b0b0b0; stroke-width: 0.8; stroke-linecap: square"/>
     </g>
     <g id="line2d_26">
      <g>
       <use xlink:href="#md3e165bd23" x="37.500153" y="43.957149" style="stroke: #000000; stroke-width: 0.8"/>
      </g>
     </g>
     <g id="text_14">
      <!-- $\mathdefault{20}$ -->
      <g transform="translate(20.537482 47.450298) scale(0.1 -0.1)">
       <use xlink:href="#CMR17-32" transform="scale(0.996264)"/>
       <use xlink:href="#CMR17-30" transform="translate(45.690477 0) scale(0.996264)"/>
      </g>
     </g>
    </g>
    <g id="ytick_6">
     <g id="line2d_27">
      <path d="M 37.500153 10.693149 
L 316.500153 10.693149 
" clip-path="url(#p4d3637f83c)" style="fill: none; stroke: #b0b0b0; stroke-width: 0.8; stroke-linecap: square"/>
     </g>
     <g id="line2d_28">
      <g>
       <use xlink:href="#md3e165bd23" x="37.500153" y="10.693149" style="stroke: #000000; stroke-width: 0.8"/>
      </g>
     </g>
     <g id="text_15">
      <!-- $\mathdefault{25}$ -->
      <g transform="translate(20.537482 14.186298) scale(0.1 -0.1)">
       <use xlink:href="#CMR17-32" transform="scale(0.996264)"/>
       <use xlink:href="#CMR17-35" transform="translate(45.690477 0) scale(0.996264)"/>
      </g>
     </g>
    </g>
    <g id="text_16">
     <!-- Endogenous utility ratio -->
     <g transform="translate(14.186298 143.476973) rotate(-90) scale(0.1 -0.1)">
      <defs>
       <path id="LinBiolinumT-64" d="M 2310 724 
C 2077 426 1783 268 1523 268 
C 1178 268 883 615 883 1417 
C 883 2380 1393 2559 1702 2559 
C 2003 2559 2157 2431 2310 2187 
L 2310 724 
z
M 2310 371 
L 2323 371 
L 2355 0 
C 2355 6 2374 0 2413 0 
C 2497 11 2541 19 2634 19 
C 2714 19 2835 12 2918 0 
L 2931 19 
C 2880 292 2822 764 2822 1241 
L 2822 3207 
C 2822 3683 2848 4018 2880 4415 
C 2880 4460 2862 4480 2822 4480 
C 2662 4415 2525 4370 2266 4351 
L 2253 4332 
C 2303 4057 2310 3580 2310 3092 
L 2310 2675 
C 2163 2758 1901 2816 1773 2816 
C 940 2816 326 2241 326 1375 
C 326 576 794 -64 1485 -64 
C 1792 -64 2080 74 2310 371 
z
" transform="scale(0.015625)"/>
      </defs>
      <use xlink:href="#LinBiolinumT-45" transform="scale(0.996264)"/>
      <use xlink:href="#LinBiolinumT-6e" transform="translate(53.599007 0) scale(0.996264)"/>
      <use xlink:href="#LinBiolinumT-64" transform="translate(107.297585 0) scale(0.996264)"/>
      <use xlink:href="#LinBiolinumT-6f" transform="translate(160.099547 0) scale(0.996264)"/>
      <use xlink:href="#LinBiolinumT-67" transform="translate(209.912748 0) scale(0.996264)"/>
      <use xlink:href="#LinBiolinumT-65" transform="translate(259.62627 0) scale(0.996264)"/>
      <use xlink:href="#LinBiolinumT-6e" transform="translate(304.757033 0) scale(0.996264)"/>
      <use xlink:href="#LinBiolinumT-6f" transform="translate(358.455611 0) scale(0.996264)"/>
      <use xlink:href="#LinBiolinumT-75" transform="translate(408.268812 0) scale(0.996264)"/>
      <use xlink:href="#LinBiolinumT-73" transform="translate(461.768156 0) scale(0.996264)"/>
      <use xlink:href="#LinBiolinumT-75" transform="translate(526.126802 0) scale(0.996264)"/>
      <use xlink:href="#LinBiolinumT-74" transform="translate(579.626146 0) scale(0.996264)"/>
      <use xlink:href="#LinBiolinumT-69" transform="translate(613.499137 0) scale(0.996264)"/>
      <use xlink:href="#LinBiolinumT-6c" transform="translate(639.402017 0) scale(0.996264)"/>
      <use xlink:href="#LinBiolinumT-69" transform="translate(664.507851 0) scale(0.996264)"/>
      <use xlink:href="#LinBiolinumT-74" transform="translate(690.410731 0) scale(0.996264)"/>
      <use xlink:href="#LinBiolinumT-79" transform="translate(724.283722 0) scale(0.996264)"/>
      <use xlink:href="#LinBiolinumT-72" transform="translate(799.601227 0) scale(0.996264)"/>
      <use xlink:href="#LinBiolinumT-61" transform="translate(834.968554 0) scale(0.996264)"/>
      <use xlink:href="#LinBiolinumT-74" transform="translate(882.888843 0) scale(0.996264)"/>
      <use xlink:href="#LinBiolinumT-69" transform="translate(916.761835 0) scale(0.996264)"/>
      <use xlink:href="#LinBiolinumT-6f" transform="translate(942.664714 0) scale(0.996264)"/>
     </g>
    </g>
   </g>
   <g id="line2d_29">
    <path d="M 37.500153 168.786978 
L 38.32612 168.441853 
L 38.451762 167.88755 
L 39.773952 167.246292 
L 39.792596 167.554311 
L 39.886433 167.513518 
L 41.452195 166.817754 
L 41.474714 167.602684 
L 41.565337 167.57102 
L 43.038614 167.045428 
L 43.171907 165.44724 
L 47.381841 163.168228 
L 51.540293 160.662973 
L 55.491131 158.026928 
L 59.271027 155.242492 
L 62.863789 152.325253 
L 63.389933 151.873661 
L 63.496825 158.024692 
L 63.604282 157.968972 
L 69.106653 154.985819 
L 74.360307 151.88152 
L 79.258906 148.73487 
L 83.951705 145.46426 
L 85.694323 144.179756 
L 85.951411 134.462041 
L 89.495607 130.321646 
L 91.881508 127.323462 
L 92.191805 146.660606 
L 98.666647 143.016306 
L 105.136516 139.118203 
L 111.266508 135.163817 
L 117.214438 131.05863 
L 122.710571 127.006197 
L 128.16263 122.715131 
L 133.445854 118.272967 
L 134.244171 117.57565 
L 135.054093 76.280803 
L 138.415046 69.37155 
L 141.983499 61.427381 
L 142.910304 130.473917 
L 153.038102 125.511797 
L 162.45922 120.672206 
L 171.896494 115.592546 
L 181.063259 110.420474 
L 189.609874 105.371962 
L 199.132364 99.470851 
L 207.570681 93.980543 
L 216.857295 87.632828 
L 224.458915 82.181093 
L 232.68041 76.006236 
L 241.600824 68.954224 
L 247.98135 63.66872 
L 254.745212 57.830363 
L 261.928025 51.347648 
L 269.569959 44.107698 
L 277.716486 35.969635 
L 286.41929 26.755324 
L 295.737362 21.318135 
L 316.500153 9.473469 
L 316.500153 9.473469 
" clip-path="url(#p4d3637f83c)" style="fill: none; stroke-dasharray: 9.6,2.4,1.5,2.4; stroke-dashoffset: 0; stroke: #fcab8f; stroke-width: 1.5"/>
   </g>
   <g id="line2d_30">
    <path d="M 37.500153 171.632791 
L 39.773952 171.471675 
L 39.886433 170.73782 
L 41.452195 170.473458 
L 41.565337 169.37696 
L 43.038614 168.951895 
L 43.065133 169.486491 
L 43.171907 169.461417 
L 49.504792 167.858685 
L 56.636176 165.824275 
L 63.389933 163.6922 
L 63.604282 161.611439 
L 69.526741 159.005852 
L 75.057845 156.338486 
L 80.309676 153.569695 
L 85.43932 150.613636 
L 85.694323 150.459604 
L 85.951411 159.621578 
L 91.881508 157.832341 
L 92.191805 152.465957 
L 99.419213 149.163033 
L 106.47449 145.686368 
L 112.813036 142.326279 
L 118.978029 138.819349 
L 124.687653 135.338644 
L 130.363789 131.632398 
L 134.244171 128.943908 
L 135.054093 154.573175 
L 141.983499 153.093046 
L 142.910304 139.3752 
L 154.145631 134.911324 
L 165.031418 130.347655 
L 174.831759 126.022014 
L 184.374602 121.596995 
L 193.292715 117.257418 
L 203.25292 112.159394 
L 212.100153 107.391327 
L 221.859718 101.84843 
L 229.866419 97.061842 
L 238.54427 91.611018 
L 247.98135 85.347436 
L 254.745212 80.625747 
L 261.928025 75.382942 
L 269.569959 69.527735 
L 277.716486 62.94619 
L 286.41929 55.494246 
L 295.737362 51.096996 
L 316.500153 41.517789 
L 316.500153 41.517789 
" clip-path="url(#p4d3637f83c)" style="fill: none; stroke-dasharray: 5.55,2.4; stroke-dashoffset: 0; stroke: #b7d4ea; stroke-width: 1.5"/>
   </g>
   <g id="line2d_31">
    <path d="M 37.500153 168.59737 
L 40.885199 166.633785 
L 44.156539 164.481375 
L 47.265153 162.17041 
L 49.926506 159.952394 
L 49.974187 164.147575 
L 50.070055 164.097073 
L 54.485904 161.641934 
L 58.67837 159.055681 
L 62.657132 156.336761 
L 64.824895 154.732753 
L 64.939492 148.189389 
L 67.759344 144.813848 
L 68.830767 143.435812 
L 68.968298 156.533736 
L 74.360307 153.432496 
L 79.465976 150.240765 
L 84.194713 147.035261 
L 88.924668 143.558463 
L 93.461385 139.937001 
L 97.205021 136.711062 
L 97.565121 109.020287 
L 100.186861 103.529221 
L 102.175024 99.021077 
L 102.584981 145.671627 
L 110.762742 141.593259 
L 118.978029 137.243606 
L 126.744573 132.877365 
L 134.244171 128.405087 
L 141.07089 124.095684 
L 147.769318 119.627048 
L 154.145631 115.133345 
L 161.2077 109.858813 
L 167.700153 104.708679 
L 173.349819 99.971277 
L 179.457974 94.557988 
L 184.374602 89.962562 
L 189.609874 84.816538 
L 195.195805 79.014675 
L 197.141864 76.912842 
L 199.132364 74.944711 
L 316.500153 7.001256 
L 316.500153 7.001256 
" clip-path="url(#p4d3637f83c)" style="fill: none; stroke-dasharray: 9.6,2.4,1.5,2.4; stroke-dashoffset: 0; stroke: #f14432; stroke-width: 1.5"/>
   </g>
   <g id="line2d_32">
    <path d="M 37.500153 171.754011 
L 42.985784 170.305596 
L 48.9625 168.497853 
L 49.926506 168.184412 
L 50.070055 166.802797 
L 54.88048 164.678364 
L 59.443973 162.420664 
L 63.712308 160.060038 
L 64.824895 159.400162 
L 64.939492 165.503039 
L 68.830767 164.33845 
L 68.968298 160.823866 
L 74.881696 158.124033 
L 80.524543 155.299215 
L 85.694323 152.468172 
L 90.66759 149.494646 
L 95.455339 146.36805 
L 97.205021 145.153744 
L 97.565121 162.190429 
L 102.175024 161.214083 
L 102.584981 152.237205 
L 111.776077 148.600245 
L 120.80877 144.779367 
L 128.88627 141.134595 
L 136.70978 137.378908 
L 144.807845 133.234564 
L 151.949096 129.341815 
L 158.770773 125.394735 
L 165.031418 121.557829 
L 171.896494 117.09263 
L 177.884931 112.95716 
L 184.374602 108.198353 
L 189.609874 104.130343 
L 195.195805 99.543884 
L 199.132364 96.326516 
L 316.500153 42.616194 
L 316.500153 42.616194 
" clip-path="url(#p4d3637f83c)" style="fill: none; stroke-dasharray: 5.55,2.4; stroke-dashoffset: 0; stroke: #4a98c9; stroke-width: 1.5"/>
   </g>
   <g id="line2d_33">
    <path d="M 37.500153 170.360349 
L 40.573509 168.622099 
L 43.38887 166.777704 
L 43.836973 166.458336 
L 43.952065 163.293803 
L 45.877609 161.057131 
L 45.912102 167.312048 
L 46.016205 167.257599 
L 49.831644 165.134888 
L 53.418897 162.885497 
L 56.710411 160.564414 
L 59.794834 158.124002 
L 60.062422 157.898649 
L 60.242977 144.739939 
L 62.149703 140.867066 
L 62.452598 140.203181 
L 62.554602 162.249406 
L 62.657132 162.202481 
L 68.694054 159.313932 
L 74.360307 156.357897 
L 79.674571 153.340967 
L 84.686572 150.249979 
L 89.495607 147.030592 
L 94.113761 143.674742 
L 98.666647 140.079461 
L 102.999196 136.358552 
L 106.930198 132.696493 
L 111.266508 128.555138 
L 316.500153 16.117029 
L 316.500153 16.117029 
" clip-path="url(#p4d3637f83c)" style="fill: none; stroke-dasharray: 9.6,2.4,1.5,2.4; stroke-dashoffset: 0; stroke: #980c13; stroke-width: 1.5"/>
   </g>
   <g id="line2d_34">
    <path d="M 37.500153 170.360349 
L 40.573509 168.622099 
L 43.38887 166.777704 
L 43.836973 166.458336 
L 43.865628 170.127598 
L 43.952065 170.097308 
L 45.877609 169.406359 
L 46.016205 167.257599 
L 49.831644 165.134888 
L 53.418897 162.885497 
L 56.710411 160.564414 
L 59.794834 158.124002 
L 60.062422 157.898649 
L 60.152481 168.150032 
L 60.242977 168.12732 
L 62.452598 167.567042 
L 62.657132 162.202481 
L 68.694054 159.313932 
L 74.360307 156.357897 
L 79.674571 153.340967 
L 84.686572 150.249979 
L 89.495607 147.030592 
L 94.113761 143.674742 
L 98.666647 140.079461 
L 102.999196 136.358552 
L 106.930198 132.696493 
L 111.266508 128.555138 
L 316.500153 16.117029 
L 316.500153 16.117029 
" clip-path="url(#p4d3637f83c)" style="fill: none; stroke-dasharray: 5.55,2.4; stroke-dashoffset: 0; stroke: #084a91; stroke-width: 1.5"/>
   </g>
   <g id="line2d_35">
    <path d="M 37.500153 170.360349 
L 316.500153 43.957149 
" clip-path="url(#p4d3637f83c)" style="fill: none; stroke-dasharray: 5.55,2.4; stroke-dashoffset: 0; stroke: #000000; stroke-width: 1.5"/>
   </g>
   <g id="patch_3">
    <path d="M 37.500153 177.013149 
L 37.500153 10.693149 
" style="fill: none; stroke: #000000; stroke-width: 0.8; stroke-linejoin: miter; stroke-linecap: square"/>
   </g>
   <g id="patch_4">
    <path d="M 316.500153 177.013149 
L 316.500153 10.693149 
" style="fill: none; stroke: #000000; stroke-width: 0.8; stroke-linejoin: miter; stroke-linecap: square"/>
   </g>
   <g id="patch_5">
    <path d="M 37.500153 177.013149 
L 316.500153 177.013149 
" style="fill: none; stroke: #000000; stroke-width: 0.8; stroke-linejoin: miter; stroke-linecap: square"/>
   </g>
   <g id="patch_6">
    <path d="M 37.500153 10.693149 
L 316.500153 10.693149 
" style="fill: none; stroke: #000000; stroke-width: 0.8; stroke-linejoin: miter; stroke-linecap: square"/>
   </g>
   <g id="legend_1">
    <g id="patch_7">
     <path d="M 337.450153 119.151435 
L 456.529322 119.151435 
Q 458.529322 119.151435 458.529322 117.151435 
L 458.529322 17.693149 
Q 458.529322 15.693149 456.529322 15.693149 
L 337.450153 15.693149 
Q 335.450153 15.693149 335.450153 17.693149 
L 335.450153 117.151435 
Q 335.450153 119.151435 337.450153 119.151435 
z
" style="fill: #ffffff; opacity: 0.8; stroke: #cccccc; stroke-linejoin: miter"/>
    </g>
    <g id="line2d_36">
     <path d="M 339.450153 23.193149 
L 349.450153 23.193149 
L 359.450153 23.193149 
" style="fill: none; stroke-dasharray: 5.55,2.4; stroke-dashoffset: 0; stroke: #000000; stroke-width: 1.5"/>
    </g>
    <g id="text_17">
     <!-- Break-even -->
     <g transform="translate(367.450153 26.693149) scale(0.1 -0.1)">
      <defs>
       <path id="LinBiolinumT-42" d="M 1216 3590 
C 1216 3802 1280 3884 1798 3884 
C 2157 3884 2611 3743 2611 3091 
C 2611 2547 2246 2387 1715 2387 
L 1216 2387 
L 1216 3590 
z
M 1216 2112 
L 1811 2112 
C 2560 2112 2912 1646 2912 1072 
C 2912 632 2760 275 1837 275 
C 1389 275 1216 370 1216 581 
L 1216 2112 
z
M 941 4140 
C 723 4140 614 4160 614 4160 
L 602 4140 
C 653 3775 666 3340 666 2860 
L 666 1295 
C 666 817 653 364 602 19 
L 608 0 
C 608 0 717 19 941 19 
C 1338 19 1389 0 1958 0 
C 3232 0 3546 645 3546 1193 
C 3546 1805 3130 2156 2573 2316 
C 2899 2476 3168 2815 3168 3167 
C 3168 3596 2944 4160 1754 4160 
C 1530 4160 1261 4140 941 4140 
z
" transform="scale(0.015625)"/>
       <path id="LinBiolinumT-6b" d="M 576 1280 
C 576 811 567 357 518 18 
L 531 0 
C 608 12 755 18 832 18 
C 909 18 1056 12 1133 0 
L 1146 18 
C 1096 378 1088 806 1088 1280 
L 1088 1344 
C 1140 1342 1295 1323 1350 1274 
C 1766 845 1920 618 2355 0 
C 2452 11 2669 18 2778 18 
C 2885 18 3104 11 3162 0 
L 3174 18 
C 2698 514 2358 793 1747 1523 
C 1999 1783 2624 2384 3040 2732 
L 3027 2752 
C 2906 2732 2554 2732 2381 2732 
C 2104 2337 1623 1824 1370 1631 
C 1288 1568 1171 1543 1088 1537 
L 1088 3193 
C 1088 3680 1115 4004 1146 4415 
C 1146 4460 1128 4480 1088 4480 
C 928 4415 791 4369 531 4350 
L 518 4330 
C 568 4053 576 3570 576 3076 
L 576 1280 
z
" transform="scale(0.015625)"/>
       <path id="LinBiolinumT-2d" d="M 1754 1510 
C 1837 1510 1926 1670 1926 1740 
C 1926 1798 1901 1856 1837 1856 
L 371 1856 
C 294 1856 211 1721 211 1619 
C 211 1561 250 1510 307 1510 
L 1754 1510 
z
" transform="scale(0.015625)"/>
       <path id="LinBiolinumT-76" d="M 1293 0 
C 1357 18 1427 18 1491 18 
C 1555 18 1626 18 1683 0 
C 2016 923 2413 1821 2829 2752 
C 2771 2732 2650 2732 2586 2732 
C 2522 2732 2426 2732 2368 2752 
C 2109 2037 1887 1209 1592 589 
L 1580 589 
C 1260 1313 1051 2026 819 2752 
C 736 2732 589 2732 499 2732 
C 397 2732 230 2732 128 2752 
C 557 1821 934 923 1293 0 
z
" transform="scale(0.015625)"/>
      </defs>
      <use xlink:href="#LinBiolinumT-42" transform="scale(0.996264)"/>
      <use xlink:href="#LinBiolinumT-72" transform="translate(61.369869 0) scale(0.996264)"/>
      <use xlink:href="#LinBiolinumT-65" transform="translate(95.940136 0) scale(0.996264)"/>
      <use xlink:href="#LinBiolinumT-61" transform="translate(141.070899 0) scale(0.996264)"/>
      <use xlink:href="#LinBiolinumT-6b" transform="translate(188.991188 0) scale(0.996264)"/>
      <use xlink:href="#LinBiolinumT-2d" transform="translate(239.103286 0) scale(0.996264)"/>
      <use xlink:href="#LinBiolinumT-65" transform="translate(272.278896 0) scale(0.996264)"/>
      <use xlink:href="#LinBiolinumT-76" transform="translate(316.712277 0) scale(0.996264)"/>
      <use xlink:href="#LinBiolinumT-65" transform="translate(361.942596 0) scale(0.996264)"/>
      <use xlink:href="#LinBiolinumT-6e" transform="translate(407.073359 0) scale(0.996264)"/>
     </g>
    </g>
    <g id="line2d_37">
     <path d="M 339.450153 37.544333 
L 349.450153 37.544333 
L 359.450153 37.544333 
" style="fill: none; stroke-dasharray: 9.6,2.4,1.5,2.4; stroke-dashoffset: 0; stroke: #fcab8f; stroke-width: 1.5"/>
    </g>
    <g id="text_18">
     <!-- Upper bound $g_0$=0.25 -->
     <g transform="translate(367.450153 41.044333) scale(0.1 -0.1)">
      <defs>
       <path id="LinBiolinumT-55" d="M 3482 2856 
L 3482 1777 
C 3482 1058 3373 294 2291 294 
C 1216 294 1216 1379 1216 1726 
L 1216 2856 
C 1216 3337 1229 3800 1280 4140 
L 1267 4160 
C 1190 4146 1018 4140 941 4140 
C 864 4140 691 4146 614 4160 
L 602 4140 
C 653 3774 666 3337 666 2856 
L 666 1514 
C 666 204 1581 -64 2157 -64 
C 3469 -64 3827 750 3827 1893 
L 3827 2856 
C 3827 3337 3840 3800 3891 4140 
L 3878 4160 
C 3802 4146 3731 4140 3654 4140 
C 3578 4140 3507 4146 3430 4160 
L 3418 4140 
C 3469 3774 3482 3337 3482 2856 
z
" transform="scale(0.015625)"/>
       <path id="LinBiolinumT-70" d="M 1037 1886 
C 1178 2226 1555 2521 1805 2521 
C 2240 2521 2464 2123 2464 1398 
C 2464 872 2317 192 1632 192 
C 1530 192 1261 217 1037 480 
L 1037 1886 
z
M 1037 2258 
L 1037 2726 
C 1037 2776 1029 2790 998 2790 
C 855 2762 626 2757 480 2771 
L 467 2751 
C 512 2475 525 1989 525 1507 
L 525 -208 
C 525 -695 513 -1165 467 -1517 
L 480 -1536 
C 557 -1523 704 -1517 781 -1517 
C 858 -1517 1005 -1523 1082 -1536 
L 1094 -1517 
C 1048 -1144 1037 -700 1037 -208 
L 1037 76 
C 1203 -13 1440 -64 1670 -64 
C 2515 -64 3027 577 3027 1482 
C 3027 2162 2630 2816 1914 2816 
C 1664 2816 1344 2687 1050 2239 
L 1037 2258 
z
" transform="scale(0.015625)"/>
       <path id="LinBiolinumT-62" d="M 1037 519 
L 1037 2181 
C 1286 2437 1446 2559 1709 2559 
C 2099 2559 2445 2237 2445 1436 
C 2445 641 2208 192 1600 192 
C 1402 192 1165 358 1037 519 
z
M 1037 3207 
C 1037 3683 1044 4022 1075 4415 
C 1075 4460 1057 4480 1018 4480 
C 858 4415 721 4370 461 4351 
L 448 4332 
C 498 4057 525 3580 525 3092 
L 525 467 
C 525 217 520 126 493 -13 
C 531 -52 605 -64 672 -64 
C 742 12 817 121 883 249 
C 1069 89 1363 -64 1638 -64 
C 2291 -64 3014 397 3014 1488 
C 3014 2271 2458 2816 1837 2816 
C 1530 2816 1254 2732 1037 2495 
L 1037 3207 
z
" transform="scale(0.015625)"/>
       <path id="CMMI12-67" d="M 2163 811 
C 2138 708 2125 683 2042 587 
C 1779 249 1510 128 1312 128 
C 1101 128 902 293 902 734 
C 902 1072 1094 1787 1235 2075 
C 1421 2432 1709 2687 1978 2687 
C 2400 2687 2483 2164 2483 2126 
L 2464 2036 
L 2163 811 
z
M 2560 2394 
C 2477 2579 2298 2816 1978 2816 
C 1280 2816 486 1941 486 989 
C 486 325 890 0 1299 0 
C 1638 0 1939 268 2054 396 
L 1914 -176 
C 1824 -520 1786 -677 1555 -896 
C 1293 -1152 1050 -1152 909 -1152 
C 717 -1152 557 -1140 397 -1090 
C 602 -1034 653 -858 653 -789 
C 653 -689 576 -589 435 -589 
C 282 -589 115 -714 115 -921 
C 115 -1178 378 -1280 922 -1280 
C 1747 -1280 2176 -758 2259 -420 
L 2970 2426 
C 2989 2502 2989 2515 2989 2528 
C 2989 2617 2918 2688 2822 2688 
C 2669 2688 2579 2560 2560 2388 
L 2560 2394 
z
" transform="scale(0.015625)"/>
       <path id="LinBiolinumT-3d" d="M 2950 2041 
L 422 2041 
L 422 1728 
L 2950 1728 
L 2950 2041 
z
M 2950 1216 
L 422 1216 
L 422 902 
L 2950 902 
L 2950 1216 
z
" transform="scale(0.015625)"/>
       <path id="LinBiolinumT-30" d="M 1491 3654 
C 1600 3654 1702 3616 1773 3552 
C 1971 3385 2144 2886 2144 2028 
C 2144 1440 2125 1107 2035 780 
C 1894 249 1581 185 1466 185 
C 870 185 800 1280 800 1836 
C 800 3417 1197 3654 1491 3654 
z
M 1459 -64 
C 1952 -64 2694 480 2694 1977 
C 2694 2976 2330 3469 2099 3679 
C 1926 3839 1722 3904 1491 3904 
C 851 3904 250 3110 250 1849 
C 250 812 666 -64 1459 -64 
z
" transform="scale(0.015625)"/>
       <path id="LinBiolinumT-2e" d="M 346 281 
C 402 67 492 -20 691 -64 
L 717 -64 
C 897 -20 997 75 1062 281 
L 1062 307 
C 1004 487 902 586 717 652 
L 691 652 
C 498 574 404 477 346 307 
L 346 281 
z
" transform="scale(0.015625)"/>
       <path id="LinBiolinumT-32" d="M 1421 3539 
C 1756 3539 2098 3235 2098 2789 
C 2098 2521 2021 2180 1855 1930 
C 1395 1243 663 600 348 300 
C 340 276 337 249 337 220 
C 337 124 369 23 402 -33 
C 874 -20 1146 0 1613 0 
C 2074 0 2268 -13 2725 -33 
C 2715 34 2705 110 2705 179 
C 2705 282 2712 382 2737 480 
C 2376 448 2180 428 1565 428 
C 1341 428 1219 428 1043 416 
C 1038 426 1036 435 1036 448 
C 1036 508 1101 576 1148 621 
C 1459 922 1760 1211 2184 1782 
C 2419 2102 2648 2514 2648 2877 
C 2648 3479 2240 3904 1526 3904 
C 943 3904 570 3577 424 3387 
L 562 2950 
L 646 2943 
C 735 3133 765 3265 928 3393 
C 1056 3494 1242 3539 1421 3539 
L 1421 3539 
z
" transform="scale(0.015625)"/>
       <path id="LinBiolinumT-35" d="M 1293 -64 
C 2054 -64 2598 499 2598 1254 
C 2598 1875 2182 2432 1466 2432 
C 1203 2432 909 2387 768 2336 
L 902 3468 
C 1139 3436 1414 3411 1715 3411 
C 1907 3411 2125 3417 2387 3449 
L 2490 3884 
L 2445 3904 
C 2080 3859 1734 3840 1395 3840 
C 1158 3840 883 3859 666 3878 
L 461 1994 
L 506 1977 
C 762 2080 1001 2176 1299 2176 
C 1715 2176 2035 1843 2035 1145 
C 2035 556 1741 192 1306 192 
C 826 192 742 448 531 832 
L 442 825 
L 301 313 
L 326 294 
C 486 153 806 -64 1293 -64 
z
" transform="scale(0.015625)"/>
      </defs>
      <use xlink:href="#LinBiolinumT-55" transform="scale(0.996264)"/>
      <use xlink:href="#LinBiolinumT-70" transform="translate(68.941497 0) scale(0.996264)"/>
      <use xlink:href="#LinBiolinumT-70" transform="translate(121.046077 0) scale(0.996264)"/>
      <use xlink:href="#LinBiolinumT-65" transform="translate(173.848039 0) scale(0.996264)"/>
      <use xlink:href="#LinBiolinumT-72" transform="translate(218.978802 0) scale(0.996264)"/>
      <use xlink:href="#LinBiolinumT-62" transform="translate(279.252729 0) scale(0.996264)"/>
      <use xlink:href="#LinBiolinumT-6f" transform="translate(330.460678 0) scale(0.996264)"/>
      <use xlink:href="#LinBiolinumT-75" transform="translate(380.273878 0) scale(0.996264)"/>
      <use xlink:href="#LinBiolinumT-6e" transform="translate(433.773222 0) scale(0.996264)"/>
      <use xlink:href="#LinBiolinumT-64" transform="translate(487.471801 0) scale(0.996264)"/>
      <use xlink:href="#CMMI12-67" transform="translate(565.180363 0) scale(0.996264)"/>
      <use xlink:href="#CMR17-30" transform="translate(611.89126 -14.943915) scale(0.697382)"/>
      <use xlink:href="#LinBiolinumT-3d" transform="translate(644.372574 0) scale(0.996264)"/>
      <use xlink:href="#LinBiolinumT-30" transform="translate(696.87573 0) scale(0.996264)"/>
      <use xlink:href="#LinBiolinumT-2e" transform="translate(743.202021 0) scale(0.996264)"/>
      <use xlink:href="#LinBiolinumT-32" transform="translate(765.119845 0) scale(0.996264)"/>
      <use xlink:href="#LinBiolinumT-35" transform="translate(811.446136 0) scale(0.996264)"/>
     </g>
    </g>
    <g id="line2d_38">
     <path d="M 339.450153 51.895517 
L 349.450153 51.895517 
L 359.450153 51.895517 
" style="fill: none; stroke-dasharray: 9.6,2.4,1.5,2.4; stroke-dashoffset: 0; stroke: #f14432; stroke-width: 1.5"/>
    </g>
    <g id="text_19">
     <!-- Upper bound $g_0$=0.50 -->
     <g transform="translate(367.450153 55.395517) scale(0.1 -0.1)">
      <use xlink:href="#LinBiolinumT-55" transform="scale(0.996264)"/>
      <use xlink:href="#LinBiolinumT-70" transform="translate(68.941497 0) scale(0.996264)"/>
      <use xlink:href="#LinBiolinumT-70" transform="translate(121.046077 0) scale(0.996264)"/>
      <use xlink:href="#LinBiolinumT-65" transform="translate(173.848039 0) scale(0.996264)"/>
      <use xlink:href="#LinBiolinumT-72" transform="translate(218.978802 0) scale(0.996264)"/>
      <use xlink:href="#LinBiolinumT-62" transform="translate(279.252729 0) scale(0.996264)"/>
      <use xlink:href="#LinBiolinumT-6f" transform="translate(330.460678 0) scale(0.996264)"/>
      <use xlink:href="#LinBiolinumT-75" transform="translate(380.273878 0) scale(0.996264)"/>
      <use xlink:href="#LinBiolinumT-6e" transform="translate(433.773222 0) scale(0.996264)"/>
      <use xlink:href="#LinBiolinumT-64" transform="translate(487.471801 0) scale(0.996264)"/>
      <use xlink:href="#CMMI12-67" transform="translate(565.180363 0) scale(0.996264)"/>
      <use xlink:href="#CMR17-30" transform="translate(611.89126 -14.943915) scale(0.697382)"/>
      <use xlink:href="#LinBiolinumT-3d" transform="translate(644.372574 0) scale(0.996264)"/>
      <use xlink:href="#LinBiolinumT-30" transform="translate(696.87573 0) scale(0.996264)"/>
      <use xlink:href="#LinBiolinumT-2e" transform="translate(743.202021 0) scale(0.996264)"/>
      <use xlink:href="#LinBiolinumT-35" transform="translate(765.119845 0) scale(0.996264)"/>
      <use xlink:href="#LinBiolinumT-30" transform="translate(811.446136 0) scale(0.996264)"/>
     </g>
    </g>
    <g id="line2d_39">
     <path d="M 339.450153 66.2467 
L 349.450153 66.2467 
L 359.450153 66.2467 
" style="fill: none; stroke-dasharray: 9.6,2.4,1.5,2.4; stroke-dashoffset: 0; stroke: #980c13; stroke-width: 1.5"/>
    </g>
    <g id="text_20">
     <!-- Upper bound $g_0$=0.75 -->
     <g transform="translate(367.450153 69.7467) scale(0.1 -0.1)">
      <defs>
       <path id="LinBiolinumT-37" d="M 2208 3359 
C 1709 2131 1222 928 794 -26 
L 813 -64 
L 1280 -39 
C 1645 1043 1997 2099 2714 3840 
L 2605 3904 
C 2509 3872 2394 3840 2195 3840 
C 1242 3859 678 3865 403 3904 
C 416 3808 435 3731 435 3635 
C 435 3539 416 3417 403 3321 
C 870 3389 1789 3392 2208 3379 
L 2208 3359 
z
" transform="scale(0.015625)"/>
      </defs>
      <use xlink:href="#LinBiolinumT-55" transform="scale(0.996264)"/>
      <use xlink:href="#LinBiolinumT-70" transform="translate(68.941497 0) scale(0.996264)"/>
      <use xlink:href="#LinBiolinumT-70" transform="translate(121.046077 0) scale(0.996264)"/>
      <use xlink:href="#LinBiolinumT-65" transform="translate(173.848039 0) scale(0.996264)"/>
      <use xlink:href="#LinBiolinumT-72" transform="translate(218.978802 0) scale(0.996264)"/>
      <use xlink:href="#LinBiolinumT-62" transform="translate(279.252729 0) scale(0.996264)"/>
      <use xlink:href="#LinBiolinumT-6f" transform="translate(330.460678 0) scale(0.996264)"/>
      <use xlink:href="#LinBiolinumT-75" transform="translate(380.273878 0) scale(0.996264)"/>
      <use xlink:href="#LinBiolinumT-6e" transform="translate(433.773222 0) scale(0.996264)"/>
      <use xlink:href="#LinBiolinumT-64" transform="translate(487.471801 0) scale(0.996264)"/>
      <use xlink:href="#CMMI12-67" transform="translate(565.180363 0) scale(0.996264)"/>
      <use xlink:href="#CMR17-30" transform="translate(611.89126 -14.943915) scale(0.697382)"/>
      <use xlink:href="#LinBiolinumT-3d" transform="translate(644.372574 0) scale(0.996264)"/>
      <use xlink:href="#LinBiolinumT-30" transform="translate(696.87573 0) scale(0.996264)"/>
      <use xlink:href="#LinBiolinumT-2e" transform="translate(743.202021 0) scale(0.996264)"/>
      <use xlink:href="#LinBiolinumT-37" transform="translate(765.119845 0) scale(0.996264)"/>
      <use xlink:href="#LinBiolinumT-35" transform="translate(811.446136 0) scale(0.996264)"/>
     </g>
    </g>
    <g id="line2d_40">
     <path d="M 339.450153 80.597884 
L 349.450153 80.597884 
L 359.450153 80.597884 
" style="fill: none; stroke-dasharray: 5.55,2.4; stroke-dashoffset: 0; stroke: #b7d4ea; stroke-width: 1.5"/>
    </g>
    <g id="text_21">
     <!-- Lower bound $g_0$=0.25 -->
     <g transform="translate(367.450153 84.097884) scale(0.1 -0.1)">
      <defs>
       <path id="LinBiolinumT-4c" d="M 1222 2856 
C 1222 3338 1235 3800 1286 4140 
L 1280 4160 
C 1203 4147 1024 4140 947 4140 
C 870 4140 698 4147 621 4160 
L 608 4140 
C 659 3774 672 3338 672 2856 
L 672 1283 
C 672 801 659 345 608 0 
L 614 -20 
C 614 -20 730 0 947 0 
L 2694 0 
C 2829 0 2976 -7 3078 -20 
L 3091 0 
C 3085 89 3078 217 3078 281 
C 3078 345 3085 454 3091 506 
L 3078 531 
C 3078 531 2131 390 1274 390 
C 1229 544 1222 1173 1222 1283 
L 1222 2856 
z
" transform="scale(0.015625)"/>
       <path id="LinBiolinumT-77" d="M 1312 -26 
C 1376 -7 1459 -7 1523 -7 
C 1587 -7 1696 -7 1754 -26 
C 1929 467 2115 990 2321 1490 
C 2513 993 2717 477 2899 -20 
C 2963 0 3002 0 3066 0 
C 3130 0 3245 0 3302 -20 
C 3616 735 4128 1956 4493 2752 
C 4435 2732 4282 2732 4218 2732 
C 4154 2732 4058 2732 4000 2752 
C 3763 2001 3475 1186 3212 577 
L 3160 577 
C 2893 1275 2694 2077 2547 2752 
C 2464 2732 2317 2732 2227 2732 
C 2125 2732 1958 2732 1856 2752 
C 1944 2491 2045 2211 2156 1921 
C 1984 1441 1810 964 1624 570 
L 1586 570 
C 1266 1298 1052 2016 819 2745 
C 736 2726 589 2726 499 2726 
C 397 2726 230 2726 128 2745 
C 557 1810 954 906 1312 -26 
z
" transform="scale(0.015625)"/>
      </defs>
      <use xlink:href="#LinBiolinumT-4c" transform="scale(0.996264)"/>
      <use xlink:href="#LinBiolinumT-6f" transform="translate(51.307627 0) scale(0.996264)"/>
      <use xlink:href="#LinBiolinumT-77" transform="translate(100.423446 0) scale(0.996264)"/>
      <use xlink:href="#LinBiolinumT-65" transform="translate(171.556659 0) scale(0.996264)"/>
      <use xlink:href="#LinBiolinumT-72" transform="translate(216.687422 0) scale(0.996264)"/>
      <use xlink:href="#LinBiolinumT-62" transform="translate(276.961349 0) scale(0.996264)"/>
      <use xlink:href="#LinBiolinumT-6f" transform="translate(328.169298 0) scale(0.996264)"/>
      <use xlink:href="#LinBiolinumT-75" transform="translate(377.982498 0) scale(0.996264)"/>
      <use xlink:href="#LinBiolinumT-6e" transform="translate(431.481842 0) scale(0.996264)"/>
      <use xlink:href="#LinBiolinumT-64" transform="translate(485.180421 0) scale(0.996264)"/>
      <use xlink:href="#CMMI12-67" transform="translate(562.888983 0) scale(0.996264)"/>
      <use xlink:href="#CMR17-30" transform="translate(609.59988 -14.943915) scale(0.697382)"/>
      <use xlink:href="#LinBiolinumT-3d" transform="translate(642.081194 0) scale(0.996264)"/>
      <use xlink:href="#LinBiolinumT-30" transform="translate(694.58435 0) scale(0.996264)"/>
      <use xlink:href="#LinBiolinumT-2e" transform="translate(740.910641 0) scale(0.996264)"/>
      <use xlink:href="#LinBiolinumT-32" transform="translate(762.828465 0) scale(0.996264)"/>
      <use xlink:href="#LinBiolinumT-35" transform="translate(809.154757 0) scale(0.996264)"/>
     </g>
    </g>
    <g id="line2d_41">
     <path d="M 339.450153 94.949068 
L 349.450153 94.949068 
L 359.450153 94.949068 
" style="fill: none; stroke-dasharray: 5.55,2.4; stroke-dashoffset: 0; stroke: #4a98c9; stroke-width: 1.5"/>
    </g>
    <g id="text_22">
     <!-- Lower bound $g_0$=0.50 -->
     <g transform="translate(367.450153 98.449068) scale(0.1 -0.1)">
      <use xlink:href="#LinBiolinumT-4c" transform="scale(0.996264)"/>
      <use xlink:href="#LinBiolinumT-6f" transform="translate(51.307627 0) scale(0.996264)"/>
      <use xlink:href="#LinBiolinumT-77" transform="translate(100.423446 0) scale(0.996264)"/>
      <use xlink:href="#LinBiolinumT-65" transform="translate(171.556659 0) scale(0.996264)"/>
      <use xlink:href="#LinBiolinumT-72" transform="translate(216.687422 0) scale(0.996264)"/>
      <use xlink:href="#LinBiolinumT-62" transform="translate(276.961349 0) scale(0.996264)"/>
      <use xlink:href="#LinBiolinumT-6f" transform="translate(328.169298 0) scale(0.996264)"/>
      <use xlink:href="#LinBiolinumT-75" transform="translate(377.982498 0) scale(0.996264)"/>
      <use xlink:href="#LinBiolinumT-6e" transform="translate(431.481842 0) scale(0.996264)"/>
      <use xlink:href="#LinBiolinumT-64" transform="translate(485.180421 0) scale(0.996264)"/>
      <use xlink:href="#CMMI12-67" transform="translate(562.888983 0) scale(0.996264)"/>
      <use xlink:href="#CMR17-30" transform="translate(609.59988 -14.943915) scale(0.697382)"/>
      <use xlink:href="#LinBiolinumT-3d" transform="translate(642.081194 0) scale(0.996264)"/>
      <use xlink:href="#LinBiolinumT-30" transform="translate(694.58435 0) scale(0.996264)"/>
      <use xlink:href="#LinBiolinumT-2e" transform="translate(740.910641 0) scale(0.996264)"/>
      <use xlink:href="#LinBiolinumT-35" transform="translate(762.828465 0) scale(0.996264)"/>
      <use xlink:href="#LinBiolinumT-30" transform="translate(809.154757 0) scale(0.996264)"/>
     </g>
    </g>
    <g id="line2d_42">
     <path d="M 339.450153 109.300251 
L 349.450153 109.300251 
L 359.450153 109.300251 
" style="fill: none; stroke-dasharray: 5.55,2.4; stroke-dashoffset: 0; stroke: #084a91; stroke-width: 1.5"/>
    </g>
    <g id="text_23">
     <!-- Lower bound $g_0$=0.75 -->
     <g transform="translate(367.450153 112.800251) scale(0.1 -0.1)">
      <use xlink:href="#LinBiolinumT-4c" transform="scale(0.996264)"/>
      <use xlink:href="#LinBiolinumT-6f" transform="translate(51.307627 0) scale(0.996264)"/>
      <use xlink:href="#LinBiolinumT-77" transform="translate(100.423446 0) scale(0.996264)"/>
      <use xlink:href="#LinBiolinumT-65" transform="translate(171.556659 0) scale(0.996264)"/>
      <use xlink:href="#LinBiolinumT-72" transform="translate(216.687422 0) scale(0.996264)"/>
      <use xlink:href="#LinBiolinumT-62" transform="translate(276.961349 0) scale(0.996264)"/>
      <use xlink:href="#LinBiolinumT-6f" transform="translate(328.169298 0) scale(0.996264)"/>
      <use xlink:href="#LinBiolinumT-75" transform="translate(377.982498 0) scale(0.996264)"/>
      <use xlink:href="#LinBiolinumT-6e" transform="translate(431.481842 0) scale(0.996264)"/>
      <use xlink:href="#LinBiolinumT-64" transform="translate(485.180421 0) scale(0.996264)"/>
      <use xlink:href="#CMMI12-67" transform="translate(562.888983 0) scale(0.996264)"/>
      <use xlink:href="#CMR17-30" transform="translate(609.59988 -14.943915) scale(0.697382)"/>
      <use xlink:href="#LinBiolinumT-3d" transform="translate(642.081194 0) scale(0.996264)"/>
      <use xlink:href="#LinBiolinumT-30" transform="translate(694.58435 0) scale(0.996264)"/>
      <use xlink:href="#LinBiolinumT-2e" transform="translate(740.910641 0) scale(0.996264)"/>
      <use xlink:href="#LinBiolinumT-37" transform="translate(762.828465 0) scale(0.996264)"/>
      <use xlink:href="#LinBiolinumT-35" transform="translate(809.154757 0) scale(0.996264)"/>
     </g>
    </g>
   </g>
  </g>
 </g>
 <defs>
  <clipPath id="p4d3637f83c">
   <rect x="37.500153" y="10.693149" width="279" height="166.32"/>
  </clipPath>
 </defs>
</svg>
