<?xml version="1.0" encoding="utf-8" standalone="no"?>
<!DOCTYPE svg PUBLIC "-//W3C//DTD SVG 1.1//EN"
  "http://www.w3.org/Graphics/SVG/1.1/DTD/svg11.dtd">
<svg xmlns:xlink="http://www.w3.org/1999/xlink" width="407.312789pt" height="213.888113pt" viewBox="0 0 407.312789 213.888113" xmlns="http://www.w3.org/2000/svg" version="1.1">
 <metadata>
  <rdf:RDF xmlns:dc="http://purl.org/dc/elements/1.1/" xmlns:cc="http://creativecommons.org/ns#" xmlns:rdf="http://www.w3.org/1999/02/22-rdf-syntax-ns#">
   <cc:Work>
    <dc:type rdf:resource="http://purl.org/dc/dcmitype/StillImage"/>
    <dc:date>2025-02-06T15:07:19.146277</dc:date>
    <dc:format>image/svg+xml</dc:format>
    <dc:creator>
     <cc:Agent>
      <dc:title>Matplotlib v3.10.0, https://matplotlib.org/</dc:title>
     </cc:Agent>
    </dc:creator>
   </cc:Work>
  </rdf:RDF>
 </metadata>
 <defs>
  <style type="text/css">*{stroke-linejoin: round; stroke-linecap: butt}</style>
 </defs>
 <g id="figure_1">
  <g id="patch_1">
   <path d="M 0 213.888113 
L 407.312789 213.888113 
L 407.312789 0 
L 0 0 
z
" style="fill: #ffffff"/>
  </g>
  <g id="axes_1">
   <g id="patch_2">
    <path d="M 32.518817 177.013149 
L 255.718817 177.013149 
L 255.718817 10.693149 
L 32.518817 10.693149 
z
" style="fill: #ffffff"/>
   </g>
   <g id="QuadContourSet_1">
    <path d="M 32.893943 177.013149 
L 33.2716 177.013149 
L 33.651812 177.013149 
L 34.034607 177.013149 
L 34.42001 177.013149 
L 34.808048 177.013149 
L 35.198749 177.013149 
L 35.592139 177.013149 
L 35.988247 177.013149 
L 36.387101 177.013149 
L 36.78873 177.013149 
L 37.193163 177.013149 
L 37.600428 177.013149 
L 38.010557 177.013149 
L 38.423579 177.013149 
L 38.839525 177.013149 
L 39.258426 177.013149 
L 39.680315 177.013149 
L 40.105222 177.013149 
L 40.53318 177.013149 
L 40.964223 177.013149 
L 41.398383 177.013149 
L 41.835696 177.013149 
L 42.276194 177.013149 
L 42.719914 177.013149 
L 43.166891 177.013149 
L 43.61716 177.013149 
L 44.070758 177.013149 
L 44.527723 177.013149 
L 44.988091 177.013149 
L 45.451901 177.013149 
L 45.919192 177.013149 
L 46.390004 177.013149 
L 46.864375 177.013149 
L 47.342347 177.013149 
L 47.82396 177.013149 
L 48.309257 177.013149 
L 48.79828 177.013149 
L 49.291072 177.013149 
L 49.787676 177.013149 
L 50.288138 177.013149 
L 50.792501 177.013149 
L 51.300813 177.013149 
L 51.81312 177.013149 
L 52.329468 177.013149 
L 52.849906 177.013149 
L 53.374483 177.013149 
L 53.903248 177.013149 
L 54.436252 177.013149 
L 54.973546 177.013149 
L 55.515181 177.013149 
L 56.061211 177.013149 
L 56.611689 177.013149 
L 57.16667 177.013149 
L 57.726209 177.013149 
L 58.290364 177.013149 
L 58.85919 177.013149 
L 59.432747 177.013149 
L 60.011093 177.013149 
L 60.594289 177.013149 
L 61.182396 177.013149 
L 61.775477 177.013149 
L 62.373594 177.013149 
L 62.976813 177.013149 
L 63.585198 177.013149 
L 64.198817 177.013149 
L 64.817737 177.013149 
L 65.442028 177.013149 
L 66.071758 177.013149 
L 66.707001 177.013149 
L 67.347828 177.013149 
L 67.994314 177.013149 
L 68.646533 177.013149 
L 69.304563 177.013149 
L 69.968482 177.013149 
L 70.638368 177.013149 
L 71.314303 177.013149 
L 71.996368 177.013149 
L 72.684649 177.013149 
L 73.379229 177.013149 
L 74.080197 177.013149 
L 74.787639 177.013149 
L 75.501648 177.013149 
L 76.222314 177.013149 
L 76.949731 177.013149 
L 77.683994 177.013149 
L 78.4252 177.013149 
L 79.173449 177.013149 
L 79.928841 177.013149 
L 80.691479 177.013149 
L 81.461468 177.013149 
L 82.238914 177.013149 
L 83.023927 177.013149 
L 83.816617 177.013149 
L 84.617097 177.013149 
L 85.425484 177.013149 
L 86.241894 177.013149 
L 87.066448 177.013149 
L 87.899268 177.013149 
L 88.74048 177.013149 
L 89.59021 177.013149 
L 90.448588 177.013149 
L 91.315748 177.013149 
L 92.191825 177.013149 
L 93.076957 177.013149 
L 93.971285 177.013149 
L 94.874953 177.013149 
L 95.788109 177.013149 
L 96.710902 177.013149 
L 97.643486 177.013149 
L 98.586017 177.013149 
L 99.538656 177.013149 
L 100.501567 177.013149 
L 101.474915 177.013149 
L 102.458872 177.013149 
L 103.453612 177.013149 
L 104.459313 177.013149 
L 105.476158 177.013149 
L 106.504333 177.013149 
L 107.544027 177.013149 
L 108.595437 177.013149 
L 109.658761 177.013149 
L 110.734202 177.013149 
L 111.821969 177.013149 
L 112.922275 177.013149 
L 114.035339 177.013149 
L 115.161383 177.013149 
L 116.300635 177.013149 
L 117.453331 177.013149 
L 118.619707 177.013149 
L 119.800011 177.013149 
L 120.994493 177.013149 
L 122.203409 177.013149 
L 123.427024 177.013149 
L 124.665606 177.013149 
L 125.919433 177.013149 
L 127.188786 177.013149 
L 128.473957 177.013149 
L 129.775244 177.013149 
L 131.09295 177.013149 
L 132.427389 177.013149 
L 133.778881 177.013149 
L 135.147756 177.013149 
L 136.534351 177.013149 
L 137.939013 177.013149 
L 139.362096 177.013149 
L 140.803966 177.013149 
L 142.264997 177.013149 
L 143.745573 177.013149 
L 145.24609 177.013149 
L 146.766953 177.013149 
L 148.308578 177.013149 
L 149.871395 177.013149 
L 151.455841 177.013149 
L 153.062371 177.013149 
L 154.691449 177.013149 
L 156.343552 177.013149 
L 158.019173 177.013149 
L 159.718817 177.013149 
L 161.443005 177.013149 
L 163.192272 177.013149 
L 164.967169 177.013149 
L 166.768264 177.013149 
L 168.596141 177.013149 
L 170.451402 177.013149 
L 172.334666 177.013149 
L 174.246574 177.013149 
L 176.187783 177.013149 
L 178.158972 177.013149 
L 180.160841 177.013149 
L 182.194111 177.013149 
L 184.259529 177.013149 
L 186.357861 177.013149 
L 188.489902 177.013149 
L 190.656469 177.013149 
L 192.858409 177.013149 
L 195.096595 177.013149 
L 197.371929 177.013149 
L 199.685344 177.013149 
L 202.037805 177.013149 
L 204.430307 177.013149 
L 206.863882 177.013149 
L 209.339596 177.013149 
L 211.858555 177.013149 
L 214.421901 177.013149 
L 217.030817 177.013149 
L 219.68653 177.013149 
L 222.39031 177.013149 
L 225.143475 177.013149 
L 227.947389 177.013149 
L 230.803468 177.013149 
L 233.713183 177.013149 
L 236.678059 177.013149 
L 239.699678 177.013149 
L 242.779687 177.013149 
L 245.919793 177.013149 
L 249.121773 177.013149 
L 252.387474 177.013149 
L 255.718817 177.013149 
L 255.718817 135.433149 
L 255.718817 135.433149 
L 252.387474 135.433149 
L 249.121773 135.433149 
L 245.919793 135.433149 
L 242.779687 135.433149 
L 239.699678 135.433149 
L 236.678059 135.433149 
L 233.713183 135.433149 
L 230.803468 135.433149 
L 227.947389 135.433149 
L 225.143475 135.433149 
L 222.39031 135.433149 
L 219.68653 135.433149 
L 217.030817 135.433149 
L 214.421901 135.433149 
L 211.858555 135.433149 
L 209.339596 135.433149 
L 206.863882 135.433149 
L 204.430307 135.433149 
L 202.037805 135.433149 
L 199.685344 135.433149 
L 197.371929 135.433149 
L 195.096595 135.433149 
L 192.858409 135.433149 
L 190.656469 135.433149 
L 188.489902 135.433149 
L 186.357861 135.433149 
L 184.259529 135.433149 
L 182.194111 135.433149 
L 180.160841 135.433149 
L 178.158972 135.433149 
L 176.187783 135.433149 
L 174.246574 135.433149 
L 172.334666 135.433149 
L 170.451402 135.433149 
L 168.596141 135.433149 
L 166.768264 135.433149 
L 164.967169 135.433149 
L 163.192272 135.433149 
L 161.443005 135.433149 
L 159.718817 135.433149 
L 158.019173 135.433149 
L 156.343552 135.433149 
L 154.691449 135.433149 
L 153.062371 135.433149 
L 151.455841 135.433149 
L 149.871395 135.433149 
L 148.308578 135.433149 
L 146.766953 135.433149 
L 145.24609 135.433149 
L 143.745573 135.433149 
L 142.264997 135.433149 
L 140.803966 135.433149 
L 139.362096 135.433149 
L 137.939013 135.433149 
L 136.534351 135.433149 
L 135.147756 135.433149 
L 133.778881 135.433149 
L 132.427389 135.433149 
L 131.09295 135.433149 
L 129.775244 135.433149 
L 128.473957 135.433149 
L 127.188786 135.433149 
L 125.919433 135.433149 
L 124.665606 135.433149 
L 123.427024 135.433149 
L 122.203409 135.433149 
L 120.994493 135.433149 
L 119.800011 135.433149 
L 118.619707 135.433149 
L 117.453331 135.433149 
L 116.300635 135.433149 
L 115.161383 135.433149 
L 114.035339 135.433149 
L 112.922275 135.433149 
L 111.821969 135.433149 
L 110.734202 93.853149 
L 110.734202 93.853149 
L 109.658761 93.853149 
L 108.595437 93.853149 
L 107.544027 93.853149 
L 106.504333 93.853149 
L 105.476158 93.853149 
L 104.459313 93.853149 
L 103.453612 93.853149 
L 102.458872 93.853149 
L 101.474915 93.853149 
L 100.501567 93.853149 
L 99.538656 93.853149 
L 98.586017 93.853149 
L 97.643486 93.853149 
L 96.710902 93.853149 
L 95.788109 93.853149 
L 94.874953 93.853149 
L 93.971285 93.853149 
L 93.076957 93.853149 
L 92.191825 93.853149 
L 91.315748 93.853149 
L 90.448588 93.853149 
L 89.59021 93.853149 
L 88.74048 93.853149 
L 87.899268 93.853149 
L 87.066448 93.853149 
L 86.241894 93.853149 
L 85.425484 93.853149 
L 84.617097 93.853149 
L 83.816617 93.853149 
L 83.023927 93.853149 
L 82.238914 93.853149 
L 81.461468 93.853149 
L 80.691479 93.853149 
L 79.928841 93.853149 
L 79.173449 93.853149 
L 78.4252 93.853149 
L 77.683994 93.853149 
L 76.949731 93.853149 
L 76.222314 93.853149 
L 75.501648 93.853149 
L 74.787639 93.853149 
L 74.080197 93.853149 
L 73.379229 52.273149 
L 73.379229 52.273149 
L 72.684649 52.273149 
L 71.996368 52.273149 
L 71.314303 52.273149 
L 70.638368 52.273149 
L 69.968482 52.273149 
L 69.304563 52.273149 
L 68.646533 52.273149 
L 67.994314 52.273149 
L 67.347828 52.273149 
L 66.707001 52.273149 
L 66.071758 52.273149 
L 65.442028 52.273149 
L 64.817737 52.273149 
L 64.198817 52.273149 
L 63.585198 52.273149 
L 62.976813 52.273149 
L 62.373594 52.273149 
L 61.775477 52.273149 
L 61.182396 52.273149 
L 60.594289 52.273149 
L 60.011093 52.273149 
L 59.432747 52.273149 
L 58.85919 52.273149 
L 58.290364 52.273149 
L 57.726209 52.273149 
L 57.16667 52.273149 
L 56.611689 52.273149 
L 56.061211 52.273149 
L 55.515181 52.273149 
L 54.973546 52.273149 
L 54.436252 52.273149 
L 53.903248 52.273149 
L 53.374483 52.273149 
L 52.849906 52.273149 
L 52.329468 52.273149 
L 51.81312 52.273149 
L 51.300813 52.273149 
L 50.792501 52.273149 
L 50.288138 52.273149 
L 49.787676 52.273149 
L 49.291072 52.273149 
L 48.79828 52.273149 
L 48.309257 52.273149 
L 47.82396 52.273149 
L 47.342347 52.273149 
L 46.864375 52.273149 
L 46.390004 52.273149 
L 45.919192 52.273149 
L 45.451901 52.273149 
L 44.988091 52.273149 
L 44.527723 52.273149 
L 44.070758 52.273149 
L 43.61716 52.273149 
L 43.166891 52.273149 
L 42.719914 52.273149 
L 42.276194 52.273149 
L 41.835696 52.273149 
L 41.398383 52.273149 
L 40.964223 52.273149 
L 40.53318 52.273149 
L 40.105222 52.273149 
L 39.680315 52.273149 
L 39.258426 52.273149 
L 38.839525 52.273149 
L 38.423579 52.273149 
L 38.010557 52.273149 
L 37.600428 52.273149 
L 37.193163 52.273149 
L 36.78873 52.273149 
L 36.387101 52.273149 
L 35.988247 52.273149 
L 35.592139 52.273149 
L 35.198749 52.273149 
L 34.808048 52.273149 
L 34.42001 52.273149 
L 34.034607 52.273149 
L 33.651812 52.273149 
L 33.2716 52.273149 
L 32.893943 52.273149 
L 32.518817 10.693149 
L 32.518817 10.693149 
L 32.518817 52.273149 
L 32.518817 93.853149 
L 32.518817 135.433149 
L 32.518817 177.013149 
z
" clip-path="url(#p4ae59cef31)" style="fill: url(#h0c939d80a3)"/>
   </g>
   <g id="QuadContourSet_2">
    <path d="M 111.821969 135.433149 
L 112.922275 135.433149 
L 114.035339 135.433149 
L 115.161383 135.433149 
L 116.300635 135.433149 
L 117.453331 135.433149 
L 118.619707 135.433149 
L 119.800011 135.433149 
L 120.994493 135.433149 
L 122.203409 135.433149 
L 123.427024 135.433149 
L 124.665606 135.433149 
L 125.919433 135.433149 
L 127.188786 135.433149 
L 128.473957 135.433149 
L 129.775244 135.433149 
L 131.09295 135.433149 
L 132.427389 135.433149 
L 133.778881 135.433149 
L 135.147756 135.433149 
L 136.534351 135.433149 
L 137.939013 135.433149 
L 139.362096 135.433149 
L 140.803966 135.433149 
L 142.264997 135.433149 
L 143.745573 135.433149 
L 145.24609 135.433149 
L 146.766953 135.433149 
L 148.308578 135.433149 
L 149.871395 135.433149 
L 151.455841 135.433149 
L 153.062371 135.433149 
L 154.691449 135.433149 
L 156.343552 135.433149 
L 158.019173 135.433149 
L 159.718817 135.433149 
L 161.443005 135.433149 
L 163.192272 135.433149 
L 164.967169 135.433149 
L 166.768264 135.433149 
L 168.596141 135.433149 
L 170.451402 135.433149 
L 172.334666 135.433149 
L 174.246574 135.433149 
L 176.187783 135.433149 
L 178.158972 135.433149 
L 180.160841 135.433149 
L 182.194111 135.433149 
L 184.259529 135.433149 
L 186.357861 135.433149 
L 188.489902 135.433149 
L 190.656469 135.433149 
L 192.858409 135.433149 
L 195.096595 135.433149 
L 197.371929 135.433149 
L 199.685344 135.433149 
L 202.037805 135.433149 
L 204.430307 135.433149 
L 206.863882 135.433149 
L 209.339596 135.433149 
L 211.858555 135.433149 
L 214.421901 135.433149 
L 217.030817 135.433149 
L 219.68653 135.433149 
L 222.39031 135.433149 
L 225.143475 135.433149 
L 227.947389 135.433149 
L 230.803468 135.433149 
L 233.713183 135.433149 
L 236.678059 135.433149 
L 239.699678 135.433149 
L 242.779687 135.433149 
L 245.919793 135.433149 
L 249.121773 135.433149 
L 252.387474 135.433149 
L 255.718817 135.433149 
L 255.718817 93.853149 
L 255.718817 52.273149 
L 255.718817 10.693149 
L 252.387474 10.693149 
L 249.121773 10.693149 
L 245.919793 10.693149 
L 242.779687 10.693149 
L 239.699678 10.693149 
L 236.678059 10.693149 
L 233.713183 10.693149 
L 230.803468 10.693149 
L 227.947389 10.693149 
L 225.143475 10.693149 
L 222.39031 10.693149 
L 219.68653 10.693149 
L 217.030817 10.693149 
L 214.421901 10.693149 
L 211.858555 10.693149 
L 209.339596 10.693149 
L 206.863882 10.693149 
L 204.430307 10.693149 
L 202.037805 10.693149 
L 199.685344 10.693149 
L 197.371929 10.693149 
L 195.096595 10.693149 
L 192.858409 10.693149 
L 190.656469 10.693149 
L 188.489902 10.693149 
L 186.357861 10.693149 
L 184.259529 10.693149 
L 182.194111 10.693149 
L 180.160841 10.693149 
L 178.158972 10.693149 
L 176.187783 10.693149 
L 174.246574 10.693149 
L 172.334666 10.693149 
L 170.451402 10.693149 
L 168.596141 10.693149 
L 166.768264 10.693149 
L 164.967169 10.693149 
L 163.192272 10.693149 
L 161.443005 10.693149 
L 159.718817 10.693149 
L 158.019173 10.693149 
L 156.343552 10.693149 
L 154.691449 10.693149 
L 153.062371 10.693149 
L 151.455841 10.693149 
L 149.871395 10.693149 
L 148.308578 10.693149 
L 146.766953 10.693149 
L 145.24609 10.693149 
L 143.745573 10.693149 
L 142.264997 10.693149 
L 140.803966 10.693149 
L 139.362096 10.693149 
L 137.939013 10.693149 
L 136.534351 10.693149 
L 135.147756 10.693149 
L 133.778881 10.693149 
L 132.427389 10.693149 
L 131.09295 10.693149 
L 129.775244 10.693149 
L 128.473957 10.693149 
L 127.188786 10.693149 
L 125.919433 10.693149 
L 124.665606 10.693149 
L 123.427024 10.693149 
L 122.203409 10.693149 
L 120.994493 10.693149 
L 119.800011 10.693149 
L 118.619707 10.693149 
L 117.453331 10.693149 
L 116.300635 10.693149 
L 115.161383 10.693149 
L 114.035339 10.693149 
L 112.922275 10.693149 
L 111.821969 10.693149 
L 110.734202 10.693149 
L 109.658761 10.693149 
L 108.595437 10.693149 
L 107.544027 10.693149 
L 106.504333 10.693149 
L 105.476158 10.693149 
L 104.459313 10.693149 
L 103.453612 10.693149 
L 102.458872 10.693149 
L 101.474915 10.693149 
L 100.501567 10.693149 
L 99.538656 10.693149 
L 98.586017 10.693149 
L 97.643486 10.693149 
L 96.710902 10.693149 
L 95.788109 10.693149 
L 94.874953 10.693149 
L 93.971285 10.693149 
L 93.076957 10.693149 
L 92.191825 10.693149 
L 91.315748 10.693149 
L 90.448588 10.693149 
L 89.59021 10.693149 
L 88.74048 10.693149 
L 87.899268 10.693149 
L 87.066448 10.693149 
L 86.241894 10.693149 
L 85.425484 10.693149 
L 84.617097 10.693149 
L 83.816617 10.693149 
L 83.023927 10.693149 
L 82.238914 10.693149 
L 81.461468 10.693149 
L 80.691479 10.693149 
L 79.928841 10.693149 
L 79.173449 10.693149 
L 78.4252 10.693149 
L 77.683994 10.693149 
L 76.949731 10.693149 
L 76.222314 10.693149 
L 75.501648 10.693149 
L 74.787639 10.693149 
L 74.080197 10.693149 
L 73.379229 10.693149 
L 72.684649 10.693149 
L 71.996368 10.693149 
L 71.314303 10.693149 
L 70.638368 10.693149 
L 69.968482 10.693149 
L 69.304563 10.693149 
L 68.646533 10.693149 
L 67.994314 10.693149 
L 67.347828 10.693149 
L 66.707001 10.693149 
L 66.071758 10.693149 
L 65.442028 10.693149 
L 64.817737 10.693149 
L 64.198817 10.693149 
L 63.585198 10.693149 
L 62.976813 10.693149 
L 62.373594 10.693149 
L 61.775477 10.693149 
L 61.182396 10.693149 
L 60.594289 10.693149 
L 60.011093 10.693149 
L 59.432747 10.693149 
L 58.85919 10.693149 
L 58.290364 10.693149 
L 57.726209 10.693149 
L 57.16667 10.693149 
L 56.611689 10.693149 
L 56.061211 10.693149 
L 55.515181 10.693149 
L 54.973546 10.693149 
L 54.436252 10.693149 
L 53.903248 10.693149 
L 53.374483 10.693149 
L 52.849906 10.693149 
L 52.329468 10.693149 
L 51.81312 10.693149 
L 51.300813 10.693149 
L 50.792501 10.693149 
L 50.288138 10.693149 
L 49.787676 10.693149 
L 49.291072 10.693149 
L 48.79828 10.693149 
L 48.309257 10.693149 
L 47.82396 10.693149 
L 47.342347 10.693149 
L 46.864375 10.693149 
L 46.390004 10.693149 
L 45.919192 10.693149 
L 45.451901 10.693149 
L 44.988091 10.693149 
L 44.527723 10.693149 
L 44.070758 10.693149 
L 43.61716 10.693149 
L 43.166891 10.693149 
L 42.719914 10.693149 
L 42.276194 10.693149 
L 41.835696 10.693149 
L 41.398383 10.693149 
L 40.964223 10.693149 
L 40.53318 10.693149 
L 40.105222 10.693149 
L 39.680315 10.693149 
L 39.258426 10.693149 
L 38.839525 10.693149 
L 38.423579 10.693149 
L 38.010557 10.693149 
L 37.600428 10.693149 
L 37.193163 10.693149 
L 36.78873 10.693149 
L 36.387101 10.693149 
L 35.988247 10.693149 
L 35.592139 10.693149 
L 35.198749 10.693149 
L 34.808048 10.693149 
L 34.42001 10.693149 
L 34.034607 10.693149 
L 33.651812 10.693149 
L 33.2716 10.693149 
L 32.893943 10.693149 
L 32.518817 10.693149 
L 32.893943 52.273149 
L 33.2716 52.273149 
L 33.651812 52.273149 
L 34.034607 52.273149 
L 34.42001 52.273149 
L 34.808048 52.273149 
L 35.198749 52.273149 
L 35.592139 52.273149 
L 35.988247 52.273149 
L 36.387101 52.273149 
L 36.78873 52.273149 
L 37.193163 52.273149 
L 37.600428 52.273149 
L 38.010557 52.273149 
L 38.423579 52.273149 
L 38.839525 52.273149 
L 39.258426 52.273149 
L 39.680315 52.273149 
L 40.105222 52.273149 
L 40.53318 52.273149 
L 40.964223 52.273149 
L 41.398383 52.273149 
L 41.835696 52.273149 
L 42.276194 52.273149 
L 42.719914 52.273149 
L 43.166891 52.273149 
L 43.61716 52.273149 
L 44.070758 52.273149 
L 44.527723 52.273149 
L 44.988091 52.273149 
L 45.451901 52.273149 
L 45.919192 52.273149 
L 46.390004 52.273149 
L 46.864375 52.273149 
L 47.342347 52.273149 
L 47.82396 52.273149 
L 48.309257 52.273149 
L 48.79828 52.273149 
L 49.291072 52.273149 
L 49.787676 52.273149 
L 50.288138 52.273149 
L 50.792501 52.273149 
L 51.300813 52.273149 
L 51.81312 52.273149 
L 52.329468 52.273149 
L 52.849906 52.273149 
L 53.374483 52.273149 
L 53.903248 52.273149 
L 54.436252 52.273149 
L 54.973546 52.273149 
L 55.515181 52.273149 
L 56.061211 52.273149 
L 56.611689 52.273149 
L 57.16667 52.273149 
L 57.726209 52.273149 
L 58.290364 52.273149 
L 58.85919 52.273149 
L 59.432747 52.273149 
L 60.011093 52.273149 
L 60.594289 52.273149 
L 61.182396 52.273149 
L 61.775477 52.273149 
L 62.373594 52.273149 
L 62.976813 52.273149 
L 63.585198 52.273149 
L 64.198817 52.273149 
L 64.817737 52.273149 
L 65.442028 52.273149 
L 66.071758 52.273149 
L 66.707001 52.273149 
L 67.347828 52.273149 
L 67.994314 52.273149 
L 68.646533 52.273149 
L 69.304563 52.273149 
L 69.968482 52.273149 
L 70.638368 52.273149 
L 71.314303 52.273149 
L 71.996368 52.273149 
L 72.684649 52.273149 
L 73.379229 52.273149 
L 73.379229 52.273149 
L 74.080197 93.853149 
L 74.787639 93.853149 
L 75.501648 93.853149 
L 76.222314 93.853149 
L 76.949731 93.853149 
L 77.683994 93.853149 
L 78.4252 93.853149 
L 79.173449 93.853149 
L 79.928841 93.853149 
L 80.691479 93.853149 
L 81.461468 93.853149 
L 82.238914 93.853149 
L 83.023927 93.853149 
L 83.816617 93.853149 
L 84.617097 93.853149 
L 85.425484 93.853149 
L 86.241894 93.853149 
L 87.066448 93.853149 
L 87.899268 93.853149 
L 88.74048 93.853149 
L 89.59021 93.853149 
L 90.448588 93.853149 
L 91.315748 93.853149 
L 92.191825 93.853149 
L 93.076957 93.853149 
L 93.971285 93.853149 
L 94.874953 93.853149 
L 95.788109 93.853149 
L 96.710902 93.853149 
L 97.643486 93.853149 
L 98.586017 93.853149 
L 99.538656 93.853149 
L 100.501567 93.853149 
L 101.474915 93.853149 
L 102.458872 93.853149 
L 103.453612 93.853149 
L 104.459313 93.853149 
L 105.476158 93.853149 
L 106.504333 93.853149 
L 107.544027 93.853149 
L 108.595437 93.853149 
L 109.658761 93.853149 
L 110.734202 93.853149 
L 110.734202 93.853149 
z
" clip-path="url(#p4ae59cef31)" style="fill: url(#h3809805fca)"/>
   </g>
   <g id="matplotlib.axis_1">
    <g id="xtick_1">
     <g id="line2d_1">
      <defs>
       <path id="mfd04835625" d="M 0 0 
L 0 3.5 
" style="stroke: #000000; stroke-width: 0.8"/>
      </defs>
      <g>
       <use xlink:href="#mfd04835625" x="32.518817" y="177.013149" style="stroke: #000000; stroke-width: 0.8"/>
      </g>
     </g>
     <g id="text_1">
      <!-- $\mathdefault{1.0}$ -->
      <g transform="translate(26.153778 190.999447) scale(0.1 -0.1)">
       <defs>
        <path id="CMR17-31" d="M 1702 4083 
C 1702 4217 1696 4224 1606 4224 
C 1357 3927 979 3833 621 3820 
C 602 3820 570 3820 563 3808 
C 557 3795 557 3782 557 3648 
C 755 3648 1088 3686 1344 3839 
L 1344 467 
C 1344 243 1331 166 781 166 
L 589 166 
L 589 0 
C 896 6 1216 12 1523 12 
C 1830 12 2150 6 2458 0 
L 2458 166 
L 2266 166 
C 1715 166 1702 236 1702 467 
L 1702 4083 
z
" transform="scale(0.015625)"/>
        <path id="CMMI12-3a" d="M 1178 307 
C 1178 492 1024 620 870 620 
C 685 620 557 467 557 313 
C 557 128 710 0 864 0 
C 1050 0 1178 153 1178 307 
z
" transform="scale(0.015625)"/>
        <path id="CMR17-30" d="M 2688 2038 
C 2688 2430 2682 3099 2413 3613 
C 2176 4063 1798 4224 1466 4224 
C 1158 4224 768 4082 525 3620 
C 269 3137 243 2539 243 2038 
C 243 1671 250 1112 448 623 
C 723 -39 1216 -128 1466 -128 
C 1760 -128 2208 -7 2470 604 
C 2662 1048 2688 1568 2688 2038 
z
M 1466 -26 
C 1056 -26 813 328 723 816 
C 653 1196 653 1749 653 2109 
C 653 2604 653 3015 736 3407 
C 858 3954 1216 4121 1466 4121 
C 1728 4121 2067 3947 2189 3420 
C 2272 3054 2278 2623 2278 2109 
C 2278 1691 2278 1176 2202 797 
C 2067 96 1690 -26 1466 -26 
z
" transform="scale(0.015625)"/>
       </defs>
       <use xlink:href="#CMR17-31" transform="scale(0.996264)"/>
       <use xlink:href="#CMMI12-3a" transform="translate(45.690477 0) scale(0.996264)"/>
       <use xlink:href="#CMR17-30" transform="translate(72.787654 0) scale(0.996264)"/>
      </g>
     </g>
    </g>
    <g id="xtick_2">
     <g id="line2d_2">
      <g>
       <use xlink:href="#mfd04835625" x="88.318817" y="177.013149" style="stroke: #000000; stroke-width: 0.8"/>
      </g>
     </g>
     <g id="text_2">
      <!-- $\mathdefault{1.5}$ -->
      <g transform="translate(81.953778 190.999447) scale(0.1 -0.1)">
       <defs>
        <path id="CMR17-35" d="M 730 3750 
C 794 3724 1056 3641 1325 3641 
C 1920 3641 2246 3961 2432 4140 
C 2432 4191 2432 4224 2394 4224 
C 2387 4224 2374 4224 2323 4198 
C 2099 4102 1837 4032 1517 4032 
C 1325 4032 1037 4055 723 4191 
C 653 4224 640 4224 634 4224 
C 602 4224 595 4217 595 4090 
L 595 2231 
C 595 2113 595 2080 659 2080 
C 691 2080 704 2093 736 2139 
C 941 2435 1222 2560 1542 2560 
C 1766 2560 2246 2415 2246 1293 
C 2246 1087 2246 716 2054 422 
C 1894 159 1645 25 1370 25 
C 947 25 518 319 403 812 
C 429 806 480 793 506 793 
C 589 793 749 838 749 1036 
C 749 1209 627 1280 506 1280 
C 358 1280 262 1190 262 1011 
C 262 454 704 -128 1382 -128 
C 2042 -128 2669 441 2669 1267 
C 2669 2054 2170 2662 1549 2662 
C 1222 2662 947 2540 730 2304 
L 730 3750 
z
" transform="scale(0.015625)"/>
       </defs>
       <use xlink:href="#CMR17-31" transform="scale(0.996264)"/>
       <use xlink:href="#CMMI12-3a" transform="translate(45.690477 0) scale(0.996264)"/>
       <use xlink:href="#CMR17-35" transform="translate(72.787654 0) scale(0.996264)"/>
      </g>
     </g>
    </g>
    <g id="xtick_3">
     <g id="line2d_3">
      <g>
       <use xlink:href="#mfd04835625" x="144.118817" y="177.013149" style="stroke: #000000; stroke-width: 0.8"/>
      </g>
     </g>
     <g id="text_3">
      <!-- $\mathdefault{2.0}$ -->
      <g transform="translate(137.753778 190.999447) scale(0.1 -0.1)">
       <defs>
        <path id="CMR17-32" d="M 2669 990 
L 2554 990 
C 2490 537 2438 460 2413 422 
C 2381 371 1920 371 1830 371 
L 602 371 
C 832 620 1280 1073 1824 1596 
C 2214 1966 2669 2400 2669 3033 
C 2669 3788 2067 4224 1395 4224 
C 691 4224 262 3603 262 3027 
C 262 2777 448 2745 525 2745 
C 589 2745 781 2783 781 3007 
C 781 3206 614 3264 525 3264 
C 486 3264 448 3257 422 3244 
C 544 3788 915 4057 1306 4057 
C 1862 4057 2227 3616 2227 3033 
C 2227 2477 1901 1998 1536 1583 
L 262 147 
L 262 0 
L 2515 0 
L 2669 990 
z
" transform="scale(0.015625)"/>
       </defs>
       <use xlink:href="#CMR17-32" transform="scale(0.996264)"/>
       <use xlink:href="#CMMI12-3a" transform="translate(45.690477 0) scale(0.996264)"/>
       <use xlink:href="#CMR17-30" transform="translate(72.787654 0) scale(0.996264)"/>
      </g>
     </g>
    </g>
    <g id="xtick_4">
     <g id="line2d_4">
      <g>
       <use xlink:href="#mfd04835625" x="199.918817" y="177.013149" style="stroke: #000000; stroke-width: 0.8"/>
      </g>
     </g>
     <g id="text_4">
      <!-- $\mathdefault{2.5}$ -->
      <g transform="translate(193.553778 190.999447) scale(0.1 -0.1)">
       <use xlink:href="#CMR17-32" transform="scale(0.996264)"/>
       <use xlink:href="#CMMI12-3a" transform="translate(45.690477 0) scale(0.996264)"/>
       <use xlink:href="#CMR17-35" transform="translate(72.787654 0) scale(0.996264)"/>
      </g>
     </g>
    </g>
    <g id="xtick_5">
     <g id="line2d_5">
      <g>
       <use xlink:href="#mfd04835625" x="255.718817" y="177.013149" style="stroke: #000000; stroke-width: 0.8"/>
      </g>
     </g>
     <g id="text_5">
      <!-- $\mathdefault{3.0}$ -->
      <g transform="translate(249.353778 190.999447) scale(0.1 -0.1)">
       <defs>
        <path id="CMR17-33" d="M 1414 2176 
C 1984 2176 2234 1673 2234 1094 
C 2234 322 1824 25 1453 25 
C 1114 25 563 193 390 691 
C 422 678 454 678 486 678 
C 640 678 755 780 755 947 
C 755 1132 614 1216 486 1216 
C 378 1216 211 1164 211 927 
C 211 335 787 -128 1466 -128 
C 2176 -128 2720 432 2720 1087 
C 2720 1718 2208 2176 1600 2246 
C 2086 2347 2554 2776 2554 3353 
C 2554 3856 2048 4224 1472 4224 
C 890 4224 378 3862 378 3347 
C 378 3123 544 3084 627 3084 
C 762 3084 877 3167 877 3334 
C 877 3500 762 3584 627 3584 
C 602 3584 570 3584 544 3571 
C 730 3999 1235 4076 1459 4076 
C 1683 4076 2106 3966 2106 3347 
C 2106 3167 2080 2851 1862 2574 
C 1670 2329 1453 2316 1242 2297 
C 1210 2297 1062 2284 1037 2284 
C 992 2278 966 2272 966 2227 
C 966 2182 973 2176 1101 2176 
L 1414 2176 
z
" transform="scale(0.015625)"/>
       </defs>
       <use xlink:href="#CMR17-33" transform="scale(0.996264)"/>
       <use xlink:href="#CMMI12-3a" transform="translate(45.690477 0) scale(0.996264)"/>
       <use xlink:href="#CMR17-30" transform="translate(72.787654 0) scale(0.996264)"/>
      </g>
     </g>
    </g>
    <g id="text_6">
     <!-- Exogenous utility ratio -->
     <g transform="translate(97.553516 204.336929) scale(0.1 -0.1)">
      <defs>
       <path id="LinBiolinumT-45" d="M 1216 1290 
L 1216 2047 
C 1523 2047 2202 2028 2643 1983 
L 2662 2002 
C 2650 2060 2643 2150 2643 2207 
C 2643 2265 2650 2355 2662 2413 
L 2643 2432 
C 2266 2400 1971 2368 1216 2368 
L 1216 2871 
C 1216 2981 1222 3646 1267 3801 
C 2125 3801 3008 3724 3008 3724 
L 3021 3750 
C 3014 3801 3008 3859 3008 3916 
C 3008 3967 3014 4070 3021 4160 
L 3008 4179 
C 2906 4166 2758 4160 2624 4160 
L 941 4160 
C 723 4160 614 4179 614 4179 
L 602 4160 
C 653 3795 666 3356 666 2871 
L 666 1290 
C 666 805 653 345 602 0 
L 608 -20 
C 608 -20 717 0 941 0 
L 2688 0 
C 2822 0 2970 -7 3072 -20 
L 3085 0 
C 3078 89 3072 134 3072 198 
C 3072 262 3078 358 3085 410 
L 3072 436 
C 3072 436 2125 358 1267 358 
C 1222 513 1216 1180 1216 1290 
z
" transform="scale(0.015625)"/>
       <path id="LinBiolinumT-78" d="M 1181 1327 
L 179 0 
C 242 11 346 18 410 18 
C 474 18 626 11 691 0 
C 936 361 1126 708 1382 1062 
C 1638 708 1828 361 2061 0 
C 2154 13 2285 18 2387 18 
C 2483 18 2653 11 2752 0 
C 2365 493 2053 981 1708 1475 
L 2758 2752 
C 2676 2737 2534 2732 2470 2732 
C 2400 2732 2300 2737 2234 2752 
C 1988 2398 1787 2063 1517 1718 
C 1261 2063 1085 2398 870 2752 
C 759 2737 634 2732 525 2732 
C 422 2732 256 2737 154 2752 
L 1181 1327 
z
" transform="scale(0.015625)"/>
       <path id="LinBiolinumT-6f" d="M 243 1314 
C 243 544 749 -64 1600 -64 
C 2445 -64 2957 532 2957 1372 
C 2957 2245 2490 2816 1626 2816 
C 787 2816 243 2226 243 1314 
z
M 1581 2559 
C 2259 2559 2394 2033 2394 1257 
C 2394 647 2086 192 1658 192 
C 979 192 806 929 806 1424 
C 806 1982 979 2559 1581 2559 
z
" transform="scale(0.015625)"/>
       <path id="LinBiolinumT-67" d="M 646 -666 
C 646 -448 838 -203 1062 -77 
C 1252 -84 1544 -64 1632 -64 
C 1939 -64 2135 -71 2310 -176 
C 2496 -288 2560 -479 2560 -650 
C 2560 -1051 2035 -1261 1485 -1261 
C 1069 -1261 646 -1117 646 -669 
L 646 -666 
z
M 2496 1840 
C 2496 2275 2323 2478 2173 2575 
C 2365 2560 2578 2536 2842 2509 
L 2861 2528 
C 2848 2585 2842 2636 2842 2694 
C 2842 2751 2848 2803 2861 2860 
L 2842 2880 
C 2536 2854 2309 2786 1832 2760 
C 1718 2796 1577 2816 1440 2816 
C 934 2816 352 2478 352 1852 
C 352 1379 627 1164 806 1062 
C 621 934 397 745 397 522 
C 397 256 550 25 895 -34 
C 717 -109 517 -235 352 -367 
C 271 -492 205 -677 205 -801 
C 205 -1318 755 -1536 1434 -1536 
C 2432 -1536 3027 -1115 3027 -498 
C 3027 -209 2938 -7 2758 147 
C 2518 352 2080 358 1856 358 
C 1747 358 1491 345 1344 326 
C 1254 326 1190 320 1158 320 
C 979 320 787 345 787 624 
C 787 753 819 863 960 985 
C 1043 940 1240 895 1434 895 
C 2099 895 2496 1342 2496 1840 
z
M 1997 1833 
C 1997 1450 1837 1152 1453 1152 
C 992 1152 851 1448 851 1884 
C 851 2301 1043 2572 1414 2572 
C 1830 2572 1997 2282 1997 1833 
z
" transform="scale(0.015625)"/>
       <path id="LinBiolinumT-65" d="M 800 1728 
C 909 2414 1329 2559 1530 2559 
C 1783 2559 2067 2315 2067 1820 
C 2067 1761 2042 1728 1978 1728 
L 800 1728 
z
M 2509 659 
C 2285 420 1984 313 1632 313 
C 1413 313 1111 395 934 672 
C 822 848 781 1105 781 1472 
L 2522 1472 
C 2592 1472 2637 1510 2637 1580 
C 2637 2130 2374 2816 1530 2816 
C 870 2816 218 2276 218 1320 
C 218 963 292 610 506 357 
C 726 93 1092 -64 1523 -64 
C 1984 -64 2394 172 2637 502 
L 2509 659 
z
" transform="scale(0.015625)"/>
       <path id="LinBiolinumT-6e" d="M 2944 1165 
C 2944 1368 2957 1604 2957 1808 
C 2957 2470 2739 2816 2163 2816 
C 1920 2816 1466 2719 1056 2240 
L 1043 2260 
L 1043 2726 
C 1042 2776 1036 2790 1005 2790 
C 861 2762 632 2757 486 2771 
L 474 2751 
C 518 2475 531 1992 531 1515 
L 531 1165 
C 531 687 525 362 474 19 
L 486 0 
C 563 12 710 19 787 19 
C 864 19 1011 12 1088 0 
L 1101 19 
C 1050 381 1043 681 1043 1165 
L 1043 1909 
C 1370 2291 1741 2431 1971 2431 
C 2298 2431 2432 2304 2432 1788 
L 2432 1165 
C 2432 687 2420 361 2374 19 
L 2387 0 
C 2464 12 2611 19 2688 19 
C 2765 19 2912 12 2989 0 
L 3002 19 
C 2952 381 2944 681 2944 1165 
z
" transform="scale(0.015625)"/>
       <path id="LinBiolinumT-75" d="M 2336 600 
L 2362 582 
L 2394 18 
C 2394 6 2401 0 2419 0 
C 2504 11 2579 18 2673 18 
C 2752 18 2874 12 2957 0 
L 2970 18 
C 2918 291 2861 759 2861 1233 
L 2861 1594 
C 2861 2068 2867 2397 2918 2732 
L 2906 2752 
C 2829 2739 2682 2732 2605 2732 
C 2528 2732 2381 2739 2304 2752 
L 2291 2732 
C 2341 2371 2349 2074 2349 1594 
L 2349 974 
C 2154 635 1786 294 1472 294 
C 1252 294 1043 364 1043 956 
L 1043 1586 
C 1043 2064 1050 2395 1101 2733 
L 1088 2752 
C 1011 2739 864 2733 787 2733 
C 710 2733 563 2739 486 2752 
L 474 2733 
C 525 2370 531 2070 531 1586 
L 531 822 
C 531 383 736 -64 1370 -64 
C 1766 -64 2125 262 2336 587 
L 2336 600 
z
" transform="scale(0.015625)"/>
       <path id="LinBiolinumT-73" d="M 320 647 
L 211 108 
C 576 -20 934 -64 1178 -64 
C 2061 -64 2266 461 2266 814 
C 2266 1340 1850 1546 1395 1655 
C 1153 1712 800 1834 800 2155 
C 800 2418 1011 2559 1286 2559 
C 1619 2559 1824 2296 1971 2123 
L 2061 2129 
L 2189 2604 
L 2176 2623 
C 1990 2719 1638 2816 1312 2816 
C 838 2816 346 2566 346 2033 
C 346 1520 728 1350 1114 1244 
C 1485 1141 1760 1039 1760 724 
C 1760 384 1510 192 1171 192 
C 864 192 595 403 416 654 
L 320 647 
z
" transform="scale(0.015625)"/>
       <path id="LinBiolinumT-74" d="M 608 2752 
C 477 2752 342 2754 262 2764 
C 219 2659 184 2598 122 2502 
L 154 2457 
C 264 2465 462 2469 608 2470 
L 608 1586 
C 608 1199 589 735 589 541 
C 589 125 858 -64 1152 -64 
C 1421 -64 1626 -3 1894 162 
L 1816 320 
C 1619 252 1472 245 1312 271 
C 1160 295 1101 450 1101 799 
C 1101 993 1120 1270 1120 1657 
L 1120 2470 
L 1363 2470 
C 1517 2470 1740 2465 1824 2457 
C 1843 2559 1862 2625 1901 2719 
L 1869 2764 
C 1754 2759 1568 2752 1421 2752 
L 1120 2752 
C 1120 3230 1124 3315 1152 3686 
C 1152 3732 1134 3750 1094 3750 
C 934 3686 855 3618 646 3590 
L 634 3571 
C 621 3348 608 3123 608 2752 
L 608 2752 
z
" transform="scale(0.015625)"/>
       <path id="LinBiolinumT-69" d="M 512 3833 
C 512 3660 666 3507 838 3507 
C 1011 3507 1165 3660 1165 3833 
C 1165 4006 1011 4160 838 4160 
C 666 4160 512 4006 512 3833 
z
M 576 1502 
L 576 1155 
C 576 681 564 359 518 18 
L 531 0 
C 608 12 755 18 832 18 
C 909 18 1056 12 1133 0 
L 1146 18 
C 1100 377 1088 675 1088 1155 
L 1088 1603 
C 1088 2076 1105 2303 1146 2688 
C 1146 2745 1138 2752 1088 2752 
C 942 2737 667 2734 531 2745 
L 518 2726 
C 558 2456 576 1975 576 1502 
z
" transform="scale(0.015625)"/>
       <path id="LinBiolinumT-6c" d="M 576 1297 
C 576 821 567 361 518 19 
L 531 0 
C 608 12 755 19 832 19 
C 909 19 1056 12 1133 0 
L 1146 19 
C 1096 383 1088 816 1088 1297 
L 1088 3214 
C 1088 3693 1115 4012 1146 4415 
C 1146 4460 1128 4480 1088 4480 
C 928 4415 791 4371 531 4352 
L 518 4332 
C 568 4059 576 3585 576 3099 
L 576 1297 
z
" transform="scale(0.015625)"/>
       <path id="LinBiolinumT-79" d="M 179 2752 
C 434 2182 1194 529 1421 -82 
C 1216 -560 955 -1053 666 -1536 
C 730 -1517 826 -1504 890 -1504 
C 954 -1504 1139 -1517 1203 -1536 
C 1446 -735 2848 2322 3059 2752 
C 2995 2732 2848 2732 2784 2732 
C 2720 2732 2598 2732 2534 2752 
C 2304 2027 2004 1208 1695 544 
L 1682 544 
C 1367 1307 1065 2019 826 2751 
C 742 2732 602 2732 512 2732 
C 429 2732 269 2732 179 2751 
L 179 2752 
z
" transform="scale(0.015625)"/>
       <path id="LinBiolinumT-72" d="M 1069 2145 
L 1069 2726 
C 1069 2776 1061 2790 1030 2790 
C 887 2762 658 2757 512 2771 
L 499 2751 
C 544 2475 557 1992 557 1514 
L 557 1164 
C 557 687 549 361 499 19 
L 512 0 
C 589 12 736 19 813 19 
C 890 19 1037 12 1114 0 
L 1126 19 
C 1079 381 1069 681 1069 1164 
L 1069 1495 
C 1069 1763 1149 1915 1286 2125 
C 1380 2267 1523 2348 1645 2348 
C 1773 2348 1894 2336 1978 2259 
L 2029 2272 
L 2157 2745 
L 2131 2771 
C 2022 2803 2016 2816 1901 2816 
C 1555 2816 1370 2617 1088 2132 
L 1069 2145 
z
" transform="scale(0.015625)"/>
       <path id="LinBiolinumT-61" d="M 1984 1443 
L 1958 679 
C 1958 596 1920 551 1869 512 
C 1690 377 1472 262 1280 262 
C 992 262 806 454 806 653 
C 806 942 941 1160 1440 1295 
L 1984 1443 
z
M 1984 307 
C 2058 57 2249 -64 2483 -64 
C 2644 -64 2842 -26 2993 134 
L 2945 293 
C 2875 268 2821 259 2772 259 
C 2708 259 2624 271 2584 307 
C 2519 366 2478 522 2478 807 
C 2478 994 2496 1706 2496 1777 
C 2496 2643 1926 2816 1440 2816 
C 954 2816 659 2579 499 2444 
L 480 2418 
L 589 1988 
L 672 1982 
C 851 2271 1069 2527 1376 2527 
C 1606 2527 1990 2495 1990 1770 
C 1990 1725 1965 1700 1946 1693 
L 1350 1558 
C 698 1411 288 1064 288 628 
C 288 153 614 -64 1088 -64 
C 1440 -64 1619 19 1958 307 
L 1984 307 
z
" transform="scale(0.015625)"/>
      </defs>
      <use xlink:href="#LinBiolinumT-45" transform="scale(0.996264)"/>
      <use xlink:href="#LinBiolinumT-78" transform="translate(53.599007 0) scale(0.996264)"/>
      <use xlink:href="#LinBiolinumT-6f" transform="translate(98.929004 0) scale(0.996264)"/>
      <use xlink:href="#LinBiolinumT-67" transform="translate(148.742205 0) scale(0.996264)"/>
      <use xlink:href="#LinBiolinumT-65" transform="translate(198.455727 0) scale(0.996264)"/>
      <use xlink:href="#LinBiolinumT-6e" transform="translate(243.58649 0) scale(0.996264)"/>
      <use xlink:href="#LinBiolinumT-6f" transform="translate(297.285068 0) scale(0.996264)"/>
      <use xlink:href="#LinBiolinumT-75" transform="translate(347.098269 0) scale(0.996264)"/>
      <use xlink:href="#LinBiolinumT-73" transform="translate(400.597612 0) scale(0.996264)"/>
      <use xlink:href="#LinBiolinumT-75" transform="translate(464.956258 0) scale(0.996264)"/>
      <use xlink:href="#LinBiolinumT-74" transform="translate(518.455602 0) scale(0.996264)"/>
      <use xlink:href="#LinBiolinumT-69" transform="translate(552.328594 0) scale(0.996264)"/>
      <use xlink:href="#LinBiolinumT-6c" transform="translate(578.231473 0) scale(0.996264)"/>
      <use xlink:href="#LinBiolinumT-69" transform="translate(603.337308 0) scale(0.996264)"/>
      <use xlink:href="#LinBiolinumT-74" transform="translate(629.240188 0) scale(0.996264)"/>
      <use xlink:href="#LinBiolinumT-79" transform="translate(663.113179 0) scale(0.996264)"/>
      <use xlink:href="#LinBiolinumT-72" transform="translate(738.430684 0) scale(0.996264)"/>
      <use xlink:href="#LinBiolinumT-61" transform="translate(773.79801 0) scale(0.996264)"/>
      <use xlink:href="#LinBiolinumT-74" transform="translate(821.7183 0) scale(0.996264)"/>
      <use xlink:href="#LinBiolinumT-69" transform="translate(855.591292 0) scale(0.996264)"/>
      <use xlink:href="#LinBiolinumT-6f" transform="translate(881.494171 0) scale(0.996264)"/>
     </g>
    </g>
   </g>
   <g id="matplotlib.axis_2">
    <g id="ytick_1">
     <g id="line2d_6">
      <defs>
       <path id="m6e8a13ec92" d="M 0 0 
L -3.5 0 
" style="stroke: #000000; stroke-width: 0.8"/>
      </defs>
      <g>
       <use xlink:href="#m6e8a13ec92" x="32.518817" y="177.013149" style="stroke: #000000; stroke-width: 0.8"/>
      </g>
     </g>
     <g id="text_7">
      <!-- $\mathdefault{0}$ -->
      <g transform="translate(20.537482 180.506298) scale(0.1 -0.1)">
       <use xlink:href="#CMR17-30" transform="scale(0.996264)"/>
      </g>
     </g>
    </g>
    <g id="ytick_2">
     <g id="line2d_7">
      <g>
       <use xlink:href="#m6e8a13ec92" x="32.518817" y="135.433149" style="stroke: #000000; stroke-width: 0.8"/>
      </g>
     </g>
     <g id="text_8">
      <!-- $\mathdefault{1}$ -->
      <g transform="translate(20.537482 138.926298) scale(0.1 -0.1)">
       <use xlink:href="#CMR17-31" transform="scale(0.996264)"/>
      </g>
     </g>
    </g>
    <g id="ytick_3">
     <g id="line2d_8">
      <g>
       <use xlink:href="#m6e8a13ec92" x="32.518817" y="93.853149" style="stroke: #000000; stroke-width: 0.8"/>
      </g>
     </g>
     <g id="text_9">
      <!-- $\mathdefault{2}$ -->
      <g transform="translate(20.537482 97.346298) scale(0.1 -0.1)">
       <use xlink:href="#CMR17-32" transform="scale(0.996264)"/>
      </g>
     </g>
    </g>
    <g id="ytick_4">
     <g id="line2d_9">
      <g>
       <use xlink:href="#m6e8a13ec92" x="32.518817" y="52.273149" style="stroke: #000000; stroke-width: 0.8"/>
      </g>
     </g>
     <g id="text_10">
      <!-- $\mathdefault{3}$ -->
      <g transform="translate(20.537482 55.766298) scale(0.1 -0.1)">
       <use xlink:href="#CMR17-33" transform="scale(0.996264)"/>
      </g>
     </g>
    </g>
    <g id="ytick_5">
     <g id="line2d_10">
      <g>
       <use xlink:href="#m6e8a13ec92" x="32.518817" y="10.693149" style="stroke: #000000; stroke-width: 0.8"/>
      </g>
     </g>
     <g id="text_11">
      <!-- $\mathdefault{4}$ -->
      <g transform="translate(20.537482 14.186298) scale(0.1 -0.1)">
       <defs>
        <path id="CMR17-34" d="M 2150 4147 
C 2150 4281 2144 4288 2029 4288 
L 128 1254 
L 128 1088 
L 1779 1088 
L 1779 460 
C 1779 230 1766 166 1318 166 
L 1197 166 
L 1197 0 
C 1402 12 1747 12 1965 12 
C 2182 12 2528 12 2733 0 
L 2733 166 
L 2611 166 
C 2163 166 2150 230 2150 460 
L 2150 1088 
L 2803 1088 
L 2803 1254 
L 2150 1254 
L 2150 4147 
z
M 1798 3723 
L 1798 1254 
L 256 1254 
L 1798 3723 
z
" transform="scale(0.015625)"/>
       </defs>
       <use xlink:href="#CMR17-34" transform="scale(0.996264)"/>
      </g>
     </g>
    </g>
    <g id="text_12">
     <!-- Number of recommendations $k$ -->
     <g transform="translate(14.186298 157.895917) rotate(-90) scale(0.1 -0.1)">
      <defs>
       <path id="LinBiolinumT-4e" d="M 691 4141 
C 749 2926 730 1035 627 19 
L 640 0 
C 717 12 787 19 864 19 
C 941 19 1011 12 1088 0 
L 1101 19 
C 1050 383 1037 818 1037 1297 
L 1037 2824 
C 1037 3214 1050 3233 1286 2926 
L 3520 108 
C 3590 12 3693 -45 3795 -45 
C 3885 -45 3910 31 3917 153 
C 3949 1610 3942 2722 4045 4141 
L 4032 4160 
C 3955 4147 3885 4141 3808 4141 
C 3731 4141 3661 4147 3584 4160 
L 3571 4141 
C 3622 3776 3635 3343 3635 2863 
L 3635 1156 
C 3626 809 3534 957 3258 1316 
L 1062 4153 
C 1062 4153 1002 4141 973 4141 
C 755 4141 704 4160 704 4160 
L 691 4141 
z
" transform="scale(0.015625)"/>
       <path id="LinBiolinumT-6d" d="M 1037 2260 
L 1037 2726 
C 1037 2776 1029 2790 998 2790 
C 855 2762 626 2757 480 2771 
L 467 2751 
C 512 2475 525 1992 525 1515 
L 525 1165 
C 525 687 518 362 467 19 
L 480 0 
C 557 12 704 19 781 19 
C 858 19 1005 12 1082 0 
L 1094 19 
C 1043 381 1037 681 1037 1165 
L 1037 1935 
C 1338 2240 1696 2431 1920 2431 
C 2163 2431 2342 2291 2342 1865 
L 2342 1165 
C 2342 687 2336 362 2285 19 
L 2298 0 
C 2374 12 2522 19 2598 19 
C 2675 19 2822 12 2899 0 
L 2912 19 
C 2861 381 2854 681 2854 1165 
L 2854 1808 
C 2854 1897 2854 1973 2848 2049 
C 3155 2387 3411 2431 3661 2431 
C 4006 2431 4173 2291 4173 1865 
L 4173 1165 
C 4173 687 4166 362 4115 19 
L 4128 0 
C 4205 12 4352 19 4429 19 
C 4506 19 4653 12 4730 0 
L 4742 19 
C 4691 381 4685 681 4685 1165 
L 4685 1801 
C 4685 2368 4582 2816 3891 2816 
C 3546 2816 3174 2694 2810 2310 
C 2752 2617 2490 2816 2131 2816 
C 1734 2816 1357 2559 1056 2240 
L 1037 2260 
z
" transform="scale(0.015625)"/>
       <path id="LinBiolinumT-62" d="M 1037 519 
L 1037 2181 
C 1286 2437 1446 2559 1709 2559 
C 2099 2559 2445 2237 2445 1436 
C 2445 641 2208 192 1600 192 
C 1402 192 1165 358 1037 519 
z
M 1037 3207 
C 1037 3683 1044 4022 1075 4415 
C 1075 4460 1057 4480 1018 4480 
C 858 4415 721 4370 461 4351 
L 448 4332 
C 498 4057 525 3580 525 3092 
L 525 467 
C 525 217 520 126 493 -13 
C 531 -52 605 -64 672 -64 
C 742 12 817 121 883 249 
C 1069 89 1363 -64 1638 -64 
C 2291 -64 3014 397 3014 1488 
C 3014 2271 2458 2816 1837 2816 
C 1530 2816 1254 2732 1037 2495 
L 1037 3207 
z
" transform="scale(0.015625)"/>
       <path id="LinBiolinumT-66" d="M 634 2752 
C 494 2752 347 2753 262 2764 
C 219 2661 184 2598 122 2502 
L 154 2457 
C 269 2465 480 2470 627 2470 
L 634 2470 
L 634 1286 
C 634 808 625 360 570 19 
L 582 0 
C 659 12 813 19 890 19 
C 966 19 1120 12 1197 0 
L 1210 19 
C 1156 382 1146 808 1146 1286 
L 1146 2470 
L 1363 2470 
C 1517 2470 1740 2465 1824 2457 
C 1843 2559 1862 2625 1901 2719 
L 1869 2764 
C 1761 2759 1568 2752 1421 2752 
L 1146 2752 
L 1146 2808 
C 1146 3035 1114 3362 1114 3475 
C 1114 3822 1343 4089 1709 4089 
C 1874 4089 2010 3982 2080 3840 
L 2150 3847 
C 2195 4039 2264 4261 2330 4396 
L 2323 4415 
C 2272 4447 2157 4480 2035 4480 
C 1632 4480 1228 4293 986 3975 
C 742 3657 634 3362 634 2997 
L 634 2752 
z
" transform="scale(0.015625)"/>
       <path id="LinBiolinumT-63" d="M 1600 2559 
C 1847 2559 2071 2377 2240 2085 
L 2323 2091 
L 2470 2617 
L 2458 2636 
C 2259 2739 1926 2816 1606 2816 
C 941 2816 243 2271 243 1398 
C 243 506 749 -64 1530 -64 
C 1914 -64 2214 64 2470 390 
L 2349 525 
L 2323 525 
C 2080 307 1876 256 1638 256 
C 1171 256 806 679 806 1430 
C 806 2136 1178 2559 1600 2559 
z
" transform="scale(0.015625)"/>
       <path id="LinBiolinumT-64" d="M 2310 724 
C 2077 426 1783 268 1523 268 
C 1178 268 883 615 883 1417 
C 883 2380 1393 2559 1702 2559 
C 2003 2559 2157 2431 2310 2187 
L 2310 724 
z
M 2310 371 
L 2323 371 
L 2355 0 
C 2355 6 2374 0 2413 0 
C 2497 11 2541 19 2634 19 
C 2714 19 2835 12 2918 0 
L 2931 19 
C 2880 292 2822 764 2822 1241 
L 2822 3207 
C 2822 3683 2848 4018 2880 4415 
C 2880 4460 2862 4480 2822 4480 
C 2662 4415 2525 4370 2266 4351 
L 2253 4332 
C 2303 4057 2310 3580 2310 3092 
L 2310 2675 
C 2163 2758 1901 2816 1773 2816 
C 940 2816 326 2241 326 1375 
C 326 576 794 -64 1485 -64 
C 1792 -64 2080 74 2310 371 
z
" transform="scale(0.015625)"/>
       <path id="CMMI12-6b" d="M 1798 4255 
C 1805 4281 1818 4319 1818 4351 
C 1818 4416 1754 4416 1741 4416 
C 1734 4416 1504 4396 1389 4383 
C 1280 4377 1184 4364 1069 4358 
C 915 4345 870 4339 870 4223 
C 870 4159 934 4159 998 4159 
C 1325 4159 1325 4103 1325 4040 
C 1325 4014 1325 4002 1293 3888 
L 378 250 
C 352 153 352 141 352 102 
C 352 -39 461 -64 525 -64 
C 704 -64 742 76 794 275 
L 1094 1476 
C 1555 1425 1830 1232 1830 924 
C 1830 885 1830 860 1811 763 
C 1786 667 1786 590 1786 558 
C 1786 185 2029 -64 2355 -64 
C 2650 -64 2803 205 2854 295 
C 2989 532 3072 892 3072 917 
C 3072 949 3046 975 3008 975 
C 2950 975 2944 949 2918 847 
C 2829 513 2694 64 2368 64 
C 2240 64 2157 128 2157 372 
C 2157 494 2182 635 2208 731 
C 2234 847 2234 853 2234 930 
C 2234 1309 1894 1521 1306 1598 
C 1536 1739 1766 1989 1856 2086 
C 2221 2495 2470 2687 2765 2687 
C 2912 2687 2950 2655 2995 2624 
C 2758 2598 2669 2431 2669 2303 
C 2669 2150 2790 2099 2880 2099 
C 3053 2099 3206 2246 3206 2451 
C 3206 2634 3059 2816 2771 2816 
C 2419 2816 2131 2579 1677 2067 
C 1613 1989 1376 1746 1139 1656 
L 1798 4255 
z
" transform="scale(0.015625)"/>
      </defs>
      <use xlink:href="#LinBiolinumT-4e" transform="scale(0.996264)"/>
      <use xlink:href="#LinBiolinumT-75" transform="translate(71.531789 0) scale(0.996264)"/>
      <use xlink:href="#LinBiolinumT-6d" transform="translate(125.031133 0) scale(0.996264)"/>
      <use xlink:href="#LinBiolinumT-62" transform="translate(205.429651 0) scale(0.996264)"/>
      <use xlink:href="#LinBiolinumT-65" transform="translate(256.6376 0) scale(0.996264)"/>
      <use xlink:href="#LinBiolinumT-72" transform="translate(301.768363 0) scale(0.996264)"/>
      <use xlink:href="#LinBiolinumT-6f" transform="translate(362.04229 0) scale(0.996264)"/>
      <use xlink:href="#LinBiolinumT-66" transform="translate(411.85549 0) scale(0.996264)"/>
      <use xlink:href="#LinBiolinumT-72" transform="translate(468.044789 0) scale(0.996264)"/>
      <use xlink:href="#LinBiolinumT-65" transform="translate(502.615056 0) scale(0.996264)"/>
      <use xlink:href="#LinBiolinumT-63" transform="translate(548.443201 0) scale(0.996264)"/>
      <use xlink:href="#LinBiolinumT-6f" transform="translate(591.182905 0) scale(0.996264)"/>
      <use xlink:href="#LinBiolinumT-6d" transform="translate(640.996106 0) scale(0.996264)"/>
      <use xlink:href="#LinBiolinumT-6d" transform="translate(721.394624 0) scale(0.996264)"/>
      <use xlink:href="#LinBiolinumT-65" transform="translate(801.793141 0) scale(0.996264)"/>
      <use xlink:href="#LinBiolinumT-6e" transform="translate(846.923904 0) scale(0.996264)"/>
      <use xlink:href="#LinBiolinumT-64" transform="translate(900.622483 0) scale(0.996264)"/>
      <use xlink:href="#LinBiolinumT-61" transform="translate(953.424445 0) scale(0.996264)"/>
      <use xlink:href="#LinBiolinumT-74" transform="translate(1001.344734 0) scale(0.996264)"/>
      <use xlink:href="#LinBiolinumT-69" transform="translate(1035.217726 0) scale(0.996264)"/>
      <use xlink:href="#LinBiolinumT-6f" transform="translate(1061.120605 0) scale(0.996264)"/>
      <use xlink:href="#LinBiolinumT-6e" transform="translate(1110.933806 0) scale(0.996264)"/>
      <use xlink:href="#LinBiolinumT-73" transform="translate(1164.632384 0) scale(0.996264)"/>
      <use xlink:href="#CMMI12-6b" transform="translate(1228.99103 0) scale(0.996264)"/>
     </g>
    </g>
   </g>
   <g id="patch_3">
    <path d="M 32.518817 177.013149 
L 32.518817 10.693149 
" style="fill: none; stroke: #000000; stroke-width: 0.8; stroke-linejoin: miter; stroke-linecap: square"/>
   </g>
   <g id="patch_4">
    <path d="M 255.718817 177.013149 
L 255.718817 10.693149 
" style="fill: none; stroke: #000000; stroke-width: 0.8; stroke-linejoin: miter; stroke-linecap: square"/>
   </g>
   <g id="patch_5">
    <path d="M 32.518817 177.013149 
L 255.718817 177.013149 
" style="fill: none; stroke: #000000; stroke-width: 0.8; stroke-linejoin: miter; stroke-linecap: square"/>
   </g>
   <g id="patch_6">
    <path d="M 32.518817 10.693149 
L 255.718817 10.693149 
" style="fill: none; stroke: #000000; stroke-width: 0.8; stroke-linejoin: miter; stroke-linecap: square"/>
   </g>
   <g id="legend_1">
    <g id="patch_7">
     <path d="M 273.878817 59.593149 
L 398.112789 59.593149 
Q 400.112789 59.593149 400.112789 57.593149 
L 400.112789 17.693149 
Q 400.112789 15.693149 398.112789 15.693149 
L 273.878817 15.693149 
Q 271.878817 15.693149 271.878817 17.693149 
L 271.878817 57.593149 
Q 271.878817 59.593149 273.878817 59.593149 
z
" style="fill: #ffffff; stroke: #cccccc; stroke-linejoin: miter"/>
    </g>
    <g id="patch_8">
     <path d="M 275.878817 35.143149 
L 295.878817 35.143149 
L 295.878817 19.693149 
L 275.878817 19.693149 
z
" style="fill: url(#h0c939d80a3)"/>
    </g>
    <g id="text_13">
     <!-- Change indeterminate -->
     <g transform="translate(303.878817 30.593149) scale(0.1 -0.1)">
      <defs>
       <path id="LinBiolinumT-43" d="M 2432 4224 
C 1350 4224 333 3287 333 2022 
C 333 911 966 -64 2342 -64 
C 2934 -64 3491 120 3918 638 
C 3914 712 3901 853 3878 911 
L 3834 930 
C 3379 429 2995 262 2400 262 
C 1588 262 992 1142 992 2144 
C 992 3448 1818 3923 2342 3923 
C 2918 3923 3386 3692 3648 3165 
L 3725 3171 
C 3748 3499 3770 3612 3840 3884 
L 3827 3904 
C 3827 3904 3213 4224 2432 4224 
L 2432 4224 
z
" transform="scale(0.015625)"/>
       <path id="LinBiolinumT-68" d="M 1088 2260 
L 1088 3214 
C 1088 3689 1115 4021 1146 4415 
C 1146 4460 1128 4480 1088 4480 
C 928 4415 791 4370 531 4351 
L 518 4332 
C 568 4057 576 3574 576 3085 
L 576 1165 
C 576 691 568 375 518 19 
L 531 0 
C 608 12 755 19 832 19 
C 909 19 1056 12 1133 0 
L 1146 19 
C 1098 383 1088 681 1088 1165 
L 1088 1909 
C 1414 2291 1789 2431 2016 2431 
C 2342 2431 2477 2304 2477 1788 
L 2477 1165 
C 2477 687 2470 361 2419 19 
L 2432 0 
C 2509 12 2656 19 2733 19 
C 2810 19 2957 12 3034 0 
L 3046 19 
C 2995 383 2989 681 2989 1165 
C 2989 1368 3002 1604 3002 1808 
C 3002 2470 2784 2816 2208 2816 
C 1965 2816 1510 2719 1101 2240 
L 1088 2260 
z
" transform="scale(0.015625)"/>
      </defs>
      <use xlink:href="#LinBiolinumT-43" transform="scale(0.996264)"/>
      <use xlink:href="#LinBiolinumT-68" transform="translate(67.44707 0) scale(0.996264)"/>
      <use xlink:href="#LinBiolinumT-61" transform="translate(122.141943 0) scale(0.996264)"/>
      <use xlink:href="#LinBiolinumT-6e" transform="translate(170.062233 0) scale(0.996264)"/>
      <use xlink:href="#LinBiolinumT-67" transform="translate(223.760812 0) scale(0.996264)"/>
      <use xlink:href="#LinBiolinumT-65" transform="translate(273.474334 0) scale(0.996264)"/>
      <use xlink:href="#LinBiolinumT-69" transform="translate(343.511697 0) scale(0.996264)"/>
      <use xlink:href="#LinBiolinumT-6e" transform="translate(369.414576 0) scale(0.996264)"/>
      <use xlink:href="#LinBiolinumT-64" transform="translate(423.113155 0) scale(0.996264)"/>
      <use xlink:href="#LinBiolinumT-65" transform="translate(475.915117 0) scale(0.996264)"/>
      <use xlink:href="#LinBiolinumT-74" transform="translate(521.04588 0) scale(0.996264)"/>
      <use xlink:href="#LinBiolinumT-65" transform="translate(554.918871 0) scale(0.996264)"/>
      <use xlink:href="#LinBiolinumT-72" transform="translate(600.049634 0) scale(0.996264)"/>
      <use xlink:href="#LinBiolinumT-6d" transform="translate(635.416961 0) scale(0.996264)"/>
      <use xlink:href="#LinBiolinumT-69" transform="translate(715.815478 0) scale(0.996264)"/>
      <use xlink:href="#LinBiolinumT-6e" transform="translate(741.718358 0) scale(0.996264)"/>
      <use xlink:href="#LinBiolinumT-61" transform="translate(795.416936 0) scale(0.996264)"/>
      <use xlink:href="#LinBiolinumT-74" transform="translate(843.337226 0) scale(0.996264)"/>
      <use xlink:href="#LinBiolinumT-65" transform="translate(877.210218 0) scale(0.996264)"/>
     </g>
    </g>
    <g id="patch_9">
     <path d="M 275.878817 55.593149 
L 295.878817 55.593149 
L 295.878817 40.143149 
L 275.878817 40.143149 
z
" style="fill: url(#h3809805fca)"/>
    </g>
    <g id="text_14">
     <!-- Inequality decreases -->
     <g transform="translate(303.878817 51.043149) scale(0.1 -0.1)">
      <defs>
       <path id="LinBiolinumT-49" d="M 666 2863 
L 666 1297 
C 666 818 653 364 602 19 
L 614 0 
C 691 12 864 19 941 19 
C 1018 19 1190 12 1267 0 
L 1280 19 
C 1229 383 1216 818 1216 1297 
L 1216 2863 
C 1216 3342 1229 3802 1280 4141 
L 1267 4160 
C 1190 4147 1018 4141 941 4141 
C 864 4141 691 4147 614 4160 
L 602 4141 
C 653 3776 666 3342 666 2863 
z
" transform="scale(0.015625)"/>
       <path id="LinBiolinumT-71" d="M 2285 2412 
C 2285 2412 2304 2142 2304 1501 
L 2304 422 
C 2138 294 1824 217 1702 217 
C 1331 217 877 487 877 1456 
C 877 2123 1210 2559 1683 2559 
C 1964 2559 2145 2527 2285 2412 
z
M 2342 2771 
C 2227 2790 1862 2816 1645 2816 
C 902 2816 314 2232 314 1385 
C 314 716 666 -64 1549 -64 
C 1914 -64 2208 64 2304 147 
L 2304 -208 
C 2304 -693 2301 -1166 2246 -1517 
L 2259 -1536 
C 2259 -1536 2336 -1517 2560 -1517 
C 2779 -1517 2861 -1536 2861 -1536 
L 2874 -1517 
C 2820 -1144 2816 -700 2816 -208 
L 2816 1507 
C 2816 1988 2829 2475 2874 2751 
L 2861 2771 
C 2715 2757 2459 2751 2342 2771 
z
" transform="scale(0.015625)"/>
      </defs>
      <use xlink:href="#LinBiolinumT-49" transform="scale(0.996264)"/>
      <use xlink:href="#LinBiolinumT-6e" transform="translate(29.290125 0) scale(0.996264)"/>
      <use xlink:href="#LinBiolinumT-65" transform="translate(82.988704 0) scale(0.996264)"/>
      <use xlink:href="#LinBiolinumT-71" transform="translate(128.816848 0) scale(0.996264)"/>
      <use xlink:href="#LinBiolinumT-75" transform="translate(180.821857 0) scale(0.996264)"/>
      <use xlink:href="#LinBiolinumT-61" transform="translate(234.321201 0) scale(0.996264)"/>
      <use xlink:href="#LinBiolinumT-6c" transform="translate(282.241491 0) scale(0.996264)"/>
      <use xlink:href="#LinBiolinumT-69" transform="translate(307.347325 0) scale(0.996264)"/>
      <use xlink:href="#LinBiolinumT-74" transform="translate(333.250205 0) scale(0.996264)"/>
      <use xlink:href="#LinBiolinumT-79" transform="translate(367.123196 0) scale(0.996264)"/>
      <use xlink:href="#LinBiolinumT-64" transform="translate(442.440701 0) scale(0.996264)"/>
      <use xlink:href="#LinBiolinumT-65" transform="translate(495.242663 0) scale(0.996264)"/>
      <use xlink:href="#LinBiolinumT-63" transform="translate(541.070807 0) scale(0.996264)"/>
      <use xlink:href="#LinBiolinumT-72" transform="translate(583.810512 0) scale(0.996264)"/>
      <use xlink:href="#LinBiolinumT-65" transform="translate(618.380779 0) scale(0.996264)"/>
      <use xlink:href="#LinBiolinumT-61" transform="translate(663.511542 0) scale(0.996264)"/>
      <use xlink:href="#LinBiolinumT-73" transform="translate(711.431832 0) scale(0.996264)"/>
      <use xlink:href="#LinBiolinumT-65" transform="translate(750.883877 0) scale(0.996264)"/>
      <use xlink:href="#LinBiolinumT-73" transform="translate(796.01464 0) scale(0.996264)"/>
     </g>
    </g>
   </g>
  </g>
 </g>
 <defs>
  <clipPath id="p4ae59cef31">
   <rect x="32.518817" y="10.693149" width="223.2" height="166.32"/>
  </clipPath>
 </defs>
 <defs>
  <pattern id="h0c939d80a3" patternUnits="userSpaceOnUse" x="0" y="0" width="72" height="72">
   <rect x="0" y="0" width="73" height="73" fill="none"/>
   <path d="M 0 69 
L 72 69 
M 0 63 
L 72 63 
M 0 57 
L 72 57 
M 0 51 
L 72 51 
M 0 45 
L 72 45 
M 0 39 
L 72 39 
M 0 33 
L 72 33 
M 0 27 
L 72 27 
M 0 21 
L 72 21 
M 0 15 
L 72 15 
M 0 9 
L 72 9 
M 0 3 
L 72 3 
" style="fill: #000000; stroke: #000000; stroke-width: 1.0; stroke-linecap: butt; stroke-linejoin: miter"/>
  </pattern>
  <pattern id="h3809805fca" patternUnits="userSpaceOnUse" x="0" y="0" width="72" height="72">
   <rect x="0" y="0" width="73" height="73" fill="none"/>
   <path d="M -36 36 
L 36 108 
M -30 30 
L 42 102 
M -24 24 
L 48 96 
M -18 18 
L 54 90 
M -12 12 
L 60 84 
M -6 6 
L 66 78 
M 0 0 
L 72 72 
M 6 -6 
L 78 66 
M 12 -12 
L 84 60 
M 18 -18 
L 90 54 
M 24 -24 
L 96 48 
M 30 -30 
L 102 42 
M 36 -36 
L 108 36 
" style="fill: #000000; stroke: #000000; stroke-width: 1.0; stroke-linecap: butt; stroke-linejoin: miter"/>
  </pattern>
 </defs>
</svg>
